Noto.ufo
<glyph name="period" format="2">
  <advance width="512"/>
  <unicode hex="002E"/>
  <outline>
    <contour>
      <point x="127" y="125" type="qcurve" smooth="yes"/>
      <point x="127" y="165"/>
      <point x="147" y="218"/>
      <point x="182" y="250"/>
      <point x="229" y="264"/>
      <point x="256" y="264" type="qcurve" smooth="yes"/>
      <point x="282" y="264"/>
      <point x="329" y="250"/>
      <point x="364" y="218"/>
      <point x="385" y="165"/>
      <point x="385" y="125" type="qcurve" smooth="yes"/>
      <point x="385" y="86"/>
      <point x="364" y="32"/>
      <point x="329" y="0"/>
      <point x="282" y="-14"/>
      <point x="256" y="-14" type="qcurve" smooth="yes"/>
      <point x="229" y="-14"/>
      <point x="182" y="0"/>
      <point x="147" y="32"/>
      <point x="127" y="86"/>
    </contour>
  </outline>
</glyph>
<glyph name="semicolon" format="2">
  <advance width="586"/>
  <unicode hex="003B"/>
  <outline>
    <contour>
      <point x="434" y="86" type="qcurve" smooth="yes"/>
      <point x="434" y="21"/>
      <point x="398" y="-101"/>
      <point x="317" y="-205"/>
      <point x="190" y="-288"/>
      <point x="98" y="-315" type="qcurve"/>
      <point x="98" y="-229" type="line"/>
      <point x="199" y="-197"/>
      <point x="293" y="-105"/>
      <point x="293" y="-45" type="qcurve" smooth="yes"/>
      <point x="293" y="-25"/>
      <point x="271" y="2"/>
      <point x="237" y="23"/>
      <point x="199" y="43"/>
      <point x="165" y="71"/>
      <point x="143" y="112"/>
      <point x="143" y="143" type="qcurve" smooth="yes"/>
      <point x="143" y="202"/>
      <point x="220" y="264"/>
      <point x="277" y="264" type="qcurve" smooth="yes"/>
      <point x="309" y="264"/>
      <point x="365" y="241"/>
      <point x="409" y="196"/>
      <point x="434" y="129"/>
    </contour>
    <contour>
      <point x="166" y="969" type="qcurve" smooth="yes"/>
      <point x="166" y="1009"/>
      <point x="186" y="1062"/>
      <point x="221" y="1094"/>
      <point x="268" y="1108"/>
      <point x="295" y="1108" type="qcurve" smooth="yes"/>
      <point x="321" y="1108"/>
      <point x="368" y="1094"/>
      <point x="403" y="1062"/>
      <point x="424" y="1009"/>
      <point x="424" y="969" type="qcurve" smooth="yes"/>
      <point x="424" y="930"/>
      <point x="403" y="876"/>
      <point x="368" y="843"/>
      <point x="321" y="829"/>
      <point x="295" y="829" type="qcurve" smooth="yes"/>
      <point x="268" y="829"/>
      <point x="221" y="843"/>
      <point x="186" y="876"/>
      <point x="166" y="930"/>
    </contour>
  </outline>
</glyph>
<glyph name="J" format="2">
  <advance width="731"/>
  <unicode hex="004A"/>
  <outline>
    <contour>
      <point x="-23" y="-395" type="line"/>
      <point x="-4" y="-395" type="line" smooth="yes"/>
      <point x="62" y="-395"/>
      <point x="165" y="-358"/>
      <point x="235" y="-271"/>
      <point x="272" y="-126"/>
      <point x="272" y="-18" type="qcurve" smooth="yes"/>
      <point x="272" y="1237" type="line" smooth="yes"/>
      <point x="272" y="1282"/>
      <point x="245" y="1337"/>
      <point x="199" y="1367"/>
      <point x="138" y="1376"/>
      <point x="104" y="1376" type="qcurve" smooth="yes"/>
      <point x="78" y="1376" type="line"/>
      <point x="78" y="1462" type="line"/>
      <point x="674" y="1462" type="line"/>
      <point x="674" y="1376" type="line"/>
      <point x="647" y="1376" type="line" smooth="yes"/>
      <point x="613" y="1376"/>
      <point x="551" y="1366"/>
      <point x="506" y="1335"/>
      <point x="479" y="1277"/>
      <point x="479" y="1229" type="qcurve" smooth="yes"/>
      <point x="479" y="-16" type="line" smooth="yes"/>
      <point x="479" y="-154"/>
      <point x="407" y="-337"/>
      <point x="281" y="-446"/>
      <point x="110" y="-492"/>
      <point x="12" y="-492" type="qcurve" smooth="yes"/>
      <point x="-23" y="-492" type="line"/>
    </contour>
  </outline>
</glyph>
<glyph name="P" format="2">
  <advance width="1237"/>
  <unicode hex="0050"/>
  <outline>
    <contour>
      <point x="78" y="0" type="line"/>
      <point x="78" y="86" type="line"/>
      <point x="104" y="86" type="line" smooth="yes"/>
      <point x="139" y="86"/>
      <point x="200" y="96"/>
      <point x="246" y="127"/>
      <point x="272" y="185"/>
      <point x="272" y="233" type="qcurve" smooth="yes"/>
      <point x="272" y="1237" type="line" smooth="yes"/>
      <point x="272" y="1282"/>
      <point x="245" y="1337"/>
      <point x="199" y="1367"/>
      <point x="138" y="1376"/>
      <point x="104" y="1376" type="qcurve" smooth="yes"/>
      <point x="78" y="1376" type="line"/>
      <point x="78" y="1462" type="line"/>
      <point x="653" y="1462" type="line" smooth="yes"/>
      <point x="782" y="1462"/>
      <point x="972" y="1403"/>
      <point x="1096" y="1292"/>
      <point x="1157" y="1134"/>
      <point x="1157" y="1034" type="qcurve" smooth="yes"/>
      <point x="1157" y="943"/>
      <point x="1100" y="775"/>
      <point x="970" y="646"/>
      <point x="760" y="569"/>
      <point x="608" y="569" type="qcurve" smooth="yes"/>
      <point x="479" y="569" type="line"/>
      <point x="479" y="223" type="line" smooth="yes"/>
      <point x="479" y="178"/>
      <point x="506" y="123"/>
      <point x="552" y="95"/>
      <point x="613" y="86"/>
      <point x="647" y="86" type="qcurve" smooth="yes"/>
      <point x="715" y="86" type="line"/>
      <point x="715" y="0" type="line"/>
    </contour>
    <contour>
      <point x="479" y="666" type="line"/>
      <point x="588" y="666" type="line" smooth="yes"/>
      <point x="681" y="666"/>
      <point x="813" y="705"/>
      <point x="897" y="792"/>
      <point x="936" y="929"/>
      <point x="936" y="1026" type="qcurve" smooth="yes"/>
      <point x="936" y="1112"/>
      <point x="902" y="1239"/>
      <point x="826" y="1323"/>
      <point x="705" y="1364"/>
      <point x="618" y="1364" type="qcurve" smooth="yes"/>
      <point x="479" y="1364" type="line"/>
    </contour>
  </outline>
</glyph>
<glyph name="Z" format="2">
  <advance width="1212"/>
  <unicode hex="005A"/>
  <outline>
    <contour>
      <point x="1094" y="1378" type="line"/>
      <point x="324" y="102" type="line"/>
      <point x="840" y="102" type="line" smooth="yes"/>
      <point x="886" y="102"/>
      <point x="948" y="129"/>
      <point x="986" y="175"/>
      <point x="1006" y="236"/>
      <point x="1010" y="270" type="qcurve" smooth="yes"/>
      <point x="1020" y="358" type="line"/>
      <point x="1126" y="358" type="line"/>
      <point x="1116" y="0" type="line"/>
      <point x="74" y="0" type="line"/>
      <point x="74" y="82" type="line"/>
      <point x="842" y="1360" type="line"/>
      <point x="397" y="1360" type="line" smooth="yes"/>
      <point x="352" y="1360"/>
      <point x="291" y="1333"/>
      <point x="253" y="1287"/>
      <point x="233" y="1226"/>
      <point x="229" y="1192" type="qcurve" smooth="yes"/>
      <point x="219" y="1104" type="line"/>
      <point x="113" y="1104" type="line"/>
      <point x="123" y="1462" type="line"/>
      <point x="1094" y="1462" type="line"/>
    </contour>
  </outline>
</glyph>
<glyph name="bracketleft" format="2">
  <advance width="737"/>
  <unicode hex="005B"/>
  <outline>
    <contour>
      <point x="205" y="-262" type="line"/>
      <point x="205" y="1556" type="line"/>
      <point x="662" y="1556" type="line"/>
      <point x="662" y="1470" type="line"/>
      <point x="573" y="1470" type="line" smooth="yes"/>
      <point x="539" y="1470"/>
      <point x="478" y="1460"/>
      <point x="432" y="1429"/>
      <point x="406" y="1371"/>
      <point x="406" y="1323" type="qcurve" smooth="yes"/>
      <point x="406" y="-29" type="line" smooth="yes"/>
      <point x="406" y="-77"/>
      <point x="432" y="-135"/>
      <point x="478" y="-166"/>
      <point x="539" y="-176"/>
      <point x="573" y="-176" type="qcurve" smooth="yes"/>
      <point x="662" y="-176" type="line"/>
      <point x="662" y="-262" type="line"/>
    </contour>
  </outline>
</glyph>
<glyph name="underscore" format="2">
  <advance width="940"/>
  <unicode hex="005F"/>
  <outline>
    <contour>
      <point x="950" y="-291" type="line"/>
      <point x="-10" y="-291" type="line"/>
      <point x="-10" y="-170" type="line"/>
      <point x="950" y="-170" type="line"/>
    </contour>
  </outline>
</glyph>
<glyph name="d" format="2">
  <advance width="1257"/>
  <unicode hex="0064"/>
  <outline>
    <contour>
      <point x="1036" y="225" type="line" smooth="yes"/>
      <point x="1036" y="180"/>
      <point x="1063" y="125"/>
      <point x="1109" y="95"/>
      <point x="1170" y="86"/>
      <point x="1204" y="86" type="qcurve" smooth="yes"/>
      <point x="1221" y="86" type="line"/>
      <point x="1221" y="0" type="line"/>
      <point x="874" y="0" type="line"/>
      <point x="852" y="184" type="line"/>
      <point x="844" y="184" type="line"/>
      <point x="821" y="137"/>
      <point x="762" y="62"/>
      <point x="686" y="9"/>
      <point x="590" y="-20"/>
      <point x="530" y="-20" type="qcurve" smooth="yes"/>
      <point x="429" y="-20"/>
      <point x="273" y="47"/>
      <point x="167" y="186"/>
      <point x="113" y="400"/>
      <point x="113" y="547" type="qcurve" smooth="yes"/>
      <point x="113" y="695"/>
      <point x="167" y="911"/>
      <point x="273" y="1051"/>
      <point x="429" y="1118"/>
      <point x="530" y="1118" type="qcurve" smooth="yes"/>
      <point x="589" y="1118"/>
      <point x="685" y="1092"/>
      <point x="762" y="1044"/>
      <point x="822" y="978"/>
      <point x="844" y="938" type="qcurve"/>
      <point x="856" y="938" type="line"/>
      <point x="853" y="988"/>
      <point x="850" y="1032" type="qcurve" smooth="yes"/>
      <point x="848" y="1070"/>
      <point x="844" y="1145"/>
      <point x="844" y="1163" type="qcurve" smooth="yes"/>
      <point x="844" y="1331" type="line" smooth="yes"/>
      <point x="844" y="1376"/>
      <point x="817" y="1431"/>
      <point x="771" y="1461"/>
      <point x="710" y="1470"/>
      <point x="676" y="1470" type="qcurve" smooth="yes"/>
      <point x="659" y="1470" type="line"/>
      <point x="659" y="1556" type="line"/>
      <point x="1036" y="1556" type="line"/>
    </contour>
    <contour>
      <point x="565" y="111" type="qcurve" smooth="yes"/>
      <point x="645" y="111"/>
      <point x="752" y="164"/>
      <point x="817" y="272"/>
      <point x="844" y="436"/>
      <point x="844" y="547" type="qcurve" smooth="yes"/>
      <point x="844" y="654"/>
      <point x="817" y="818"/>
      <point x="752" y="929"/>
      <point x="644" y="987"/>
      <point x="563" y="987" type="qcurve" smooth="yes"/>
      <point x="496" y="987"/>
      <point x="400" y="929"/>
      <point x="339" y="817"/>
      <point x="311" y="652"/>
      <point x="311" y="545" type="qcurve" smooth="yes"/>
      <point x="311" y="327"/>
      <point x="429" y="111"/>
    </contour>
  </outline>
</glyph>
<glyph name="i" format="2">
  <advance width="655"/>
  <unicode hex="0069"/>
  <outline>
    <contour>
      <point x="74" y="86" type="line" smooth="yes"/>
      <point x="108" y="86"/>
      <point x="169" y="95"/>
      <point x="215" y="123"/>
      <point x="242" y="178"/>
      <point x="242" y="223" type="qcurve" smooth="yes"/>
      <point x="242" y="872" type="line" smooth="yes"/>
      <point x="242" y="917"/>
      <point x="215" y="972"/>
      <point x="169" y="1002"/>
      <point x="108" y="1012"/>
      <point x="74" y="1012" type="qcurve" smooth="yes"/>
      <point x="68" y="1012" type="line"/>
      <point x="68" y="1098" type="line"/>
      <point x="434" y="1098" type="line"/>
      <point x="434" y="233" type="line" smooth="yes"/>
      <point x="434" y="185"/>
      <point x="461" y="127"/>
      <point x="506" y="96"/>
      <point x="568" y="86"/>
      <point x="602" y="86" type="qcurve" smooth="yes"/>
      <point x="629" y="86" type="line"/>
      <point x="629" y="0" type="line"/>
      <point x="47" y="0" type="line"/>
      <point x="47" y="86" type="line"/>
    </contour>
    <contour>
      <point x="213" y="1430" type="qcurve" smooth="yes"/>
      <point x="213" y="1466"/>
      <point x="231" y="1514"/>
      <point x="263" y="1544"/>
      <point x="305" y="1556"/>
      <point x="330" y="1556" type="qcurve" smooth="yes"/>
      <point x="354" y="1556"/>
      <point x="396" y="1544"/>
      <point x="427" y="1514"/>
      <point x="446" y="1466"/>
      <point x="446" y="1430" type="qcurve" smooth="yes"/>
      <point x="446" y="1394"/>
      <point x="427" y="1346"/>
      <point x="396" y="1316"/>
      <point x="354" y="1303"/>
      <point x="330" y="1303" type="qcurve" smooth="yes"/>
      <point x="305" y="1303"/>
      <point x="263" y="1316"/>
      <point x="231" y="1346"/>
      <point x="213" y="1394"/>
    </contour>
  </outline>
</glyph>
<glyph name="l" format="2">
  <advance width="635"/>
  <unicode hex="006C"/>
  <outline>
    <contour>
      <point x="53" y="86" type="line" smooth="yes"/>
      <point x="88" y="86"/>
      <point x="149" y="96"/>
      <point x="194" y="127"/>
      <point x="221" y="185"/>
      <point x="221" y="233" type="qcurve" smooth="yes"/>
      <point x="221" y="1331" type="line" smooth="yes"/>
      <point x="221" y="1376"/>
      <point x="194" y="1431"/>
      <point x="148" y="1461"/>
      <point x="87" y="1470"/>
      <point x="53" y="1470" type="qcurve" smooth="yes"/>
      <point x="27" y="1470" type="line"/>
      <point x="27" y="1556" type="line"/>
      <point x="414" y="1556" type="line"/>
      <point x="414" y="233" type="line" smooth="yes"/>
      <point x="414" y="185"/>
      <point x="440" y="127"/>
      <point x="486" y="96"/>
      <point x="547" y="86"/>
      <point x="582" y="86" type="qcurve" smooth="yes"/>
      <point x="608" y="86" type="line"/>
      <point x="608" y="0" type="line"/>
      <point x="27" y="0" type="line"/>
      <point x="27" y="86" type="line"/>
    </contour>
  </outline>
</glyph>
<glyph name="p" format="2">
  <advance width="1257"/>
  <unicode hex="0070"/>
  <outline>
    <contour>
      <point x="692" y="987" type="qcurve" smooth="yes"/>
      <point x="612" y="987"/>
      <point x="505" y="934"/>
      <point x="441" y="826"/>
      <point x="414" y="662"/>
      <point x="414" y="551" type="qcurve" smooth="yes"/>
      <point x="414" y="444"/>
      <point x="441" y="280"/>
      <point x="506" y="168"/>
      <point x="613" y="111"/>
      <point x="694" y="111" type="qcurve" smooth="yes"/>
      <point x="762" y="111"/>
      <point x="857" y="168"/>
      <point x="918" y="280"/>
      <point x="946" y="445"/>
      <point x="946" y="553" type="qcurve" smooth="yes"/>
      <point x="946" y="662"/>
      <point x="918" y="825"/>
      <point x="857" y="933"/>
      <point x="760" y="987"/>
    </contour>
    <contour>
      <point x="1145" y="551" type="qcurve" smooth="yes"/>
      <point x="1145" y="403"/>
      <point x="1090" y="187"/>
      <point x="984" y="47"/>
      <point x="828" y="-20"/>
      <point x="727" y="-20" type="qcurve" smooth="yes"/>
      <point x="668" y="-20"/>
      <point x="572" y="6"/>
      <point x="495" y="54"/>
      <point x="436" y="120"/>
      <point x="414" y="160" type="qcurve"/>
      <point x="406" y="160" type="line"/>
      <point x="408" y="107"/>
      <point x="410" y="61" type="qcurve" smooth="yes"/>
      <point x="411" y="42"/>
      <point x="412" y="1"/>
      <point x="413" y="-35"/>
      <point x="414" y="-64"/>
      <point x="414" y="-72" type="qcurve" smooth="yes"/>
      <point x="414" y="-268" type="line" smooth="yes"/>
      <point x="414" y="-313"/>
      <point x="441" y="-368"/>
      <point x="487" y="-397"/>
      <point x="548" y="-406"/>
      <point x="582" y="-406" type="qcurve" smooth="yes"/>
      <point x="588" y="-406" type="line"/>
      <point x="588" y="-492" type="line"/>
      <point x="37" y="-492" type="line"/>
      <point x="37" y="-406" type="line"/>
      <point x="53" y="-406" type="line" smooth="yes"/>
      <point x="88" y="-406"/>
      <point x="149" y="-396"/>
      <point x="194" y="-365"/>
      <point x="221" y="-306"/>
      <point x="221" y="-258" type="qcurve" smooth="yes"/>
      <point x="221" y="872" type="line" smooth="yes"/>
      <point x="221" y="917"/>
      <point x="194" y="972"/>
      <point x="148" y="1002"/>
      <point x="87" y="1012"/>
      <point x="53" y="1012" type="qcurve" smooth="yes"/>
      <point x="27" y="1012" type="line"/>
      <point x="27" y="1098" type="line"/>
      <point x="385" y="1098" type="line"/>
      <point x="406" y="913" type="line"/>
      <point x="414" y="913" type="line"/>
      <point x="437" y="960"/>
      <point x="495" y="1036"/>
      <point x="571" y="1089"/>
      <point x="667" y="1118"/>
      <point x="727" y="1118" type="qcurve" smooth="yes"/>
      <point x="828" y="1118"/>
      <point x="984" y="1051"/>
      <point x="1090" y="912"/>
      <point x="1145" y="698"/>
    </contour>
  </outline>
</glyph>
<glyph name="v" format="2">
  <advance width="1186"/>
  <unicode hex="0076"/>
  <outline>
    <contour>
      <point x="8" y="1012" type="line"/>
      <point x="8" y="1098" type="line"/>
      <point x="520" y="1098" type="line"/>
      <point x="520" y="1012" type="line"/>
      <point x="494" y="1012" type="line" smooth="yes"/>
      <point x="432" y="1012"/>
      <point x="371" y="964"/>
      <point x="371" y="913" type="qcurve" smooth="yes"/>
      <point x="371" y="896"/>
      <point x="379" y="861"/>
      <point x="387" y="838" type="qcurve" smooth="yes"/>
      <point x="526" y="451" type="line" smooth="yes"/>
      <point x="539" y="415"/>
      <point x="567" y="328"/>
      <point x="592" y="244"/>
      <point x="612" y="169"/>
      <point x="616" y="143" type="qcurve"/>
      <point x="623" y="143" type="line"/>
      <point x="628" y="165"/>
      <point x="651" y="230"/>
      <point x="680" y="307"/>
      <point x="711" y="387"/>
      <point x="725" y="424" type="qcurve" smooth="yes"/>
      <point x="872" y="823" type="line" smooth="yes"/>
      <point x="882" y="848"/>
      <point x="891" y="894"/>
      <point x="891" y="911" type="qcurve" smooth="yes"/>
      <point x="891" y="964"/>
      <point x="824" y="1012"/>
      <point x="756" y="1012" type="qcurve" smooth="yes"/>
      <point x="741" y="1012" type="line"/>
      <point x="741" y="1098" type="line"/>
      <point x="1180" y="1098" type="line"/>
      <point x="1180" y="1012" type="line"/>
      <point x="1155" y="1012" type="line" smooth="yes"/>
      <point x="1125" y="1012"/>
      <point x="1083" y="999"/>
      <point x="1049" y="963"/>
      <point x="1018" y="901"/>
      <point x="999" y="852" type="qcurve" smooth="yes"/>
      <point x="676" y="0" type="line"/>
      <point x="489" y="0" type="line"/>
      <point x="160" y="903" type="line" smooth="yes"/>
      <point x="148" y="935"/>
      <point x="122" y="977"/>
      <point x="88" y="1002"/>
      <point x="44" y="1012"/>
      <point x="14" y="1012" type="qcurve" smooth="yes"/>
    </contour>
  </outline>
</glyph>
<glyph name="x" format="2">
  <advance width="1184"/>
  <unicode hex="0078"/>
  <outline>
    <contour>
      <point x="786" y="952" type="qcurve" smooth="yes"/>
      <point x="786" y="989"/>
      <point x="723" y="1012"/>
      <point x="676" y="1012" type="qcurve" smooth="yes"/>
      <point x="670" y="1012" type="line"/>
      <point x="670" y="1098" type="line"/>
      <point x="1118" y="1098" type="line"/>
      <point x="1118" y="1012" type="line"/>
      <point x="1100" y="1012" type="line" smooth="yes"/>
      <point x="1070" y="1012"/>
      <point x="1021" y="1002"/>
      <point x="974" y="974"/>
      <point x="924" y="922"/>
      <point x="893" y="881" type="qcurve" smooth="yes"/>
      <point x="682" y="600" type="line"/>
      <point x="983" y="195" type="line" smooth="yes"/>
      <point x="1028" y="135"/>
      <point x="1109" y="86"/>
      <point x="1147" y="86" type="qcurve" smooth="yes"/>
      <point x="1174" y="86" type="line"/>
      <point x="1174" y="0" type="line"/>
      <point x="645" y="0" type="line"/>
      <point x="645" y="86" type="line"/>
      <point x="655" y="86" type="line" smooth="yes"/>
      <point x="778" y="86"/>
      <point x="778" y="154" type="qcurve" smooth="yes"/>
      <point x="778" y="165"/>
      <point x="772" y="188"/>
      <point x="754" y="219"/>
      <point x="724" y="263"/>
      <point x="700" y="295" type="qcurve" smooth="yes"/>
      <point x="563" y="479" type="line"/>
      <point x="420" y="279" type="line" smooth="yes"/>
      <point x="411" y="267"/>
      <point x="391" y="235"/>
      <point x="375" y="201"/>
      <point x="365" y="166"/>
      <point x="365" y="150" type="qcurve" smooth="yes"/>
      <point x="365" y="115"/>
      <point x="423" y="86"/>
      <point x="492" y="86" type="qcurve" smooth="yes"/>
      <point x="498" y="86" type="line"/>
      <point x="498" y="0" type="line"/>
      <point x="10" y="0" type="line"/>
      <point x="10" y="86" type="line"/>
      <point x="29" y="86" type="line" smooth="yes"/>
      <point x="66" y="86"/>
      <point x="122" y="98"/>
      <point x="172" y="128"/>
      <point x="222" y="179"/>
      <point x="252" y="217" type="qcurve" smooth="yes"/>
      <point x="510" y="551" type="line"/>
      <point x="252" y="903" type="line"/>
      <point x="207" y="956"/>
      <point x="122" y="1012"/>
      <point x="76" y="1012" type="qcurve" smooth="yes"/>
      <point x="49" y="1012" type="line"/>
      <point x="49" y="1098" type="line"/>
      <point x="569" y="1098" type="line"/>
      <point x="569" y="1012" type="line"/>
      <point x="563" y="1012" type="line" smooth="yes"/>
      <point x="528" y="1012"/>
      <point x="482" y="1003"/>
      <point x="456" y="986"/>
      <point x="446" y="964"/>
      <point x="446" y="952" type="qcurve" smooth="yes"/>
      <point x="446" y="931"/>
      <point x="471" y="890"/>
      <point x="494" y="858" type="qcurve" smooth="yes"/>
      <point x="629" y="674" type="line"/>
      <point x="735" y="827" type="line" smooth="yes"/>
      <point x="758" y="862"/>
      <point x="786" y="924"/>
    </contour>
  </outline>
</glyph>
<glyph name="braceleft" format="2">
  <advance width="877"/>
  <unicode hex="007B"/>
  <outline>
    <contour>
      <point x="639" y="-262" type="line" smooth="yes"/>
      <point x="567" y="-262"/>
      <point x="456" y="-220"/>
      <point x="382" y="-144"/>
      <point x="344" y="-35"/>
      <point x="344" y="33" type="qcurve" smooth="yes"/>
      <point x="344" y="389" type="line" smooth="yes"/>
      <point x="344" y="452"/>
      <point x="307" y="534"/>
      <point x="241" y="583"/>
      <point x="153" y="604"/>
      <point x="102" y="606" type="qcurve"/>
      <point x="102" y="692" type="line"/>
      <point x="153" y="694"/>
      <point x="241" y="714"/>
      <point x="307" y="763"/>
      <point x="344" y="845"/>
      <point x="344" y="907" type="qcurve" smooth="yes"/>
      <point x="344" y="1264" type="line" smooth="yes"/>
      <point x="344" y="1404"/>
      <point x="493" y="1556"/>
      <point x="639" y="1556" type="qcurve" smooth="yes"/>
      <point x="774" y="1556" type="line"/>
      <point x="774" y="1468" type="line"/>
      <point x="713" y="1468" type="line" smooth="yes"/>
      <point x="622" y="1468"/>
      <point x="545" y="1360"/>
      <point x="545" y="1253" type="qcurve" smooth="yes"/>
      <point x="545" y="903" type="line" smooth="yes"/>
      <point x="545" y="803"/>
      <point x="432" y="670"/>
      <point x="317" y="651" type="qcurve"/>
      <point x="317" y="649" type="line"/>
      <point x="435" y="629"/>
      <point x="545" y="497"/>
      <point x="545" y="395" type="qcurve" smooth="yes"/>
      <point x="545" y="41" type="line" smooth="yes"/>
      <point x="545" y="-64"/>
      <point x="622" y="-174"/>
      <point x="713" y="-174" type="qcurve" smooth="yes"/>
      <point x="774" y="-174" type="line"/>
      <point x="774" y="-262" type="line"/>
    </contour>
  </outline>
</glyph>
<glyph name="bar" format="2">
  <advance width="1145"/>
  <unicode hex="007C"/>
  <outline>
    <contour>
      <point x="633" y="-492" type="line"/>
      <point x="510" y="-492" type="line"/>
      <point x="510" y="1556" type="line"/>
      <point x="633" y="1556" type="line"/>
    </contour>
  </outline>
</glyph>
<glyph name="braceright" format="2">
  <advance width="877"/>
  <unicode hex="007D"/>
  <outline>
    <contour>
      <point x="102" y="-174" type="line"/>
      <point x="164" y="-174" type="line" smooth="yes"/>
      <point x="255" y="-174"/>
      <point x="332" y="-64"/>
      <point x="332" y="41" type="qcurve" smooth="yes"/>
      <point x="332" y="395" type="line" smooth="yes"/>
      <point x="332" y="497"/>
      <point x="441" y="629"/>
      <point x="559" y="649" type="qcurve"/>
      <point x="559" y="651" type="line"/>
      <point x="445" y="670"/>
      <point x="332" y="803"/>
      <point x="332" y="903" type="qcurve" smooth="yes"/>
      <point x="332" y="1253" type="line" smooth="yes"/>
      <point x="332" y="1360"/>
      <point x="255" y="1468"/>
      <point x="164" y="1468" type="qcurve" smooth="yes"/>
      <point x="102" y="1468" type="line"/>
      <point x="102" y="1556" type="line"/>
      <point x="238" y="1556" type="line" smooth="yes"/>
      <point x="383" y="1556"/>
      <point x="532" y="1404"/>
      <point x="532" y="1264" type="qcurve" smooth="yes"/>
      <point x="532" y="907" type="line" smooth="yes"/>
      <point x="532" y="845"/>
      <point x="570" y="763"/>
      <point x="635" y="714"/>
      <point x="723" y="694"/>
      <point x="774" y="692" type="qcurve"/>
      <point x="774" y="606" type="line"/>
      <point x="723" y="604"/>
      <point x="635" y="583"/>
      <point x="570" y="534"/>
      <point x="532" y="452"/>
      <point x="532" y="389" type="qcurve" smooth="yes"/>
      <point x="532" y="33" type="line" smooth="yes"/>
      <point x="532" y="-35"/>
      <point x="494" y="-144"/>
      <point x="420" y="-220"/>
      <point x="310" y="-262"/>
      <point x="238" y="-262" type="qcurve" smooth="yes"/>
      <point x="102" y="-262" type="line"/>
    </contour>
  </outline>
</glyph>
<glyph name="cent" format="2">
  <advance width="1145"/>
  <unicode hex="00A2"/>
  <outline>
    <contour>
      <point x="584" y="180" type="line"/>
      <point x="491" y="190"/>
      <point x="336" y="261"/>
      <point x="224" y="394"/>
      <point x="162" y="597"/>
      <point x="162" y="739" type="qcurve" smooth="yes"/>
      <point x="162" y="891"/>
      <point x="228" y="1103"/>
      <point x="342" y="1238"/>
      <point x="496" y="1305"/>
      <point x="584" y="1313" type="qcurve"/>
      <point x="584" y="1462" type="line"/>
      <point x="686" y="1462" type="line"/>
      <point x="686" y="1313" type="line"/>
      <point x="745" y="1308"/>
      <point x="863" y="1279"/>
      <point x="957" y="1228"/>
      <point x="1016" y="1154"/>
      <point x="1016" y="1106" type="qcurve" smooth="yes"/>
      <point x="1016" y="1035"/>
      <point x="925" y="977"/>
      <point x="834" y="977" type="qcurve"/>
      <point x="834" y="1019"/>
      <point x="816" y="1096"/>
      <point x="780" y="1157"/>
      <point x="724" y="1199"/>
      <point x="686" y="1206" type="qcurve"/>
      <point x="686" y="297" type="line"/>
      <point x="728" y="297"/>
      <point x="813" y="309"/>
      <point x="891" y="328"/>
      <point x="959" y="351"/>
      <point x="983" y="362" type="qcurve"/>
      <point x="983" y="250" type="line"/>
      <point x="930" y="222"/>
      <point x="777" y="178"/>
      <point x="686" y="176" type="qcurve"/>
      <point x="686" y="0" type="line"/>
      <point x="584" y="0" type="line"/>
    </contour>
    <contour>
      <point x="360" y="741" type="qcurve" smooth="yes"/>
      <point x="360" y="558"/>
      <point x="469" y="340"/>
      <point x="584" y="309" type="qcurve"/>
      <point x="584" y="1206" type="line"/>
      <point x="535" y="1197"/>
      <point x="453" y="1140"/>
      <point x="393" y="1031"/>
      <point x="360" y="862"/>
    </contour>
  </outline>
</glyph>
<glyph name="currency" format="2">
  <advance width="1145"/>
  <unicode hex="00A4"/>
  <outline>
    <contour>
      <point x="197" y="733" type="qcurve" smooth="yes"/>
      <point x="197" y="795"/>
      <point x="232" y="906"/>
      <point x="266" y="952" type="qcurve"/>
      <point x="131" y="1087" type="line"/>
      <point x="217" y="1174" type="line"/>
      <point x="350" y="1038" type="line"/>
      <point x="397" y="1072"/>
      <point x="508" y="1110"/>
      <point x="571" y="1110" type="qcurve" smooth="yes"/>
      <point x="631" y="1110"/>
      <point x="742" y="1072"/>
      <point x="788" y="1038" type="qcurve"/>
      <point x="926" y="1176" type="line"/>
      <point x="1012" y="1087" type="line"/>
      <point x="877" y="952" type="line"/>
      <point x="911" y="906"/>
      <point x="948" y="795"/>
      <point x="948" y="733" type="qcurve" smooth="yes"/>
      <point x="948" y="671"/>
      <point x="911" y="560"/>
      <point x="877" y="514" type="qcurve"/>
      <point x="1012" y="379" type="line"/>
      <point x="928" y="293" type="line"/>
      <point x="791" y="428" type="line"/>
      <point x="744" y="396"/>
      <point x="633" y="358"/>
      <point x="571" y="358" type="qcurve" smooth="yes"/>
      <point x="509" y="358"/>
      <point x="399" y="394"/>
      <point x="352" y="428" type="qcurve"/>
      <point x="217" y="293" type="line"/>
      <point x="131" y="379" type="line"/>
      <point x="264" y="514" type="line"/>
      <point x="232" y="560"/>
      <point x="197" y="671"/>
    </contour>
    <contour>
      <point x="311" y="733" type="qcurve" smooth="yes"/>
      <point x="311" y="679"/>
      <point x="352" y="584"/>
      <point x="423" y="513"/>
      <point x="517" y="471"/>
      <point x="571" y="471" type="qcurve" smooth="yes"/>
      <point x="627" y="471"/>
      <point x="723" y="513"/>
      <point x="793" y="584"/>
      <point x="834" y="679"/>
      <point x="834" y="733" type="qcurve" smooth="yes"/>
      <point x="834" y="789"/>
      <point x="793" y="885"/>
      <point x="723" y="956"/>
      <point x="627" y="997"/>
      <point x="571" y="997" type="qcurve" smooth="yes"/>
      <point x="517" y="997"/>
      <point x="423" y="956"/>
      <point x="352" y="885"/>
      <point x="311" y="789"/>
    </contour>
  </outline>
</glyph>
<glyph name="yen" format="2">
  <advance width="1145"/>
  <unicode hex="00A5"/>
  <outline>
    <contour>
      <point x="264" y="0" type="line"/>
      <point x="264" y="86" type="line"/>
      <point x="311" y="86" type="line" smooth="yes"/>
      <point x="345" y="86"/>
      <point x="405" y="95"/>
      <point x="450" y="123"/>
      <point x="477" y="178"/>
      <point x="479" y="223" type="qcurve" smooth="yes"/>
      <point x="479" y="362" type="line"/>
      <point x="193" y="362" type="line"/>
      <point x="193" y="459" type="line"/>
      <point x="479" y="459" type="line"/>
      <point x="479" y="602" type="line"/>
      <point x="193" y="602" type="line"/>
      <point x="193" y="698" type="line"/>
      <point x="440" y="698" type="line"/>
      <point x="162" y="1268" type="line" smooth="yes"/>
      <point x="147" y="1298"/>
      <point x="121" y="1339"/>
      <point x="88" y="1365"/>
      <point x="46" y="1376"/>
      <point x="16" y="1376" type="qcurve" smooth="yes"/>
      <point x="10" y="1376" type="line"/>
      <point x="10" y="1462" type="line"/>
      <point x="508" y="1462" type="line"/>
      <point x="508" y="1376" type="line"/>
      <point x="494" y="1376" type="line" smooth="yes"/>
      <point x="432" y="1376"/>
      <point x="377" y="1338"/>
      <point x="377" y="1296" type="qcurve" smooth="yes"/>
      <point x="377" y="1272"/>
      <point x="393" y="1211"/>
      <point x="410" y="1176" type="qcurve" smooth="yes"/>
      <point x="508" y="958" type="line" smooth="yes"/>
      <point x="523" y="926"/>
      <point x="551" y="852"/>
      <point x="576" y="780"/>
      <point x="596" y="718"/>
      <point x="602" y="698" type="qcurve"/>
      <point x="606" y="709"/>
      <point x="624" y="752"/>
      <point x="647" y="803"/>
      <point x="672" y="856"/>
      <point x="682" y="877" type="qcurve" smooth="yes"/>
      <point x="799" y="1126" type="line" smooth="yes"/>
      <point x="823" y="1180"/>
      <point x="848" y="1271"/>
      <point x="848" y="1294" type="qcurve" smooth="yes"/>
      <point x="848" y="1336"/>
      <point x="791" y="1376"/>
      <point x="723" y="1376" type="qcurve" smooth="yes"/>
      <point x="717" y="1376" type="line"/>
      <point x="717" y="1462" type="line"/>
      <point x="1135" y="1462" type="line"/>
      <point x="1135" y="1376" type="line"/>
      <point x="1116" y="1376" type="line" smooth="yes"/>
      <point x="1090" y="1376"/>
      <point x="1052" y="1362"/>
      <point x="1019" y="1326"/>
      <point x="984" y="1264"/>
      <point x="961" y="1217" type="qcurve" smooth="yes"/>
      <point x="711" y="698" type="line"/>
      <point x="965" y="698" type="line"/>
      <point x="965" y="602" type="line"/>
      <point x="678" y="602" type="line"/>
      <point x="678" y="459" type="line"/>
      <point x="965" y="459" type="line"/>
      <point x="965" y="362" type="line"/>
      <point x="678" y="362" type="line"/>
      <point x="678" y="233" type="line" smooth="yes"/>
      <point x="678" y="185"/>
      <point x="705" y="127"/>
      <point x="750" y="96"/>
      <point x="811" y="86"/>
      <point x="846" y="86" type="qcurve" smooth="yes"/>
      <point x="893" y="86" type="line"/>
      <point x="893" y="0" type="line"/>
    </contour>
  </outline>
</glyph>
<glyph name="dieresis" format="2">
  <advance width="1182"/>
  <unicode hex="00A8"/>
  <outline>
    <contour>
      <point x="291" y="1409" type="qcurve" smooth="yes"/>
      <point x="291" y="1441"/>
      <point x="307" y="1485"/>
      <point x="335" y="1512"/>
      <point x="373" y="1524"/>
      <point x="395" y="1524" type="qcurve" smooth="yes"/>
      <point x="417" y="1524"/>
      <point x="455" y="1512"/>
      <point x="484" y="1485"/>
      <point x="500" y="1441"/>
      <point x="500" y="1409" type="qcurve" smooth="yes"/>
      <point x="500" y="1378"/>
      <point x="484" y="1334"/>
      <point x="455" y="1306"/>
      <point x="417" y="1294"/>
      <point x="395" y="1294" type="qcurve" smooth="yes"/>
      <point x="350" y="1294"/>
      <point x="291" y="1346"/>
    </contour>
    <contour>
      <point x="680" y="1409" type="qcurve" smooth="yes"/>
      <point x="680" y="1441"/>
      <point x="696" y="1485"/>
      <point x="724" y="1512"/>
      <point x="762" y="1524"/>
      <point x="784" y="1524" type="qcurve" smooth="yes"/>
      <point x="806" y="1524"/>
      <point x="844" y="1512"/>
      <point x="873" y="1485"/>
      <point x="889" y="1441"/>
      <point x="889" y="1409" type="qcurve" smooth="yes"/>
      <point x="889" y="1378"/>
      <point x="873" y="1334"/>
      <point x="844" y="1306"/>
      <point x="806" y="1294"/>
      <point x="784" y="1294" type="qcurve" smooth="yes"/>
      <point x="739" y="1294"/>
      <point x="680" y="1346"/>
    </contour>
  </outline>
</glyph>
<glyph name="logicalnot" format="2">
  <advance width="1145"/>
  <unicode hex="00AC"/>
  <outline>
    <contour>
      <point x="1012" y="793" type="line"/>
      <point x="1012" y="252" type="line"/>
      <point x="889" y="252" type="line"/>
      <point x="889" y="672" type="line"/>
      <point x="133" y="672" type="line"/>
      <point x="133" y="793" type="line"/>
    </contour>
  </outline>
</glyph>
<glyph name="macron" format="2">
  <advance width="940"/>
  <unicode hex="00AF"/>
  <outline>
    <contour>
      <point x="950" y="1556" type="line"/>
      <point x="-10" y="1556" type="line"/>
      <point x="-10" y="1677" type="line"/>
      <point x="950" y="1677" type="line"/>
    </contour>
  </outline>
</glyph>
<glyph name="degree" format="2">
  <advance width="819"/>
  <unicode hex="00B0"/>
  <outline>
    <contour>
      <point x="98" y="1151" type="qcurve" smooth="yes"/>
      <point x="98" y="1216"/>
      <point x="147" y="1329"/>
      <point x="231" y="1413"/>
      <point x="344" y="1462"/>
      <point x="408" y="1462" type="qcurve" smooth="yes"/>
      <point x="473" y="1462"/>
      <point x="586" y="1413"/>
      <point x="670" y="1329"/>
      <point x="719" y="1216"/>
      <point x="719" y="1151" type="qcurve" smooth="yes"/>
      <point x="719" y="1087"/>
      <point x="670" y="974"/>
      <point x="586" y="890"/>
      <point x="473" y="842"/>
      <point x="408" y="842" type="qcurve" smooth="yes"/>
      <point x="344" y="842"/>
      <point x="231" y="890"/>
      <point x="147" y="974"/>
      <point x="98" y="1087"/>
    </contour>
    <contour>
      <point x="221" y="1151" type="qcurve" smooth="yes"/>
      <point x="221" y="1113"/>
      <point x="250" y="1044"/>
      <point x="301" y="993"/>
      <point x="369" y="963"/>
      <point x="408" y="963" type="qcurve" smooth="yes"/>
      <point x="448" y="963"/>
      <point x="516" y="993"/>
      <point x="567" y="1044"/>
      <point x="596" y="1113"/>
      <point x="596" y="1151" type="qcurve" smooth="yes"/>
      <point x="596" y="1191"/>
      <point x="567" y="1260"/>
      <point x="516" y="1311"/>
      <point x="448" y="1341"/>
      <point x="408" y="1341" type="qcurve" smooth="yes"/>
      <point x="369" y="1341"/>
      <point x="301" y="1311"/>
      <point x="250" y="1260"/>
      <point x="221" y="1191"/>
    </contour>
  </outline>
</glyph>
<glyph name="uni00B3" format="2">
  <advance width="819"/>
  <unicode hex="00B3"/>
  <outline>
    <contour>
      <point x="356" y="573" type="qcurve" smooth="yes"/>
      <point x="222" y="573"/>
      <point x="82" y="666"/>
      <point x="82" y="741" type="qcurve" smooth="yes"/>
      <point x="82" y="786"/>
      <point x="133" y="842"/>
      <point x="176" y="842" type="qcurve"/>
      <point x="176" y="810"/>
      <point x="197" y="747"/>
      <point x="240" y="697"/>
      <point x="305" y="666"/>
      <point x="350" y="666" type="qcurve" smooth="yes"/>
      <point x="435" y="666"/>
      <point x="532" y="749"/>
      <point x="532" y="844" type="qcurve" smooth="yes"/>
      <point x="532" y="916"/>
      <point x="428" y="1001"/>
      <point x="315" y="1001" type="qcurve" smooth="yes"/>
      <point x="248" y="1001" type="line"/>
      <point x="248" y="1085" type="line"/>
      <point x="315" y="1085" type="line" smooth="yes"/>
      <point x="354" y="1085"/>
      <point x="420" y="1110"/>
      <point x="470" y="1156"/>
      <point x="498" y="1221"/>
      <point x="498" y="1262" type="qcurve" smooth="yes"/>
      <point x="498" y="1330"/>
      <point x="444" y="1401"/>
      <point x="381" y="1401" type="qcurve" smooth="yes"/>
      <point x="342" y="1401"/>
      <point x="290" y="1372"/>
      <point x="259" y="1323"/>
      <point x="246" y="1258"/>
      <point x="246" y="1223" type="qcurve"/>
      <point x="211" y="1223"/>
      <point x="154" y="1230"/>
      <point x="115" y="1250"/>
      <point x="94" y="1284"/>
      <point x="94" y="1311" type="qcurve" smooth="yes"/>
      <point x="94" y="1348"/>
      <point x="131" y="1411"/>
      <point x="204" y="1457"/>
      <point x="311" y="1483"/>
      <point x="381" y="1483" type="qcurve" smooth="yes"/>
      <point x="449" y="1483"/>
      <point x="561" y="1455"/>
      <point x="641" y="1403"/>
      <point x="684" y="1328"/>
      <point x="684" y="1280" type="qcurve" smooth="yes"/>
      <point x="684" y="1235"/>
      <point x="650" y="1164"/>
      <point x="593" y="1110"/>
      <point x="517" y="1071"/>
      <point x="475" y="1059" type="qcurve"/>
      <point x="475" y="1049" type="line"/>
      <point x="516" y="1042"/>
      <point x="602" y="1017"/>
      <point x="673" y="971"/>
      <point x="719" y="898"/>
      <point x="719" y="842" type="qcurve" smooth="yes"/>
      <point x="719" y="767"/>
      <point x="652" y="664"/>
      <point x="546" y="601"/>
      <point x="418" y="573"/>
    </contour>
  </outline>
</glyph>
<glyph name="acute" format="2">
  <advance width="1182"/>
  <unicode hex="00B4"/>
  <outline>
    <contour>
      <point x="391" y="1268" type="line"/>
      <point x="414" y="1297"/>
      <point x="463" y="1373"/>
      <point x="510" y="1454"/>
      <point x="553" y="1535"/>
      <point x="569" y="1569" type="qcurve"/>
      <point x="788" y="1569" type="line"/>
      <point x="788" y="1548" type="line"/>
      <point x="769" y="1521"/>
      <point x="695" y="1440"/>
      <point x="605" y="1352"/>
      <point x="510" y="1269"/>
      <point x="469" y="1241" type="qcurve"/>
      <point x="391" y="1241" type="line"/>
    </contour>
  </outline>
</glyph>
<glyph name="cedilla" format="2">
  <advance width="682"/>
  <unicode hex="00B8"/>
  <outline>
    <contour>
      <point x="551" y="-258" type="qcurve" smooth="yes"/>
      <point x="551" y="-367"/>
      <point x="412" y="-492"/>
      <point x="281" y="-492" type="qcurve" smooth="yes"/>
      <point x="265" y="-492"/>
      <point x="225" y="-489"/>
      <point x="183" y="-483"/>
      <point x="141" y="-474"/>
      <point x="123" y="-469" type="qcurve"/>
      <point x="123" y="-365" type="line"/>
      <point x="160" y="-373"/>
      <point x="234" y="-381"/>
      <point x="262" y="-381" type="qcurve" smooth="yes"/>
      <point x="321" y="-381"/>
      <point x="387" y="-319"/>
      <point x="387" y="-266" type="qcurve" smooth="yes"/>
      <point x="387" y="-206"/>
      <point x="300" y="-146"/>
      <point x="233" y="-141" type="qcurve"/>
      <point x="276" y="18" type="line"/>
      <point x="373" y="18" type="line"/>
      <point x="352" y="-70" type="line"/>
      <point x="452" y="-78"/>
      <point x="551" y="-177"/>
    </contour>
  </outline>
</glyph>
<glyph name="AE" format="2">
  <advance width="1948"/>
  <unicode hex="00C6"/>
  <outline>
    <contour>
      <point x="1151" y="102" type="line"/>
      <point x="1546" y="102" type="line" smooth="yes"/>
      <point x="1594" y="102"/>
      <point x="1663" y="129"/>
      <point x="1709" y="175"/>
      <point x="1735" y="236"/>
      <point x="1741" y="270" type="qcurve" smooth="yes"/>
      <point x="1755" y="358" type="line"/>
      <point x="1862" y="358" type="line"/>
      <point x="1847" y="0" type="line"/>
      <point x="750" y="0" type="line"/>
      <point x="750" y="86" type="line"/>
      <point x="776" y="86" type="line" smooth="yes"/>
      <point x="810" y="86"/>
      <point x="870" y="95"/>
      <point x="915" y="123"/>
      <point x="943" y="178"/>
      <point x="944" y="223" type="qcurve" smooth="yes"/>
      <point x="944" y="489" type="line"/>
      <point x="473" y="489" type="line"/>
      <point x="360" y="274" type="line" smooth="yes"/>
      <point x="343" y="242"/>
      <point x="328" y="184"/>
      <point x="328" y="166" type="qcurve" smooth="yes"/>
      <point x="328" y="124"/>
      <point x="391" y="86"/>
      <point x="451" y="86" type="qcurve" smooth="yes"/>
      <point x="498" y="86" type="line"/>
      <point x="498" y="0" type="line"/>
      <point x="0" y="0" type="line"/>
      <point x="0" y="86" type="line"/>
      <point x="33" y="86" type="line" smooth="yes"/>
      <point x="87" y="86"/>
      <point x="172" y="162"/>
      <point x="215" y="246" type="qcurve" smooth="yes"/>
      <point x="807" y="1366" type="line"/>
      <point x="647" y="1376" type="line"/>
      <point x="647" y="1462" type="line"/>
      <point x="1782" y="1462" type="line"/>
      <point x="1792" y="1104" type="line"/>
      <point x="1686" y="1104" type="line"/>
      <point x="1675" y="1192" type="line" smooth="yes"/>
      <point x="1671" y="1226"/>
      <point x="1649" y="1286"/>
      <point x="1606" y="1331"/>
      <point x="1541" y="1359"/>
      <point x="1495" y="1360" type="qcurve" smooth="yes"/>
      <point x="1151" y="1360" type="line"/>
      <point x="1151" y="815" type="line"/>
      <point x="1645" y="815" type="line"/>
      <point x="1645" y="715" type="line"/>
      <point x="1151" y="715" type="line"/>
    </contour>
    <contour>
      <point x="526" y="592" type="qcurve"/>
      <point x="944" y="592" type="line"/>
      <point x="944" y="1360" type="line"/>
      <point x="915" y="1360" type="line"/>
      <point x="890" y="1304"/>
      <point x="808" y="1138"/>
      <point x="705" y="937"/>
      <point x="587" y="709"/>
    </contour>
  </outline>
</glyph>
<glyph name="eth" format="2">
  <advance width="1182"/>
  <unicode hex="00F0"/>
  <outline>
    <contour>
      <point x="307" y="1559" type="line"/>
      <point x="401" y="1536"/>
      <point x="581" y="1461"/>
      <point x="662" y="1407" type="qcurve"/>
      <point x="926" y="1561" type="line"/>
      <point x="926" y="1444" type="line"/>
      <point x="745" y="1341" type="line"/>
      <point x="817" y="1281"/>
      <point x="937" y="1126"/>
      <point x="1022" y="938"/>
      <point x="1069" y="719"/>
      <point x="1069" y="596" type="qcurve" smooth="yes"/>
      <point x="1069" y="284"/>
      <point x="824" y="-20"/>
      <point x="588" y="-20" type="qcurve" smooth="yes"/>
      <point x="477" y="-20"/>
      <point x="301" y="45"/>
      <point x="178" y="177"/>
      <point x="113" y="376"/>
      <point x="113" y="510" type="qcurve" smooth="yes"/>
      <point x="113" y="776"/>
      <point x="356" y="1036"/>
      <point x="594" y="1036" type="qcurve" smooth="yes"/>
      <point x="662" y="1036"/>
      <point x="778" y="1008"/>
      <point x="829" y="983" type="qcurve"/>
      <point x="808" y="1051"/>
      <point x="701" y="1202"/>
      <point x="623" y="1270" type="qcurve"/>
      <point x="367" y="1124" type="line"/>
      <point x="367" y="1239" type="line"/>
      <point x="539" y="1337" type="line"/>
      <point x="488" y="1371"/>
      <point x="372" y="1428"/>
      <point x="307" y="1448" type="qcurve"/>
    </contour>
    <contour>
      <point x="311" y="510" type="qcurve" smooth="yes"/>
      <point x="311" y="405"/>
      <point x="341" y="247"/>
      <point x="408" y="140"/>
      <point x="515" y="86"/>
      <point x="592" y="86" type="qcurve" smooth="yes"/>
      <point x="669" y="86"/>
      <point x="775" y="140"/>
      <point x="841" y="247"/>
      <point x="870" y="405"/>
      <point x="870" y="510" type="qcurve" smooth="yes"/>
      <point x="870" y="614"/>
      <point x="840" y="771"/>
      <point x="774" y="876"/>
      <point x="667" y="928"/>
      <point x="590" y="928" type="qcurve" smooth="yes"/>
      <point x="513" y="928"/>
      <point x="407" y="876"/>
      <point x="341" y="771"/>
      <point x="311" y="614"/>
    </contour>
  </outline>
</glyph>
<glyph name="divide" format="2">
  <advance width="1145"/>
  <unicode hex="00F7"/>
  <outline>
    <contour>
      <point x="1012" y="672" type="line"/>
      <point x="133" y="672" type="line"/>
      <point x="133" y="793" type="line"/>
      <point x="1012" y="793" type="line"/>
    </contour>
    <contour>
      <point x="469" y="1120" type="qcurve" smooth="yes"/>
      <point x="469" y="1152"/>
      <point x="485" y="1196"/>
      <point x="513" y="1222"/>
      <point x="551" y="1233"/>
      <point x="573" y="1233" type="qcurve" smooth="yes"/>
      <point x="595" y="1233"/>
      <point x="633" y="1222"/>
      <point x="662" y="1196"/>
      <point x="678" y="1152"/>
      <point x="678" y="1120" type="qcurve" smooth="yes"/>
      <point x="678" y="1089"/>
      <point x="662" y="1046"/>
      <point x="633" y="1019"/>
      <point x="595" y="1008"/>
      <point x="573" y="1008" type="qcurve" smooth="yes"/>
      <point x="551" y="1008"/>
      <point x="513" y="1019"/>
      <point x="485" y="1046"/>
      <point x="469" y="1089"/>
    </contour>
    <contour>
      <point x="469" y="344" type="qcurve" smooth="yes"/>
      <point x="469" y="376"/>
      <point x="485" y="420"/>
      <point x="513" y="446"/>
      <point x="551" y="457"/>
      <point x="573" y="457" type="qcurve" smooth="yes"/>
      <point x="595" y="457"/>
      <point x="633" y="446"/>
      <point x="662" y="420"/>
      <point x="678" y="376"/>
      <point x="678" y="344" type="qcurve" smooth="yes"/>
      <point x="678" y="313"/>
      <point x="662" y="269"/>
      <point x="633" y="243"/>
      <point x="595" y="231"/>
      <point x="573" y="231" type="qcurve" smooth="yes"/>
      <point x="528" y="231"/>
      <point x="469" y="281"/>
    </contour>
  </outline>
</glyph>
<glyph name="lslash" format="2">
  <advance width="664"/>
  <unicode hex="0142"/>
  <outline>
    <contour>
      <point x="252" y="684" type="line"/>
      <point x="252" y="1331" type="line" smooth="yes"/>
      <point x="252" y="1376"/>
      <point x="225" y="1431"/>
      <point x="179" y="1461"/>
      <point x="118" y="1470"/>
      <point x="84" y="1470" type="qcurve" smooth="yes"/>
      <point x="57" y="1470" type="line"/>
      <point x="57" y="1556" type="line"/>
      <point x="444" y="1556" type="line"/>
      <point x="444" y="795" type="line"/>
      <point x="637" y="905" type="line"/>
      <point x="637" y="786" type="line"/>
      <point x="444" y="678" type="line"/>
      <point x="444" y="233" type="line" smooth="yes"/>
      <point x="444" y="185"/>
      <point x="471" y="127"/>
      <point x="516" y="96"/>
      <point x="578" y="86"/>
      <point x="612" y="86" type="qcurve" smooth="yes"/>
      <point x="639" y="86" type="line"/>
      <point x="639" y="0" type="line"/>
      <point x="57" y="0" type="line"/>
      <point x="57" y="86" type="line"/>
      <point x="84" y="86" type="line" smooth="yes"/>
      <point x="119" y="86"/>
      <point x="180" y="96"/>
      <point x="225" y="127"/>
      <point x="252" y="185"/>
      <point x="252" y="233" type="qcurve" smooth="yes"/>
      <point x="252" y="567" type="line"/>
      <point x="78" y="469" type="line"/>
      <point x="78" y="584" type="line"/>
    </contour>
  </outline>
</glyph>
<glyph name="Eng" format="2">
  <advance width="1563"/>
  <unicode hex="014A"/>
  <outline>
    <contour>
      <point x="1311" y="-16" type="line" smooth="yes"/>
      <point x="1311" y="-154"/>
      <point x="1272" y="-337"/>
      <point x="1194" y="-446"/>
      <point x="1077" y="-492"/>
      <point x="999" y="-492" type="qcurve" smooth="yes"/>
      <point x="952" y="-492" type="line"/>
      <point x="952" y="-395" type="line"/>
      <point x="981" y="-395" type="line" smooth="yes"/>
      <point x="1030" y="-395"/>
      <point x="1106" y="-358"/>
      <point x="1159" y="-271"/>
      <point x="1186" y="-126"/>
      <point x="1186" y="-18" type="qcurve" smooth="yes"/>
      <point x="1186" y="0" type="line"/>
      <point x="397" y="1180" type="line"/>
      <point x="397" y="233" type="line" smooth="yes"/>
      <point x="397" y="185"/>
      <point x="424" y="127"/>
      <point x="469" y="96"/>
      <point x="530" y="86"/>
      <point x="565" y="86" type="qcurve" smooth="yes"/>
      <point x="592" y="86" type="line"/>
      <point x="592" y="0" type="line"/>
      <point x="78" y="0" type="line"/>
      <point x="78" y="86" type="line"/>
      <point x="104" y="86" type="line" smooth="yes"/>
      <point x="139" y="86"/>
      <point x="200" y="96"/>
      <point x="246" y="127"/>
      <point x="272" y="185"/>
      <point x="272" y="233" type="qcurve" smooth="yes"/>
      <point x="272" y="1237" type="line" smooth="yes"/>
      <point x="272" y="1282"/>
      <point x="245" y="1337"/>
      <point x="199" y="1367"/>
      <point x="138" y="1376"/>
      <point x="104" y="1376" type="qcurve" smooth="yes"/>
      <point x="78" y="1376" type="line"/>
      <point x="78" y="1462" type="line"/>
      <point x="453" y="1462" type="line"/>
      <point x="1186" y="358" type="line"/>
      <point x="1186" y="1237" type="line" smooth="yes"/>
      <point x="1186" y="1282"/>
      <point x="1159" y="1337"/>
      <point x="1113" y="1367"/>
      <point x="1052" y="1376"/>
      <point x="1018" y="1376" type="qcurve" smooth="yes"/>
      <point x="991" y="1376" type="line"/>
      <point x="991" y="1462" type="line"/>
      <point x="1505" y="1462" type="line"/>
      <point x="1505" y="1376" type="line"/>
      <point x="1479" y="1376" type="line" smooth="yes"/>
      <point x="1444" y="1376"/>
      <point x="1383" y="1366"/>
      <point x="1337" y="1335"/>
      <point x="1311" y="1277"/>
      <point x="1311" y="1229" type="qcurve" smooth="yes"/>
    </contour>
  </outline>
</glyph>
<glyph name="eng" format="2">
  <advance width="1300"/>
  <unicode hex="014B"/>
  <outline>
    <contour>
      <point x="608" y="86" type="line"/>
      <point x="608" y="0" type="line"/>
      <point x="57" y="0" type="line"/>
      <point x="57" y="86" type="line"/>
      <point x="74" y="86" type="line" smooth="yes"/>
      <point x="109" y="86"/>
      <point x="170" y="96"/>
      <point x="215" y="127"/>
      <point x="242" y="185"/>
      <point x="242" y="233" type="qcurve" smooth="yes"/>
      <point x="242" y="872" type="line" smooth="yes"/>
      <point x="242" y="917"/>
      <point x="215" y="972"/>
      <point x="169" y="1002"/>
      <point x="108" y="1012"/>
      <point x="74" y="1012" type="qcurve" smooth="yes"/>
      <point x="68" y="1012" type="line"/>
      <point x="68" y="1098" type="line"/>
      <point x="399" y="1098" type="line"/>
      <point x="426" y="932" type="line"/>
      <point x="436" y="932" type="line"/>
      <point x="468" y="989"/>
      <point x="539" y="1062"/>
      <point x="618" y="1103"/>
      <point x="707" y="1118"/>
      <point x="756" y="1118" type="qcurve" smooth="yes"/>
      <point x="837" y="1118"/>
      <point x="964" y="1071"/>
      <point x="1053" y="974"/>
      <point x="1100" y="822"/>
      <point x="1100" y="717" type="qcurve" smooth="yes"/>
      <point x="1100" y="-16" type="line" smooth="yes"/>
      <point x="1100" y="-154"/>
      <point x="1044" y="-337"/>
      <point x="943" y="-446"/>
      <point x="804" y="-492"/>
      <point x="721" y="-492" type="qcurve" smooth="yes"/>
      <point x="690" y="-492" type="line"/>
      <point x="690" y="-395" type="line"/>
      <point x="702" y="-395" type="line" smooth="yes"/>
      <point x="752" y="-395"/>
      <point x="828" y="-358"/>
      <point x="880" y="-271"/>
      <point x="907" y="-126"/>
      <point x="907" y="-18" type="qcurve" smooth="yes"/>
      <point x="907" y="707" type="line" smooth="yes"/>
      <point x="907" y="774"/>
      <point x="883" y="878"/>
      <point x="830" y="950"/>
      <point x="744" y="987"/>
      <point x="682" y="987" type="qcurve" smooth="yes"/>
      <point x="612" y="987"/>
      <point x="517" y="933"/>
      <point x="459" y="841"/>
      <point x="434" y="721"/>
      <point x="434" y="655" type="qcurve" smooth="yes"/>
      <point x="434" y="223" type="line" smooth="yes"/>
      <point x="434" y="178"/>
      <point x="461" y="123"/>
      <point x="507" y="95"/>
      <point x="568" y="86"/>
      <point x="602" y="86" type="qcurve" smooth="yes"/>
    </contour>
  </outline>
</glyph>
<glyph name="uni0186" format="2">
  <advance width="1255"/>
  <unicode hex="0186"/>
  <outline>
    <contour>
      <point x="92" y="231" type="qcurve" smooth="yes"/>
      <point x="92" y="307"/>
      <point x="184" y="383"/>
      <point x="264" y="383" type="qcurve"/>
      <point x="264" y="254"/>
      <point x="408" y="88"/>
      <point x="535" y="88" type="qcurve" smooth="yes"/>
      <point x="711" y="88"/>
      <point x="911" y="427"/>
      <point x="911" y="737" type="qcurve" smooth="yes"/>
      <point x="911" y="1057"/>
      <point x="742" y="1374"/>
      <point x="557" y="1374" type="qcurve" smooth="yes"/>
      <point x="434" y="1374"/>
      <point x="281" y="1212"/>
      <point x="281" y="1094" type="qcurve"/>
      <point x="205" y="1094"/>
      <point x="113" y="1160"/>
      <point x="113" y="1223" type="qcurve" smooth="yes"/>
      <point x="113" y="1336"/>
      <point x="353" y="1483"/>
      <point x="561" y="1483" type="qcurve" smooth="yes"/>
      <point x="840" y="1483"/>
      <point x="1139" y="1096"/>
      <point x="1139" y="743" type="qcurve" smooth="yes"/>
      <point x="1139" y="390"/>
      <point x="816" y="-20"/>
      <point x="530" y="-20" type="qcurve" smooth="yes"/>
      <point x="321" y="-20"/>
      <point x="92" y="118"/>
    </contour>
  </outline>
</glyph>
<glyph name="uni0191" format="2">
  <advance width="1208"/>
  <unicode hex="0191"/>
  <outline>
    <contour>
      <point x="479" y="-16" type="line" smooth="yes"/>
      <point x="479" y="-255"/>
      <point x="247" y="-492"/>
      <point x="12" y="-492" type="qcurve" smooth="yes"/>
      <point x="-23" y="-492" type="line"/>
      <point x="-23" y="-395" type="line"/>
      <point x="-4" y="-395" type="line" smooth="yes"/>
      <point x="145" y="-395"/>
      <point x="272" y="-211"/>
      <point x="272" y="-18" type="qcurve" smooth="yes"/>
      <point x="272" y="1237" type="line" smooth="yes"/>
      <point x="272" y="1305"/>
      <point x="201" y="1376"/>
      <point x="104" y="1376" type="qcurve" smooth="yes"/>
      <point x="78" y="1376" type="line"/>
      <point x="78" y="1462" type="line"/>
      <point x="1110" y="1462" type="line"/>
      <point x="1120" y="1104" type="line"/>
      <point x="1014" y="1104" type="line"/>
      <point x="1004" y="1192" type="line" smooth="yes"/>
      <point x="994" y="1276"/>
      <point x="896" y="1360"/>
      <point x="815" y="1360" type="qcurve" smooth="yes"/>
      <point x="479" y="1360" type="line"/>
      <point x="479" y="768" type="line"/>
      <point x="973" y="768" type="line"/>
      <point x="973" y="668" type="line"/>
      <point x="479" y="668" type="line"/>
    </contour>
  </outline>
</glyph>
<glyph name="uni0198" format="2">
  <advance width="1434"/>
  <unicode hex="0198"/>
  <outline>
    <contour>
      <point x="780" y="879" type="line"/>
      <point x="1229" y="250" type="line" smooth="yes"/>
      <point x="1288" y="169"/>
      <point x="1397" y="86"/>
      <point x="1454" y="86" type="qcurve" smooth="yes"/>
      <point x="1458" y="86" type="line"/>
      <point x="1458" y="0" type="line"/>
      <point x="1436" y="0" type="line" smooth="yes"/>
      <point x="1297" y="0"/>
      <point x="1160" y="28"/>
      <point x="1068" y="94"/>
      <point x="1006" y="184" type="qcurve" smooth="yes"/>
      <point x="637" y="717" type="line"/>
      <point x="479" y="580" type="line"/>
      <point x="479" y="233" type="line" smooth="yes"/>
      <point x="479" y="160"/>
      <point x="550" y="86"/>
      <point x="647" y="86" type="qcurve" smooth="yes"/>
      <point x="674" y="86" type="line"/>
      <point x="674" y="0" type="line"/>
      <point x="78" y="0" type="line"/>
      <point x="78" y="86" type="line"/>
      <point x="104" y="86" type="line" smooth="yes"/>
      <point x="201" y="86"/>
      <point x="272" y="154"/>
      <point x="272" y="223" type="qcurve" smooth="yes"/>
      <point x="272" y="1237" type="line" smooth="yes"/>
      <point x="272" y="1305"/>
      <point x="201" y="1376"/>
      <point x="104" y="1376" type="qcurve" smooth="yes"/>
      <point x="78" y="1376" type="line"/>
      <point x="78" y="1462" type="line"/>
      <point x="674" y="1462" type="line"/>
      <point x="674" y="1376" type="line"/>
      <point x="647" y="1376" type="line" smooth="yes"/>
      <point x="550" y="1376"/>
      <point x="479" y="1302"/>
      <point x="479" y="1229" type="qcurve" smooth="yes"/>
      <point x="479" y="682" type="line"/>
      <point x="913" y="1206" type="line" smooth="yes"/>
      <point x="1026" y="1344"/>
      <point x="1182" y="1477"/>
      <point x="1280" y="1477" type="qcurve" smooth="yes"/>
      <point x="1343" y="1477"/>
      <point x="1417" y="1398"/>
      <point x="1417" y="1335" type="qcurve" smooth="yes"/>
      <point x="1417" y="1279"/>
      <point x="1359" y="1204"/>
      <point x="1323" y="1204" type="qcurve"/>
      <point x="1314" y="1249"/>
      <point x="1266" y="1311"/>
      <point x="1219" y="1311" type="qcurve" smooth="yes"/>
      <point x="1183" y="1311"/>
      <point x="1123" y="1267"/>
      <point x="1087" y="1227" type="qcurve" smooth="yes"/>
    </contour>
  </outline>
</glyph>
<glyph name="uni019E" format="2">
  <advance width="1321"/>
  <unicode hex="019E"/>
  <outline>
    <contour>
      <point x="907" y="707" type="line" smooth="yes"/>
      <point x="907" y="851"/>
      <point x="799" y="987"/>
      <point x="682" y="987" type="qcurve" smooth="yes"/>
      <point x="561" y="987"/>
      <point x="434" y="814"/>
      <point x="434" y="655" type="qcurve" smooth="yes"/>
      <point x="434" y="223" type="line" smooth="yes"/>
      <point x="434" y="155"/>
      <point x="504" y="86"/>
      <point x="600" y="86" type="qcurve" smooth="yes"/>
      <point x="608" y="86" type="line"/>
      <point x="608" y="0" type="line"/>
      <point x="57" y="0" type="line"/>
      <point x="57" y="86" type="line"/>
      <point x="74" y="86" type="line" smooth="yes"/>
      <point x="171" y="86"/>
      <point x="242" y="160"/>
      <point x="242" y="233" type="qcurve" smooth="yes"/>
      <point x="242" y="872" type="line" smooth="yes"/>
      <point x="242" y="941"/>
      <point x="169" y="1012"/>
      <point x="76" y="1012" type="qcurve" smooth="yes"/>
      <point x="68" y="1012" type="line"/>
      <point x="68" y="1098" type="line"/>
      <point x="399" y="1098" type="line"/>
      <point x="426" y="932" type="line"/>
      <point x="436" y="932" type="line"/>
      <point x="486" y="1025"/>
      <point x="631" y="1118"/>
      <point x="756" y="1118" type="qcurve" smooth="yes"/>
      <point x="925" y="1118"/>
      <point x="1100" y="918"/>
      <point x="1100" y="717" type="qcurve" smooth="yes"/>
      <point x="1100" y="-258" type="line" smooth="yes"/>
      <point x="1100" y="-332"/>
      <point x="1162" y="-406"/>
      <point x="1255" y="-406" type="qcurve" smooth="yes"/>
      <point x="1264" y="-406" type="line"/>
      <point x="1264" y="-492" type="line"/>
      <point x="743" y="-492" type="line"/>
      <point x="743" y="-406" type="line"/>
      <point x="752" y="-406" type="line" smooth="yes"/>
      <point x="845" y="-406"/>
      <point x="907" y="-332"/>
      <point x="907" y="-258" type="qcurve" smooth="yes"/>
    </contour>
  </outline>
</glyph>
<glyph name="Ohorn" format="2">
  <advance width="1593"/>
  <unicode hex="01A0"/>
  <outline>
    <contour>
      <point x="1290" y="1204" type="qcurve"/>
      <point x="1419" y="1239"/>
      <point x="1419" y="1333" type="qcurve" smooth="yes"/>
      <point x="1419" y="1360"/>
      <point x="1331" y="1426"/>
      <point x="1331" y="1475" type="qcurve" smooth="yes"/>
      <point x="1331" y="1577"/>
      <point x="1448" y="1577" type="qcurve" smooth="yes"/>
      <point x="1573" y="1577"/>
      <point x="1573" y="1448" type="qcurve" smooth="yes"/>
      <point x="1573" y="1227"/>
      <point x="1325" y="1137" type="qcurve"/>
      <point x="1403" y="962"/>
      <point x="1403" y="733" type="qcurve" smooth="yes"/>
      <point x="1403" y="383"/>
      <point x="1060" y="-20"/>
      <point x="760" y="-20" type="qcurve" smooth="yes"/>
      <point x="449" y="-20"/>
      <point x="115" y="379"/>
      <point x="115" y="735" type="qcurve" smooth="yes"/>
      <point x="115" y="1092"/>
      <point x="450" y="1485"/>
      <point x="762" y="1485" type="qcurve" smooth="yes"/>
      <point x="1118" y="1485"/>
    </contour>
    <contour>
      <point x="760" y="90" type="qcurve" smooth="yes"/>
      <point x="1176" y="90"/>
      <point x="1176" y="733" type="qcurve" smooth="yes"/>
      <point x="1176" y="1374"/>
      <point x="762" y="1374" type="qcurve" smooth="yes"/>
      <point x="342" y="1374"/>
      <point x="342" y="733" type="qcurve" smooth="yes"/>
      <point x="342" y="90"/>
    </contour>
  </outline>
</glyph>
<glyph name="uni01A5" format="2">
  <advance width="1257"/>
  <unicode hex="01A5"/>
  <outline>
    <contour>
      <point x="414" y="1098" type="line" smooth="yes"/>
      <point x="414" y="1051"/>
      <point x="409" y="960"/>
      <point x="406" y="913" type="qcurve"/>
      <point x="414" y="913" type="line"/>
      <point x="468" y="1022"/>
      <point x="621" y="1118"/>
      <point x="727" y="1118" type="qcurve" smooth="yes"/>
      <point x="937" y="1118"/>
      <point x="1145" y="834"/>
      <point x="1145" y="551" type="qcurve" smooth="yes"/>
      <point x="1145" y="266"/>
      <point x="938" y="-20"/>
      <point x="727" y="-20" type="qcurve" smooth="yes"/>
      <point x="619" y="-20"/>
      <point x="463" y="71"/>
      <point x="414" y="160" type="qcurve"/>
      <point x="406" y="160" type="line"/>
      <point x="406" y="145"/>
      <point x="414" y="-46"/>
      <point x="414" y="-72" type="qcurve" smooth="yes"/>
      <point x="414" y="-268" type="line" smooth="yes"/>
      <point x="414" y="-337"/>
      <point x="485" y="-406"/>
      <point x="582" y="-406" type="qcurve" smooth="yes"/>
      <point x="588" y="-406" type="line"/>
      <point x="588" y="-492" type="line"/>
      <point x="37" y="-492" type="line"/>
      <point x="37" y="-406" type="line"/>
      <point x="53" y="-406" type="line" smooth="yes"/>
      <point x="150" y="-406"/>
      <point x="221" y="-331"/>
      <point x="221" y="-258" type="qcurve" smooth="yes"/>
      <point x="221" y="1157" type="line" smooth="yes"/>
      <point x="221" y="1366"/>
      <point x="390" y="1567"/>
      <point x="563" y="1567" type="qcurve" smooth="yes"/>
      <point x="673" y="1567"/>
      <point x="803" y="1476"/>
      <point x="803" y="1405" type="qcurve" smooth="yes"/>
      <point x="803" y="1354"/>
      <point x="727" y="1288"/>
      <point x="645" y="1288" type="qcurve"/>
      <point x="645" y="1375"/>
      <point x="590" y="1473"/>
      <point x="539" y="1473" type="qcurve" smooth="yes"/>
      <point x="469" y="1473"/>
      <point x="414" y="1379"/>
      <point x="414" y="1243" type="qcurve" smooth="yes"/>
    </contour>
    <contour>
      <point x="414" y="551" type="qcurve" smooth="yes"/>
      <point x="414" y="314"/>
      <point x="546" y="111"/>
      <point x="694" y="111" type="qcurve" smooth="yes"/>
      <point x="822" y="111"/>
      <point x="946" y="324"/>
      <point x="946" y="553" type="qcurve" smooth="yes"/>
      <point x="946" y="771"/>
      <point x="828" y="987"/>
      <point x="692" y="987" type="qcurve" smooth="yes"/>
      <point x="542" y="987"/>
      <point x="414" y="791"/>
    </contour>
  </outline>
</glyph>
<glyph name="uni01A6" format="2">
  <advance width="1343"/>
  <unicode hex="01A6"/>
  <outline>
    <contour>
      <point x="674" y="1376" type="line"/>
      <point x="647" y="1376" type="line" smooth="yes"/>
      <point x="550" y="1376"/>
      <point x="479" y="1308"/>
      <point x="479" y="1239" type="qcurve" smooth="yes"/>
      <point x="479" y="1217" type="line"/>
      <point x="629" y="1217" type="line" smooth="yes"/>
      <point x="894" y="1217"/>
      <point x="1155" y="1019"/>
      <point x="1155" y="821" type="qcurve" smooth="yes"/>
      <point x="1155" y="685"/>
      <point x="998" y="497"/>
      <point x="854" y="449" type="qcurve"/>
      <point x="1135" y="4" type="line" smooth="yes"/>
      <point x="1192" y="-87"/>
      <point x="1290" y="-160"/>
      <point x="1348" y="-160" type="qcurve" smooth="yes"/>
      <point x="1356" y="-160" type="line"/>
      <point x="1356" y="-246" type="line"/>
      <point x="1327" y="-246" type="line" smooth="yes"/>
      <point x="1134" y="-246"/>
      <point x="996" y="-180"/>
      <point x="926" y="-61" type="qcurve" smooth="yes"/>
      <point x="649" y="399" type="line"/>
      <point x="479" y="399" type="line"/>
      <point x="479" y="223" type="line" smooth="yes"/>
      <point x="479" y="154"/>
      <point x="550" y="86"/>
      <point x="647" y="86" type="qcurve" smooth="yes"/>
      <point x="674" y="86" type="line"/>
      <point x="674" y="0" type="line"/>
      <point x="78" y="0" type="line"/>
      <point x="78" y="86" type="line"/>
      <point x="104" y="86" type="line" smooth="yes"/>
      <point x="201" y="86"/>
      <point x="272" y="154"/>
      <point x="272" y="223" type="qcurve" smooth="yes"/>
      <point x="272" y="1237" type="line" smooth="yes"/>
      <point x="272" y="1305"/>
      <point x="201" y="1376"/>
      <point x="104" y="1376" type="qcurve" smooth="yes"/>
      <point x="78" y="1376" type="line"/>
      <point x="78" y="1462" type="line"/>
      <point x="674" y="1462" type="line"/>
    </contour>
    <contour>
      <point x="479" y="496" type="line"/>
      <point x="623" y="496" type="line" smooth="yes"/>
      <point x="789" y="496"/>
      <point x="936" y="640"/>
      <point x="936" y="815" type="qcurve" smooth="yes"/>
      <point x="936" y="981"/>
      <point x="792" y="1118"/>
      <point x="618" y="1118" type="qcurve" smooth="yes"/>
      <point x="479" y="1118" type="line"/>
    </contour>
  </outline>
</glyph>
<glyph name="uni01AA" format="2">
  <advance width="614"/>
  <unicode hex="01AA"/>
  <outline>
    <contour>
      <point x="221" y="-174" type="qcurve" smooth="yes"/>
      <point x="221" y="1092" type="line"/>
      <point x="170" y="1069"/>
      <point x="102" y="1069" type="qcurve" smooth="yes"/>
      <point x="-5" y="1069"/>
      <point x="-131" y="1204"/>
      <point x="-131" y="1317" type="qcurve" smooth="yes"/>
      <point x="-131" y="1430"/>
      <point x="18" y="1567"/>
      <point x="141" y="1567" type="qcurve" smooth="yes"/>
      <point x="270" y="1567"/>
      <point x="414" y="1415"/>
      <point x="414" y="1282" type="qcurve" smooth="yes"/>
      <point x="414" y="-180" type="line" smooth="yes"/>
      <point x="414" y="-285"/>
      <point x="498" y="-383"/>
      <point x="569" y="-383" type="qcurve" smooth="yes"/>
      <point x="606" y="-383"/>
      <point x="668" y="-375"/>
      <point x="700" y="-369" type="qcurve"/>
      <point x="700" y="-459" type="line"/>
      <point x="670" y="-473"/>
      <point x="561" y="-492"/>
      <point x="518" y="-492" type="qcurve" smooth="yes"/>
      <point x="354" y="-492"/>
      <point x="221" y="-342"/>
    </contour>
    <contour>
      <point x="100" y="1450" type="qcurve" smooth="yes"/>
      <point x="42" y="1450"/>
      <point x="-20" y="1374"/>
      <point x="-20" y="1317" type="qcurve" smooth="yes"/>
      <point x="-20" y="1255"/>
      <point x="45" y="1186"/>
      <point x="100" y="1186" type="qcurve" smooth="yes"/>
      <point x="165" y="1186"/>
      <point x="221" y="1253"/>
      <point x="221" y="1317" type="qcurve" smooth="yes"/>
      <point x="221" y="1381"/>
      <point x="154" y="1450"/>
    </contour>
  </outline>
</glyph>
<glyph name="uni01AC" format="2">
  <advance width="1286"/>
  <unicode hex="01AC"/>
  <outline>
    <contour>
      <point x="1235" y="1462" type="line"/>
      <point x="1245" y="1104" type="line"/>
      <point x="1139" y="1104" type="line"/>
      <point x="1128" y="1192" type="line" smooth="yes"/>
      <point x="1117" y="1283"/>
      <point x="1032" y="1360"/>
      <point x="958" y="1360" type="qcurve" smooth="yes"/>
      <point x="760" y="1360" type="line"/>
      <point x="760" y="233" type="line" smooth="yes"/>
      <point x="760" y="160"/>
      <point x="831" y="86"/>
      <point x="928" y="86" type="qcurve" smooth="yes"/>
      <point x="975" y="86" type="line"/>
      <point x="975" y="0" type="line"/>
      <point x="338" y="0" type="line"/>
      <point x="338" y="86" type="line"/>
      <point x="385" y="86" type="line" smooth="yes"/>
      <point x="482" y="86"/>
      <point x="553" y="154"/>
      <point x="553" y="223" type="qcurve" smooth="yes"/>
      <point x="553" y="1360" type="line"/>
      <point x="324" y="1360" type="line" smooth="yes"/>
      <point x="257" y="1360"/>
      <point x="186" y="1285"/>
      <point x="186" y="1223" type="qcurve" smooth="yes"/>
      <point x="186" y="1189"/>
      <point x="202" y="1141"/>
      <point x="219" y="1116" type="qcurve"/>
      <point x="205" y="1102"/>
      <point x="168" y="1085"/>
      <point x="143" y="1085" type="qcurve" smooth="yes"/>
      <point x="91" y="1085"/>
      <point x="20" y="1167"/>
      <point x="20" y="1221" type="qcurve" smooth="yes"/>
      <point x="20" y="1342"/>
      <point x="178" y="1462"/>
      <point x="342" y="1462" type="qcurve" smooth="yes"/>
    </contour>
  </outline>
</glyph>
<glyph name="uni01AE" format="2">
  <advance width="1255"/>
  <unicode hex="01AE"/>
  <outline>
    <contour>
      <point x="729" y="-182" type="line" smooth="yes"/>
      <point x="729" y="-285"/>
      <point x="809" y="-377"/>
      <point x="893" y="-377" type="qcurve" smooth="yes"/>
      <point x="918" y="-377"/>
      <point x="959" y="-371"/>
      <point x="981" y="-365" type="qcurve"/>
      <point x="981" y="-461" type="line"/>
      <point x="959" y="-472"/>
      <point x="871" y="-492"/>
      <point x="836" y="-492" type="qcurve" smooth="yes"/>
      <point x="670" y="-492"/>
      <point x="522" y="-347"/>
      <point x="522" y="-178" type="qcurve" smooth="yes"/>
      <point x="522" y="1360" type="line"/>
      <point x="326" y="1360" type="line" smooth="yes"/>
      <point x="254" y="1360"/>
      <point x="169" y="1283"/>
      <point x="158" y="1192" type="qcurve" smooth="yes"/>
      <point x="147" y="1104" type="line"/>
      <point x="41" y="1104" type="line"/>
      <point x="51" y="1462" type="line"/>
      <point x="1204" y="1462" type="line"/>
      <point x="1214" y="1104" type="line"/>
      <point x="1108" y="1104" type="line"/>
      <point x="1098" y="1192" type="line" smooth="yes"/>
      <point x="1088" y="1279"/>
      <point x="1005" y="1360"/>
      <point x="928" y="1360" type="qcurve" smooth="yes"/>
      <point x="729" y="1360" type="line"/>
    </contour>
  </outline>
</glyph>
<glyph name="Uhorn" format="2">
  <advance width="1593"/>
  <unicode hex="01AF"/>
  <outline>
    <contour>
      <point x="1243" y="418" type="line" smooth="yes"/>
      <point x="1243" y="210"/>
      <point x="981" y="-20"/>
      <point x="741" y="-20" type="qcurve" smooth="yes"/>
      <point x="225" y="-20"/>
      <point x="225" y="442" type="qcurve" smooth="yes"/>
      <point x="225" y="1237" type="line" smooth="yes"/>
      <point x="225" y="1376"/>
      <point x="57" y="1376" type="qcurve" smooth="yes"/>
      <point x="31" y="1376" type="line"/>
      <point x="31" y="1462" type="line"/>
      <point x="627" y="1462" type="line"/>
      <point x="627" y="1376" type="line"/>
      <point x="600" y="1376" type="line" smooth="yes"/>
      <point x="432" y="1376"/>
      <point x="432" y="1229" type="qcurve" smooth="yes"/>
      <point x="432" y="430" type="line" smooth="yes"/>
      <point x="432" y="102"/>
      <point x="774" y="102" type="qcurve" smooth="yes"/>
      <point x="938" y="102"/>
      <point x="1118" y="271"/>
      <point x="1118" y="422" type="qcurve" smooth="yes"/>
      <point x="1118" y="1237" type="line" smooth="yes"/>
      <point x="1118" y="1376"/>
      <point x="950" y="1376" type="qcurve" smooth="yes"/>
      <point x="924" y="1376" type="line"/>
      <point x="924" y="1462" type="line"/>
      <point x="1243" y="1462" type="line"/>
      <point x="1243" y="1192" type="line"/>
      <point x="1419" y="1220"/>
      <point x="1419" y="1333" type="qcurve" smooth="yes"/>
      <point x="1419" y="1360"/>
      <point x="1331" y="1426"/>
      <point x="1331" y="1475" type="qcurve" smooth="yes"/>
      <point x="1331" y="1577"/>
      <point x="1448" y="1577" type="qcurve" smooth="yes"/>
      <point x="1573" y="1577"/>
      <point x="1573" y="1448" type="qcurve" smooth="yes"/>
      <point x="1573" y="1172"/>
      <point x="1243" y="1112" type="qcurve"/>
    </contour>
  </outline>
</glyph>
<glyph name="uni01B2" format="2">
  <advance width="1403"/>
  <unicode hex="01B2"/>
  <outline>
    <contour>
      <point x="940" y="1323" type="qcurve"/>
      <point x="940" y="1397"/>
      <point x="1028" y="1485"/>
      <point x="1094" y="1485" type="qcurve" smooth="yes"/>
      <point x="1206" y="1485"/>
      <point x="1337" y="1274"/>
      <point x="1337" y="1083" type="qcurve" smooth="yes"/>
      <point x="1337" y="852"/>
      <point x="1117" y="315"/>
      <point x="777" y="-20"/>
      <point x="606" y="-20" type="qcurve" smooth="yes"/>
      <point x="408" y="-20"/>
      <point x="225" y="179"/>
      <point x="225" y="377" type="qcurve" smooth="yes"/>
      <point x="225" y="1237" type="line" smooth="yes"/>
      <point x="225" y="1305"/>
      <point x="154" y="1376"/>
      <point x="57" y="1376" type="qcurve" smooth="yes"/>
      <point x="31" y="1376" type="line"/>
      <point x="31" y="1462" type="line"/>
      <point x="627" y="1462" type="line"/>
      <point x="627" y="1376" type="line"/>
      <point x="600" y="1376" type="line" smooth="yes"/>
      <point x="503" y="1376"/>
      <point x="432" y="1302"/>
      <point x="432" y="1229" type="qcurve" smooth="yes"/>
      <point x="432" y="338" type="line" smooth="yes"/>
      <point x="432" y="217"/>
      <point x="529" y="102"/>
      <point x="618" y="102" type="qcurve" smooth="yes"/>
      <point x="747" y="102"/>
      <point x="1017" y="382"/>
      <point x="1200" y="839"/>
      <point x="1200" y="1049" type="qcurve" smooth="yes"/>
      <point x="1200" y="1197"/>
      <point x="1078" y="1323"/>
    </contour>
  </outline>
</glyph>
<glyph name="uni01BD" format="2">
  <advance width="983"/>
  <unicode hex="01BD"/>
  <outline>
    <contour>
      <point x="74" y="1098" type="line"/>
      <point x="823" y="1098" type="line"/>
      <point x="836" y="823" type="line"/>
      <point x="735" y="823" type="line"/>
      <point x="731" y="854" type="line" smooth="yes"/>
      <point x="720" y="932"/>
      <point x="665" y="981"/>
      <point x="598" y="981" type="qcurve" smooth="yes"/>
      <point x="399" y="981" type="line"/>
      <point x="399" y="698" type="line"/>
      <point x="463" y="698" type="line" smooth="yes"/>
      <point x="660" y="698"/>
      <point x="872" y="519"/>
      <point x="872" y="350" type="qcurve" smooth="yes"/>
      <point x="872" y="176"/>
      <point x="645" y="-20"/>
      <point x="444" y="-20" type="qcurve" smooth="yes"/>
      <point x="279" y="-20"/>
      <point x="66" y="112"/>
      <point x="66" y="217" type="qcurve" smooth="yes"/>
      <point x="66" y="285"/>
      <point x="150" y="358"/>
      <point x="207" y="358" type="qcurve"/>
      <point x="207" y="88"/>
      <point x="449" y="88" type="qcurve" smooth="yes"/>
      <point x="558" y="88"/>
      <point x="674" y="214"/>
      <point x="674" y="336" type="qcurve" smooth="yes"/>
      <point x="674" y="458"/>
      <point x="558" y="590"/>
      <point x="449" y="590" type="qcurve" smooth="yes"/>
      <point x="207" y="590" type="line"/>
      <point x="207" y="891" type="line" smooth="yes"/>
      <point x="207" y="959"/>
      <point x="142" y="1012"/>
      <point x="74" y="1012" type="qcurve"/>
    </contour>
  </outline>
</glyph>
<glyph name="uni01BF" format="2">
  <advance width="1257"/>
  <unicode hex="01BF"/>
  <outline>
    <contour>
      <point x="414" y="-31" type="qcurve"/>
      <point x="414" y="-268" type="line" smooth="yes"/>
      <point x="414" y="-337"/>
      <point x="483" y="-406"/>
      <point x="580" y="-406" type="qcurve" smooth="yes"/>
      <point x="608" y="-406" type="line"/>
      <point x="608" y="-492" type="line"/>
      <point x="37" y="-492" type="line"/>
      <point x="37" y="-406" type="line"/>
      <point x="53" y="-406" type="line" smooth="yes"/>
      <point x="150" y="-406"/>
      <point x="221" y="-331"/>
      <point x="221" y="-258" type="qcurve" smooth="yes"/>
      <point x="221" y="872" type="line" smooth="yes"/>
      <point x="221" y="942"/>
      <point x="147" y="1012"/>
      <point x="53" y="1012" type="qcurve" smooth="yes"/>
      <point x="27" y="1012" type="line"/>
      <point x="27" y="1098" type="line"/>
      <point x="385" y="1098" type="line"/>
      <point x="406" y="913" type="line"/>
      <point x="414" y="913" type="line"/>
      <point x="468" y="1022"/>
      <point x="621" y="1118"/>
      <point x="727" y="1118" type="qcurve" smooth="yes"/>
      <point x="925" y="1118"/>
      <point x="1145" y="877"/>
      <point x="1145" y="664" type="qcurve" smooth="yes"/>
      <point x="1145" y="491"/>
      <point x="959" y="171"/>
      <point x="628" y="-19"/>
    </contour>
    <contour>
      <point x="414" y="551" type="qcurve" smooth="yes"/>
      <point x="414" y="78" type="line"/>
      <point x="638" y="94"/>
      <point x="946" y="430"/>
      <point x="946" y="668" type="qcurve" smooth="yes"/>
      <point x="946" y="819"/>
      <point x="814" y="987"/>
      <point x="692" y="987" type="qcurve" smooth="yes"/>
      <point x="542" y="987"/>
      <point x="414" y="791"/>
    </contour>
  </outline>
</glyph>
<glyph name="uni01C2" format="2">
  <advance width="1128"/>
  <unicode hex="01C2"/>
  <outline>
    <contour>
      <point x="102" y="250" type="line"/>
      <point x="102" y="399" type="line"/>
      <point x="489" y="399" type="line"/>
      <point x="489" y="659" type="line"/>
      <point x="102" y="659" type="line"/>
      <point x="102" y="809" type="line"/>
      <point x="489" y="809" type="line"/>
      <point x="489" y="1556" type="line"/>
      <point x="639" y="1556" type="line"/>
      <point x="639" y="809" type="line"/>
      <point x="1026" y="809" type="line"/>
      <point x="1026" y="659" type="line"/>
      <point x="639" y="659" type="line"/>
      <point x="639" y="399" type="line"/>
      <point x="1026" y="399" type="line"/>
      <point x="1026" y="250" type="line"/>
      <point x="639" y="250" type="line"/>
      <point x="639" y="-492" type="line"/>
      <point x="489" y="-492" type="line"/>
      <point x="489" y="250" type="line"/>
    </contour>
  </outline>
</glyph>
<glyph name="uni01F7" format="2">
  <advance width="1421"/>
  <unicode hex="01F7"/>
  <outline>
    <contour>
      <point x="438" y="-258" type="line" smooth="yes"/>
      <point x="438" y="-331"/>
      <point x="508" y="-406"/>
      <point x="606" y="-406" type="qcurve" smooth="yes"/>
      <point x="633" y="-406" type="line"/>
      <point x="633" y="-492" type="line"/>
      <point x="37" y="-492" type="line"/>
      <point x="37" y="-406" type="line"/>
      <point x="63" y="-406" type="line" smooth="yes"/>
      <point x="160" y="-406"/>
      <point x="231" y="-334"/>
      <point x="231" y="-258" type="qcurve" smooth="yes"/>
      <point x="231" y="1229" type="line" smooth="yes"/>
      <point x="231" y="1304"/>
      <point x="159" y="1376"/>
      <point x="63" y="1376" type="qcurve" smooth="yes"/>
      <point x="37" y="1376" type="line"/>
      <point x="37" y="1462" type="line"/>
      <point x="395" y="1462" type="line"/>
      <point x="426" y="1260" type="line"/>
      <point x="434" y="1260" type="line"/>
      <point x="500" y="1363"/>
      <point x="706" y="1483"/>
      <point x="854" y="1483" type="qcurve" smooth="yes"/>
      <point x="1084" y="1483"/>
      <point x="1335" y="1213"/>
      <point x="1335" y="975" type="qcurve" smooth="yes"/>
      <point x="1335" y="744"/>
      <point x="1097" y="327"/>
      <point x="675" y="29"/>
      <point x="438" y="-20" type="qcurve"/>
    </contour>
    <contour>
      <point x="438" y="86" type="line"/>
      <point x="725" y="165"/>
      <point x="1108" y="652"/>
      <point x="1108" y="979" type="qcurve" smooth="yes"/>
      <point x="1108" y="1163"/>
      <point x="948" y="1339"/>
      <point x="795" y="1339" type="qcurve" smooth="yes"/>
      <point x="633" y="1339"/>
      <point x="438" y="1117"/>
      <point x="438" y="952" type="qcurve" smooth="yes"/>
    </contour>
  </outline>
</glyph>
<glyph name="Aringacute" format="2">
  <advance width="1444"/>
  <unicode hex="01FA"/>
  <outline>
    <contour>
      <point x="969" y="1438" type="qcurve" smooth="yes"/>
      <point x="969" y="1362"/>
      <point x="899" y="1262"/>
      <point x="840" y="1237" type="qcurve"/>
      <point x="1272" y="184" type="line" smooth="yes"/>
      <point x="1284" y="155"/>
      <point x="1309" y="117"/>
      <point x="1343" y="95"/>
      <point x="1387" y="86"/>
      <point x="1417" y="86" type="qcurve" smooth="yes"/>
      <point x="1444" y="86" type="line"/>
      <point x="1444" y="0" type="line"/>
      <point x="881" y="0" type="line"/>
      <point x="881" y="86" type="line"/>
      <point x="928" y="86" type="line" smooth="yes"/>
      <point x="1051" y="86"/>
      <point x="1051" y="176" type="qcurve" smooth="yes"/>
      <point x="1051" y="192"/>
      <point x="1042" y="222"/>
      <point x="1034" y="244" type="qcurve" smooth="yes"/>
      <point x="952" y="444" type="line"/>
      <point x="414" y="444" type="line"/>
      <point x="336" y="256" type="line" smooth="yes"/>
      <point x="327" y="234"/>
      <point x="317" y="192"/>
      <point x="317" y="178" type="qcurve" smooth="yes"/>
      <point x="317" y="86"/>
      <point x="453" y="86" type="qcurve" smooth="yes"/>
      <point x="500" y="86" type="line"/>
      <point x="500" y="0" type="line"/>
      <point x="0" y="0" type="line"/>
      <point x="0" y="86" type="line"/>
      <point x="39" y="86" type="line" smooth="yes"/>
      <point x="69" y="86"/>
      <point x="111" y="98"/>
      <point x="145" y="130"/>
      <point x="176" y="187"/>
      <point x="195" y="231" type="qcurve" smooth="yes"/>
      <point x="614" y="1233" type="line"/>
      <point x="552" y="1256"/>
      <point x="477" y="1359"/>
      <point x="477" y="1438" type="qcurve" smooth="yes"/>
      <point x="477" y="1492"/>
      <point x="515" y="1576"/>
      <point x="582" y="1632"/>
      <point x="672" y="1661"/>
      <point x="723" y="1661" type="qcurve" smooth="yes"/>
      <point x="774" y="1661"/>
      <point x="864" y="1632"/>
      <point x="931" y="1576"/>
      <point x="969" y="1492"/>
    </contour>
    <contour>
      <point x="788" y="870" type="line" smooth="yes"/>
      <point x="758" y="952"/>
      <point x="703" y="1095"/>
      <point x="686" y="1163" type="qcurve"/>
      <point x="678" y="1131"/>
      <point x="659" y="1069"/>
      <point x="636" y="1003"/>
      <point x="609" y="930"/>
      <point x="592" y="887" type="qcurve" smooth="yes"/>
      <point x="459" y="547" type="line"/>
      <point x="909" y="547" type="line"/>
    </contour>
    <contour>
      <point x="858" y="1438" type="qcurve" smooth="yes"/>
      <point x="858" y="1471"/>
      <point x="837" y="1518"/>
      <point x="800" y="1547"/>
      <point x="751" y="1561"/>
      <point x="723" y="1561" type="qcurve" smooth="yes"/>
      <point x="695" y="1561"/>
      <point x="646" y="1547"/>
      <point x="609" y="1518"/>
      <point x="588" y="1471"/>
      <point x="588" y="1438" type="qcurve" smooth="yes"/>
      <point x="588" y="1405"/>
      <point x="609" y="1358"/>
      <point x="646" y="1329"/>
      <point x="695" y="1315"/>
      <point x="723" y="1315" type="qcurve" smooth="yes"/>
      <point x="751" y="1315"/>
      <point x="800" y="1329"/>
      <point x="837" y="1358"/>
      <point x="858" y="1405"/>
    </contour>
    <contour>
      <point x="637" y="1720" type="line"/>
      <point x="659" y="1744"/>
      <point x="708" y="1805"/>
      <point x="756" y="1870"/>
      <point x="799" y="1934"/>
      <point x="815" y="1962" type="qcurve"/>
      <point x="1034" y="1962" type="line"/>
      <point x="1034" y="1946" type="line"/>
      <point x="1015" y="1924"/>
      <point x="941" y="1859"/>
      <point x="851" y="1788"/>
      <point x="756" y="1722"/>
      <point x="715" y="1700" type="qcurve"/>
      <point x="637" y="1700" type="line"/>
    </contour>
  </outline>
</glyph>
<glyph name="aringacute" format="2">
  <advance width="1153"/>
  <unicode hex="01FB"/>
  <outline>
    <contour>
      <point x="477" y="1720" type="line"/>
      <point x="500" y="1744"/>
      <point x="549" y="1805"/>
      <point x="596" y="1870"/>
      <point x="639" y="1934"/>
      <point x="655" y="1962" type="qcurve"/>
      <point x="874" y="1962" type="line"/>
      <point x="874" y="1946" type="line"/>
      <point x="855" y="1924"/>
      <point x="781" y="1859"/>
      <point x="691" y="1788"/>
      <point x="596" y="1722"/>
      <point x="555" y="1700" type="qcurve"/>
      <point x="477" y="1700" type="line"/>
    </contour>
    <contour>
      <point x="301" y="297" type="qcurve" smooth="yes"/>
      <point x="301" y="201"/>
      <point x="382" y="106"/>
      <point x="467" y="106" type="qcurve" smooth="yes"/>
      <point x="529" y="106"/>
      <point x="630" y="146"/>
      <point x="701" y="220"/>
      <point x="739" y="326"/>
      <point x="739" y="391" type="qcurve" smooth="yes"/>
      <point x="739" y="557" type="line"/>
      <point x="608" y="551" type="line" smooth="yes"/>
      <point x="521" y="547"/>
      <point x="404" y="512"/>
      <point x="332" y="449"/>
      <point x="301" y="357"/>
    </contour>
    <contour>
      <point x="549" y="1016" type="qcurve" smooth="yes"/>
      <point x="490" y="1016"/>
      <point x="417" y="983"/>
      <point x="376" y="923"/>
      <point x="362" y="841"/>
      <point x="362" y="793" type="qcurve"/>
      <point x="277" y="793"/>
      <point x="188" y="851"/>
      <point x="188" y="922" type="qcurve" smooth="yes"/>
      <point x="188" y="975"/>
      <point x="246" y="1049"/>
      <point x="347" y="1096"/>
      <point x="481" y="1118"/>
      <point x="557" y="1118" type="qcurve" smooth="yes"/>
      <point x="651" y="1118"/>
      <point x="791" y="1081"/>
      <point x="885" y="997"/>
      <point x="932" y="862"/>
      <point x="932" y="764" type="qcurve" smooth="yes"/>
      <point x="932" y="233" type="line" smooth="yes"/>
      <point x="932" y="190"/>
      <point x="946" y="134"/>
      <point x="976" y="100"/>
      <point x="1025" y="86"/>
      <point x="1059" y="86" type="qcurve" smooth="yes"/>
      <point x="1065" y="86" type="line"/>
      <point x="1065" y="0" type="line"/>
      <point x="788" y="0" type="line"/>
      <point x="756" y="176" type="line"/>
      <point x="739" y="176" type="line"/>
      <point x="707" y="133"/>
      <point x="647" y="61"/>
      <point x="575" y="9"/>
      <point x="484" y="-20"/>
      <point x="420" y="-20" type="qcurve" smooth="yes"/>
      <point x="352" y="-20"/>
      <point x="235" y="19"/>
      <point x="150" y="100"/>
      <point x="102" y="223"/>
      <point x="102" y="307" type="qcurve" smooth="yes"/>
      <point x="102" y="470"/>
      <point x="334" y="628"/>
      <point x="569" y="635" type="qcurve" smooth="yes"/>
      <point x="739" y="641" type="line"/>
      <point x="739" y="764" type="line" smooth="yes"/>
      <point x="739" y="819"/>
      <point x="727" y="912"/>
      <point x="687" y="979"/>
      <point x="612" y="1016"/>
    </contour>
    <contour>
      <point x="819" y="1417" type="qcurve" smooth="yes"/>
      <point x="819" y="1363"/>
      <point x="781" y="1279"/>
      <point x="715" y="1223"/>
      <point x="625" y="1194"/>
      <point x="573" y="1194" type="qcurve" smooth="yes"/>
      <point x="522" y="1194"/>
      <point x="432" y="1223"/>
      <point x="366" y="1279"/>
      <point x="328" y="1363"/>
      <point x="328" y="1417" type="qcurve" smooth="yes"/>
      <point x="328" y="1472"/>
      <point x="366" y="1555"/>
      <point x="432" y="1611"/>
      <point x="522" y="1640"/>
      <point x="573" y="1640" type="qcurve" smooth="yes"/>
      <point x="625" y="1640"/>
      <point x="715" y="1611"/>
      <point x="781" y="1555"/>
      <point x="819" y="1472"/>
    </contour>
    <contour>
      <point x="709" y="1417" type="qcurve" smooth="yes"/>
      <point x="709" y="1450"/>
      <point x="687" y="1497"/>
      <point x="650" y="1526"/>
      <point x="601" y="1540"/>
      <point x="573" y="1540" type="qcurve" smooth="yes"/>
      <point x="546" y="1540"/>
      <point x="497" y="1526"/>
      <point x="460" y="1497"/>
      <point x="438" y="1450"/>
      <point x="438" y="1417" type="qcurve" smooth="yes"/>
      <point x="438" y="1384"/>
      <point x="460" y="1337"/>
      <point x="497" y="1308"/>
      <point x="546" y="1294"/>
      <point x="573" y="1294" type="qcurve" smooth="yes"/>
      <point x="601" y="1294"/>
      <point x="650" y="1308"/>
      <point x="687" y="1337"/>
      <point x="709" y="1384"/>
    </contour>
  </outline>
</glyph>
<glyph name="uni021D" format="2">
  <advance width="1053"/>
  <unicode hex="021D"/>
  <outline>
    <contour>
      <point x="25" y="-244" type="qcurve" smooth="yes"/>
      <point x="25" y="-176"/>
      <point x="113" y="-94"/>
      <point x="186" y="-94" type="qcurve"/>
      <point x="186" y="-237"/>
      <point x="316" y="-393"/>
      <point x="430" y="-393" type="qcurve" smooth="yes"/>
      <point x="579" y="-393"/>
      <point x="721" y="-203"/>
      <point x="721" y="-12" type="qcurve" smooth="yes"/>
      <point x="721" y="173"/>
      <point x="547" y="365"/>
      <point x="375" y="365" type="qcurve" smooth="yes"/>
      <point x="266" y="365" type="line"/>
      <point x="266" y="457" type="line"/>
      <point x="367" y="457" type="line" smooth="yes"/>
      <point x="508" y="457"/>
      <point x="655" y="616"/>
      <point x="655" y="782" type="qcurve" smooth="yes"/>
      <point x="655" y="896"/>
      <point x="549" y="1020"/>
      <point x="453" y="1020" type="qcurve" smooth="yes"/>
      <point x="350" y="1020"/>
      <point x="254" y="888"/>
      <point x="254" y="760" type="qcurve"/>
      <point x="173" y="760"/>
      <point x="102" y="815"/>
      <point x="102" y="877" type="qcurve" smooth="yes"/>
      <point x="102" y="980"/>
      <point x="291" y="1118"/>
      <point x="455" y="1118" type="qcurve" smooth="yes"/>
      <point x="647" y="1118"/>
      <point x="854" y="935"/>
      <point x="854" y="770" type="qcurve" smooth="yes"/>
      <point x="854" y="639"/>
      <point x="711" y="459"/>
      <point x="580" y="416" type="qcurve"/>
      <point x="748" y="384"/>
      <point x="920" y="177"/>
      <point x="920" y="0" type="qcurve" smooth="yes"/>
      <point x="920" y="-238"/>
      <point x="663" y="-492"/>
      <point x="430" y="-492" type="qcurve" smooth="yes"/>
      <point x="239" y="-492"/>
      <point x="25" y="-350"/>
    </contour>
  </outline>
</glyph>
<glyph name="uni0222" format="2">
  <advance width="1337"/>
  <unicode hex="0222"/>
  <outline>
    <contour>
      <point x="895" y="1483" type="qcurve"/>
      <point x="1016" y="1483"/>
      <point x="1151" y="1330"/>
      <point x="1151" y="1198" type="qcurve" smooth="yes"/>
      <point x="1151" y="1100"/>
      <point x="1004" y="924"/>
      <point x="883" y="879" type="qcurve"/>
      <point x="1043" y="832"/>
      <point x="1223" y="611"/>
      <point x="1223" y="455" type="qcurve" smooth="yes"/>
      <point x="1223" y="236"/>
      <point x="932" y="-20"/>
      <point x="668" y="-20" type="qcurve" smooth="yes"/>
      <point x="405" y="-20"/>
      <point x="115" y="227"/>
      <point x="115" y="457" type="qcurve" smooth="yes"/>
      <point x="115" y="618"/>
      <point x="289" y="832"/>
      <point x="444" y="879" type="qcurve"/>
      <point x="325" y="923"/>
      <point x="186" y="1094"/>
      <point x="186" y="1196" type="qcurve" smooth="yes"/>
      <point x="186" y="1338"/>
      <point x="327" y="1483"/>
      <point x="444" y="1483" type="qcurve"/>
      <point x="425" y="1444"/>
      <point x="397" y="1302"/>
      <point x="397" y="1235" type="qcurve" smooth="yes"/>
      <point x="397" y="1091"/>
      <point x="536" y="930"/>
      <point x="668" y="930" type="qcurve" smooth="yes"/>
      <point x="794" y="930"/>
      <point x="940" y="1093"/>
      <point x="940" y="1233" type="qcurve" smooth="yes"/>
      <point x="940" y="1315"/>
      <point x="921" y="1429"/>
    </contour>
    <contour>
      <point x="668" y="90" type="qcurve" smooth="yes"/>
      <point x="823" y="90"/>
      <point x="1001" y="281"/>
      <point x="1001" y="455" type="qcurve" smooth="yes"/>
      <point x="1001" y="641"/>
      <point x="837" y="819"/>
      <point x="670" y="819" type="qcurve" smooth="yes"/>
      <point x="503" y="819"/>
      <point x="336" y="640"/>
      <point x="336" y="455" type="qcurve" smooth="yes"/>
      <point x="336" y="279"/>
      <point x="507" y="90"/>
    </contour>
  </outline>
</glyph>
<glyph name="uni0224" format="2">
  <advance width="1212"/>
  <unicode hex="0224"/>
  <outline>
    <contour>
      <point x="868" y="102" type="line" smooth="yes"/>
      <point x="1010" y="102"/>
      <point x="1155" y="0"/>
      <point x="1155" y="-123" type="qcurve" smooth="yes"/>
      <point x="1155" y="-208"/>
      <point x="1046" y="-332"/>
      <point x="952" y="-350" type="qcurve"/>
      <point x="970" y="-307"/>
      <point x="987" y="-207"/>
      <point x="987" y="-180" type="qcurve" smooth="yes"/>
      <point x="987" y="-86"/>
      <point x="921" y="0"/>
      <point x="813" y="0" type="qcurve" smooth="yes"/>
      <point x="74" y="0" type="line"/>
      <point x="74" y="82" type="line"/>
      <point x="842" y="1360" type="line"/>
      <point x="397" y="1360" type="line" smooth="yes"/>
      <point x="322" y="1360"/>
      <point x="239" y="1279"/>
      <point x="229" y="1192" type="qcurve" smooth="yes"/>
      <point x="219" y="1104" type="line"/>
      <point x="113" y="1104" type="line"/>
      <point x="123" y="1462" type="line"/>
      <point x="1094" y="1462" type="line"/>
      <point x="1094" y="1378" type="line"/>
      <point x="324" y="102" type="line"/>
    </contour>
    <contour>
      <point x="1126" y="278" type="line"/>
    </contour>
  </outline>
</glyph>
<glyph name="uni0235" format="2">
  <advance width="1489"/>
  <unicode hex="0235"/>
  <outline>
    <contour>
      <point x="1100" y="451" type="line"/>
      <point x="1142" y="463"/>
      <point x="1188" y="463" type="qcurve" smooth="yes"/>
      <point x="1313" y="463"/>
      <point x="1452" y="331"/>
      <point x="1452" y="231" type="qcurve" smooth="yes"/>
      <point x="1452" y="117"/>
      <point x="1303" y="-20"/>
      <point x="1180" y="-20" type="qcurve" smooth="yes"/>
      <point x="1079" y="-20"/>
      <point x="946" y="78"/>
      <point x="922" y="174" type="qcurve"/>
      <point x="896" y="125"/>
      <point x="853" y="6"/>
      <point x="838" y="-63" type="qcurve"/>
      <point x="731" y="-35" type="line"/>
      <point x="760" y="84"/>
      <point x="848" y="269"/>
      <point x="907" y="332" type="qcurve"/>
      <point x="907" y="707" type="line" smooth="yes"/>
      <point x="907" y="851"/>
      <point x="799" y="987"/>
      <point x="682" y="987" type="qcurve" smooth="yes"/>
      <point x="561" y="987"/>
      <point x="434" y="814"/>
      <point x="434" y="655" type="qcurve" smooth="yes"/>
      <point x="434" y="223" type="line" smooth="yes"/>
      <point x="434" y="155"/>
      <point x="504" y="86"/>
      <point x="600" y="86" type="qcurve" smooth="yes"/>
      <point x="608" y="86" type="line"/>
      <point x="608" y="0" type="line"/>
      <point x="57" y="0" type="line"/>
      <point x="57" y="86" type="line"/>
      <point x="74" y="86" type="line" smooth="yes"/>
      <point x="171" y="86"/>
      <point x="242" y="160"/>
      <point x="242" y="233" type="qcurve" smooth="yes"/>
      <point x="242" y="872" type="line" smooth="yes"/>
      <point x="242" y="941"/>
      <point x="169" y="1012"/>
      <point x="76" y="1012" type="qcurve" smooth="yes"/>
      <point x="68" y="1012" type="line"/>
      <point x="68" y="1098" type="line"/>
      <point x="399" y="1098" type="line"/>
      <point x="426" y="932" type="line"/>
      <point x="436" y="932" type="line"/>
      <point x="486" y="1025"/>
      <point x="631" y="1118"/>
      <point x="756" y="1118" type="qcurve" smooth="yes"/>
      <point x="925" y="1118"/>
      <point x="1100" y="918"/>
      <point x="1100" y="717" type="qcurve" smooth="yes"/>
    </contour>
    <contour>
      <point x="1100" y="344" type="qcurve"/>
      <point x="1100" y="250" type="line" smooth="yes"/>
      <point x="1100" y="172"/>
      <point x="1156" y="96"/>
      <point x="1221" y="96" type="qcurve" smooth="yes"/>
      <point x="1279" y="96"/>
      <point x="1341" y="173"/>
      <point x="1341" y="231" type="qcurve" smooth="yes"/>
      <point x="1341" y="291"/>
      <point x="1260" y="360"/>
      <point x="1186" y="360" type="qcurve" smooth="yes"/>
      <point x="1163" y="360"/>
      <point x="1120" y="352"/>
    </contour>
  </outline>
</glyph>
<glyph name="uni0238" format="2">
  <advance width="1880"/>
  <unicode hex="0238"/>
  <outline>
    <contour>
      <point x="944" y="199" type="qcurve"/>
      <point x="936" y="199" type="line"/>
      <point x="888" y="97"/>
      <point x="709" y="-20"/>
      <point x="575" y="-20" type="qcurve" smooth="yes"/>
      <point x="342" y="-20"/>
      <point x="113" y="264"/>
      <point x="113" y="551" type="qcurve" smooth="yes"/>
      <point x="113" y="838"/>
      <point x="321" y="1118"/>
      <point x="530" y="1118" type="qcurve" smooth="yes"/>
      <point x="637" y="1118"/>
      <point x="792" y="1020"/>
      <point x="844" y="913" type="qcurve"/>
      <point x="852" y="913" type="line"/>
      <point x="849" y="990"/>
      <point x="844" y="1111"/>
      <point x="844" y="1180" type="qcurve" smooth="yes"/>
      <point x="844" y="1331" type="line" smooth="yes"/>
      <point x="844" y="1399"/>
      <point x="773" y="1470"/>
      <point x="676" y="1470" type="qcurve" smooth="yes"/>
      <point x="659" y="1470" type="line"/>
      <point x="659" y="1556" type="line"/>
      <point x="1036" y="1556" type="line"/>
      <point x="1036" y="1180" type="line" smooth="yes"/>
      <point x="1036" y="1111"/>
      <point x="1031" y="990"/>
      <point x="1028" y="913" type="qcurve"/>
      <point x="1036" y="913" type="line"/>
      <point x="1088" y="1020"/>
      <point x="1243" y="1118"/>
      <point x="1350" y="1118" type="qcurve" smooth="yes"/>
      <point x="1559" y="1118"/>
      <point x="1767" y="838"/>
      <point x="1767" y="551" type="qcurve" smooth="yes"/>
      <point x="1767" y="264"/>
      <point x="1538" y="-20"/>
      <point x="1305" y="-20" type="qcurve" smooth="yes"/>
      <point x="1187" y="-20"/>
      <point x="1002" y="89"/>
    </contour>
    <contour>
      <point x="1036" y="551" type="qcurve" smooth="yes"/>
      <point x="1036" y="298"/>
      <point x="1165" y="86"/>
      <point x="1317" y="86" type="qcurve" smooth="yes"/>
      <point x="1451" y="86"/>
      <point x="1569" y="313"/>
      <point x="1569" y="553" type="qcurve" smooth="yes"/>
      <point x="1569" y="771"/>
      <point x="1451" y="987"/>
      <point x="1315" y="987" type="qcurve" smooth="yes"/>
      <point x="1166" y="987"/>
      <point x="1036" y="793"/>
    </contour>
    <contour>
      <point x="311" y="553" type="qcurve" smooth="yes"/>
      <point x="311" y="308"/>
      <point x="429" y="86"/>
      <point x="563" y="86" type="qcurve" smooth="yes"/>
      <point x="715" y="86"/>
      <point x="844" y="298"/>
      <point x="844" y="551" type="qcurve" smooth="yes"/>
      <point x="844" y="793"/>
      <point x="714" y="987"/>
      <point x="565" y="987" type="qcurve" smooth="yes"/>
      <point x="434" y="987"/>
      <point x="311" y="781"/>
    </contour>
  </outline>
</glyph>
<glyph name="uni0239" format="2">
  <advance width="1880"/>
  <unicode hex="0239"/>
  <outline>
    <contour>
      <point x="936" y="887" type="qcurve"/>
      <point x="944" y="887" type="line"/>
      <point x="991" y="1000"/>
      <point x="1177" y="1118"/>
      <point x="1305" y="1118" type="qcurve" smooth="yes"/>
      <point x="1522" y="1118"/>
      <point x="1767" y="827"/>
      <point x="1767" y="551" type="qcurve" smooth="yes"/>
      <point x="1767" y="263"/>
      <point x="1560" y="-20"/>
      <point x="1350" y="-20" type="qcurve" smooth="yes"/>
      <point x="1246" y="-20"/>
      <point x="1087" y="79"/>
      <point x="1036" y="172" type="qcurve"/>
      <point x="1028" y="172" type="line"/>
      <point x="1030" y="124"/>
      <point x="1036" y="-30"/>
      <point x="1036" y="-72" type="qcurve" smooth="yes"/>
      <point x="1036" y="-268" type="line" smooth="yes"/>
      <point x="1036" y="-336"/>
      <point x="1113" y="-406"/>
      <point x="1212" y="-406" type="qcurve" smooth="yes"/>
      <point x="1221" y="-406" type="line"/>
      <point x="1221" y="-492" type="line"/>
      <point x="659" y="-492" type="line"/>
      <point x="659" y="-406" type="line"/>
      <point x="676" y="-406" type="line" smooth="yes"/>
      <point x="773" y="-406"/>
      <point x="844" y="-331"/>
      <point x="844" y="-258" type="qcurve" smooth="yes"/>
      <point x="844" y="-74" type="line" smooth="yes"/>
      <point x="844" y="-9"/>
      <point x="849" y="96"/>
      <point x="852" y="172" type="qcurve"/>
      <point x="844" y="172" type="line"/>
      <point x="794" y="70"/>
      <point x="642" y="-20"/>
      <point x="530" y="-20" type="qcurve" smooth="yes"/>
      <point x="321" y="-20"/>
      <point x="113" y="260"/>
      <point x="113" y="547" type="qcurve" smooth="yes"/>
      <point x="113" y="823"/>
      <point x="354" y="1118"/>
      <point x="573" y="1118" type="qcurve" smooth="yes"/>
      <point x="698" y="1118"/>
      <point x="885" y="995"/>
    </contour>
    <contour>
      <point x="844" y="557" type="qcurve" smooth="yes"/>
      <point x="844" y="801"/>
      <point x="708" y="1012"/>
      <point x="563" y="1012" type="qcurve" smooth="yes"/>
      <point x="436" y="1012"/>
      <point x="311" y="786"/>
      <point x="311" y="555" type="qcurve" smooth="yes"/>
      <point x="311" y="324"/>
      <point x="435" y="111"/>
      <point x="565" y="111" type="qcurve" smooth="yes"/>
      <point x="712" y="111"/>
      <point x="844" y="313"/>
    </contour>
    <contour>
      <point x="1036" y="557" type="qcurve" smooth="yes"/>
      <point x="1036" y="331"/>
      <point x="1175" y="111"/>
      <point x="1317" y="111" type="qcurve" smooth="yes"/>
      <point x="1444" y="111"/>
      <point x="1569" y="328"/>
      <point x="1569" y="559" type="qcurve" smooth="yes"/>
      <point x="1569" y="793"/>
      <point x="1443" y="1012"/>
      <point x="1315" y="1012" type="qcurve" smooth="yes"/>
      <point x="1169" y="1012"/>
      <point x="1036" y="803"/>
    </contour>
  </outline>
</glyph>
<glyph name="uni023C" format="2">
  <advance width="1008"/>
  <unicode hex="023C"/>
  <outline>
    <contour>
      <point x="494" y="-14" type="qcurve"/>
      <point x="401" y="-424" type="line"/>
      <point x="297" y="-424" type="line"/>
      <point x="395" y="10" type="line"/>
      <point x="254" y="62"/>
      <point x="113" y="333"/>
      <point x="113" y="543" type="qcurve" smooth="yes"/>
      <point x="113" y="832"/>
      <point x="341" y="1118"/>
      <point x="569" y="1118" type="qcurve" smooth="yes"/>
      <point x="588" y="1118"/>
      <point x="625" y="1116"/>
      <point x="645" y="1114" type="qcurve"/>
      <point x="725" y="1462" type="line"/>
      <point x="829" y="1462" type="line"/>
      <point x="745" y="1092" type="line"/>
      <point x="834" y="1064"/>
      <point x="926" y="970"/>
      <point x="926" y="909" type="qcurve" smooth="yes"/>
      <point x="926" y="838"/>
      <point x="834" y="780"/>
      <point x="743" y="780" type="qcurve"/>
      <point x="743" y="827"/>
      <point x="728" y="909"/>
      <point x="711" y="940" type="qcurve"/>
      <point x="524" y="123" type="line"/>
      <point x="546" y="117"/>
      <point x="595" y="113"/>
      <point x="621" y="113" type="qcurve" smooth="yes"/>
      <point x="716" y="113"/>
      <point x="858" y="193"/>
      <point x="893" y="256" type="qcurve"/>
      <point x="908" y="244"/>
      <point x="928" y="204"/>
      <point x="928" y="176" type="qcurve" smooth="yes"/>
      <point x="928" y="97"/>
      <point x="737" y="-20"/>
      <point x="580" y="-20" type="qcurve" smooth="yes"/>
      <point x="536" y="-20"/>
    </contour>
    <contour>
      <point x="430" y="168" type="qcurve"/>
      <point x="621" y="1010" type="line"/>
      <point x="598" y="1016"/>
      <point x="569" y="1016" type="qcurve" smooth="yes"/>
      <point x="431" y="1016"/>
      <point x="311" y="787"/>
      <point x="311" y="545" type="qcurve" smooth="yes"/>
      <point x="311" y="404"/>
      <point x="368" y="217"/>
    </contour>
  </outline>
</glyph>
<glyph name="uni023D" format="2">
  <advance width="1276"/>
  <unicode hex="023D"/>
  <outline>
    <contour>
      <point x="78" y="0" type="line"/>
      <point x="78" y="86" type="line"/>
      <point x="104" y="86" type="line" smooth="yes"/>
      <point x="200" y="86"/>
      <point x="272" y="158"/>
      <point x="272" y="233" type="qcurve" smooth="yes"/>
      <point x="272" y="715" type="line"/>
      <point x="78" y="715" type="line"/>
      <point x="78" y="815" type="line"/>
      <point x="272" y="815" type="line"/>
      <point x="272" y="1229" type="line" smooth="yes"/>
      <point x="272" y="1304"/>
      <point x="200" y="1376"/>
      <point x="104" y="1376" type="qcurve" smooth="yes"/>
      <point x="78" y="1376" type="line"/>
      <point x="78" y="1462" type="line"/>
      <point x="674" y="1462" type="line"/>
      <point x="674" y="1376" type="line"/>
      <point x="647" y="1376" type="line" smooth="yes"/>
      <point x="550" y="1376"/>
      <point x="479" y="1305"/>
      <point x="479" y="1237" type="qcurve" smooth="yes"/>
      <point x="479" y="815" type="line"/>
      <point x="760" y="815" type="line"/>
      <point x="760" y="715" type="line"/>
      <point x="479" y="715" type="line"/>
      <point x="479" y="102" type="line"/>
      <point x="883" y="102" type="line" smooth="yes"/>
      <point x="956" y="102"/>
      <point x="1049" y="193"/>
      <point x="1063" y="287" type="qcurve" smooth="yes"/>
      <point x="1083" y="440" type="line"/>
      <point x="1190" y="440" type="line"/>
      <point x="1176" y="0" type="line"/>
    </contour>
  </outline>
</glyph>
<glyph name="uni023E" format="2">
  <advance width="1255"/>
  <unicode hex="023E"/>
  <outline>
    <contour>
      <point x="522" y="664" type="line"/>
      <point x="522" y="1360" type="line"/>
      <point x="326" y="1360" type="line" smooth="yes"/>
      <point x="254" y="1360"/>
      <point x="169" y="1283"/>
      <point x="158" y="1192" type="qcurve" smooth="yes"/>
      <point x="147" y="1104" type="line"/>
      <point x="41" y="1104" type="line"/>
      <point x="51" y="1462" type="line"/>
      <point x="979" y="1462" type="line"/>
      <point x="1034" y="1556" type="line"/>
      <point x="1151" y="1556" type="line"/>
      <point x="1096" y="1462" type="line"/>
      <point x="1204" y="1462" type="line"/>
      <point x="1214" y="1104" type="line"/>
      <point x="1108" y="1104" type="line"/>
      <point x="1098" y="1192" type="line" smooth="yes"/>
      <point x="1092" y="1237"/>
      <point x="1061" y="1314"/>
      <point x="1024" y="1335" type="qcurve"/>
      <point x="729" y="819" type="line"/>
      <point x="729" y="233" type="line" smooth="yes"/>
      <point x="729" y="160"/>
      <point x="800" y="86"/>
      <point x="897" y="86" type="qcurve" smooth="yes"/>
      <point x="944" y="86" type="line"/>
      <point x="944" y="0" type="line"/>
      <point x="354" y="0" type="line"/>
      <point x="354" y="86" type="line"/>
      <point x="451" y="86"/>
      <point x="522" y="154"/>
      <point x="522" y="223" type="qcurve" smooth="yes"/>
      <point x="522" y="457" type="line"/>
      <point x="193" y="-119" type="line"/>
      <point x="74" y="-119" type="line"/>
    </contour>
    <contour>
      <point x="729" y="1024" type="line"/>
      <point x="922" y="1360" type="line"/>
      <point x="729" y="1360" type="line"/>
    </contour>
  </outline>
</glyph>
<glyph name="uni023F" format="2">
  <advance width="924"/>
  <unicode hex="023F"/>
  <outline>
    <contour>
      <point x="221" y="338" type="qcurve"/>
      <point x="221" y="209"/>
      <point x="334" y="78"/>
      <point x="442" y="78" type="qcurve" smooth="yes"/>
      <point x="549" y="78"/>
      <point x="668" y="180"/>
      <point x="668" y="264" type="qcurve" smooth="yes"/>
      <point x="668" y="347"/>
      <point x="544" y="433"/>
      <point x="235" y="566"/>
      <point x="106" y="708"/>
      <point x="106" y="827" type="qcurve" smooth="yes"/>
      <point x="106" y="964"/>
      <point x="315" y="1116"/>
      <point x="492" y="1116" type="qcurve" smooth="yes"/>
      <point x="628" y="1116"/>
      <point x="791" y="1011"/>
      <point x="791" y="928" type="qcurve" smooth="yes"/>
      <point x="791" y="872"/>
      <point x="714" y="805"/>
      <point x="643" y="805" type="qcurve"/>
      <point x="643" y="908"/>
      <point x="558" y="1022"/>
      <point x="467" y="1022" type="qcurve" smooth="yes"/>
      <point x="370" y="1022"/>
      <point x="272" y="936"/>
      <point x="272" y="858" type="qcurve" smooth="yes"/>
      <point x="272" y="762"/>
      <point x="464" y="665"/>
      <point x="694" y="570"/>
      <point x="834" y="426"/>
      <point x="834" y="301" type="qcurve" smooth="yes"/>
      <point x="834" y="158"/>
      <point x="653" y="-4"/>
      <point x="485" y="-18" type="qcurve"/>
      <point x="557" y="-78"/>
      <point x="600" y="-303"/>
      <point x="665" y="-360"/>
      <point x="698" y="-360" type="qcurve" smooth="yes"/>
      <point x="742" y="-360"/>
      <point x="793" y="-284"/>
      <point x="793" y="-197" type="qcurve"/>
      <point x="847" y="-199"/>
      <point x="909" y="-269"/>
      <point x="909" y="-324" type="qcurve" smooth="yes"/>
      <point x="909" y="-402"/>
      <point x="790" y="-492"/>
      <point x="696" y="-492" type="qcurve" smooth="yes"/>
      <point x="595" y="-492"/>
      <point x="486" y="-369"/>
      <point x="445" y="-146"/>
      <point x="344" y="-27"/>
      <point x="133" y="45"/>
      <point x="103" y="127" type="qcurve" smooth="yes"/>
      <point x="92" y="157"/>
      <point x="92" y="197" type="qcurve" smooth="yes"/>
      <point x="92" y="263"/>
      <point x="168" y="338"/>
    </contour>
  </outline>
</glyph>
<glyph name="uni0241" format="2">
  <advance width="1012"/>
  <unicode hex="0241"/>
  <outline>
    <contour>
      <point x="563" y="565" type="qcurve"/>
      <point x="563" y="233" type="line" smooth="yes"/>
      <point x="563" y="160"/>
      <point x="634" y="86"/>
      <point x="731" y="86" type="qcurve" smooth="yes"/>
      <point x="758" y="86" type="line"/>
      <point x="758" y="0" type="line"/>
      <point x="162" y="0" type="line"/>
      <point x="162" y="86" type="line"/>
      <point x="188" y="86" type="line" smooth="yes"/>
      <point x="284" y="86"/>
      <point x="356" y="158"/>
      <point x="356" y="233" type="qcurve" smooth="yes"/>
      <point x="356" y="672" type="line"/>
      <point x="565" y="768"/>
      <point x="715" y="952"/>
      <point x="715" y="1094" type="qcurve" smooth="yes"/>
      <point x="715" y="1223"/>
      <point x="591" y="1380"/>
      <point x="477" y="1380" type="qcurve" smooth="yes"/>
      <point x="358" y="1380"/>
      <point x="236" y="1244"/>
      <point x="236" y="1110" type="qcurve"/>
      <point x="161" y="1110"/>
      <point x="74" y="1177"/>
      <point x="74" y="1243" type="qcurve" smooth="yes"/>
      <point x="74" y="1342"/>
      <point x="297" y="1483"/>
      <point x="477" y="1483" type="qcurve" smooth="yes"/>
      <point x="675" y="1483"/>
      <point x="905" y="1261"/>
      <point x="905" y="1083" type="qcurve" smooth="yes"/>
      <point x="905" y="910"/>
      <point x="744" y="661"/>
    </contour>
  </outline>
</glyph>
<glyph name="uni0248" format="2">
  <advance width="731"/>
  <unicode hex="0248"/>
  <outline>
    <contour>
      <point x="-23" y="-395" type="line"/>
      <point x="-4" y="-395" type="line" smooth="yes"/>
      <point x="145" y="-395"/>
      <point x="272" y="-211"/>
      <point x="272" y="-18" type="qcurve" smooth="yes"/>
      <point x="272" y="715" type="line"/>
      <point x="41" y="715" type="line"/>
      <point x="41" y="815" type="line"/>
      <point x="272" y="815" type="line"/>
      <point x="272" y="1237" type="line" smooth="yes"/>
      <point x="272" y="1305"/>
      <point x="201" y="1376"/>
      <point x="104" y="1376" type="qcurve" smooth="yes"/>
      <point x="78" y="1376" type="line"/>
      <point x="78" y="1462" type="line"/>
      <point x="674" y="1462" type="line"/>
      <point x="674" y="1376" type="line"/>
      <point x="647" y="1376" type="line" smooth="yes"/>
      <point x="550" y="1376"/>
      <point x="479" y="1302"/>
      <point x="479" y="1229" type="qcurve" smooth="yes"/>
      <point x="479" y="815" type="line"/>
      <point x="711" y="815" type="line"/>
      <point x="711" y="715" type="line"/>
      <point x="479" y="715" type="line"/>
      <point x="479" y="-16" type="line" smooth="yes"/>
      <point x="479" y="-255"/>
      <point x="247" y="-492"/>
      <point x="12" y="-492" type="qcurve" smooth="yes"/>
      <point x="-23" y="-492" type="line"/>
    </contour>
  </outline>
</glyph>
<glyph name="uni0249" format="2">
  <advance width="614"/>
  <unicode hex="0249"/>
  <outline>
    <contour>
      <point x="414" y="1098" type="line"/>
      <point x="414" y="631" type="line"/>
      <point x="594" y="631" type="line"/>
      <point x="594" y="535" type="line"/>
      <point x="414" y="535" type="line"/>
      <point x="414" y="-16" type="line" smooth="yes"/>
      <point x="414" y="-258"/>
      <point x="216" y="-492"/>
      <point x="8" y="-492" type="qcurve" smooth="yes"/>
      <point x="-25" y="-492" type="line"/>
      <point x="-25" y="-395" type="line"/>
      <point x="-10" y="-395" type="line" smooth="yes"/>
      <point x="114" y="-395"/>
      <point x="221" y="-212"/>
      <point x="221" y="-18" type="qcurve" smooth="yes"/>
      <point x="221" y="535" type="line"/>
      <point x="20" y="535" type="line"/>
      <point x="20" y="631" type="line"/>
      <point x="221" y="631" type="line"/>
      <point x="221" y="872" type="line" smooth="yes"/>
      <point x="221" y="941"/>
      <point x="148" y="1012"/>
      <point x="55" y="1012" type="qcurve" smooth="yes"/>
      <point x="47" y="1012" type="line"/>
      <point x="47" y="1098" type="line"/>
    </contour>
    <contour>
      <point x="309" y="1556" type="qcurve" smooth="yes"/>
      <point x="370" y="1556"/>
      <point x="426" y="1489"/>
      <point x="426" y="1430" type="qcurve" smooth="yes"/>
      <point x="426" y="1370"/>
      <point x="367" y="1303"/>
      <point x="309" y="1303" type="qcurve" smooth="yes"/>
      <point x="252" y="1303"/>
      <point x="193" y="1367"/>
      <point x="193" y="1430" type="qcurve" smooth="yes"/>
      <point x="193" y="1491"/>
      <point x="249" y="1556"/>
    </contour>
  </outline>
</glyph>
<glyph name="uni024A" format="2">
  <advance width="1655"/>
  <unicode hex="024A"/>
  <outline>
    <contour>
      <point x="1188" y="254" type="line"/>
      <point x="1180" y="254" type="line"/>
      <point x="1103" y="110"/>
      <point x="878" y="-20"/>
      <point x="725" y="-20" type="qcurve" smooth="yes"/>
      <point x="437" y="-20"/>
      <point x="115" y="381"/>
      <point x="115" y="735" type="qcurve" smooth="yes"/>
      <point x="115" y="1087"/>
      <point x="439" y="1485"/>
      <point x="733" y="1485" type="qcurve" smooth="yes"/>
      <point x="884" y="1485"/>
      <point x="1118" y="1350"/>
      <point x="1180" y="1229" type="qcurve"/>
      <point x="1188" y="1229" type="line"/>
      <point x="1219" y="1462" type="line"/>
      <point x="1577" y="1462" type="line"/>
      <point x="1577" y="1376" type="line"/>
      <point x="1550" y="1376" type="line" smooth="yes"/>
      <point x="1453" y="1376"/>
      <point x="1382" y="1302"/>
      <point x="1382" y="1229" type="qcurve" smooth="yes"/>
      <point x="1382" y="-182" type="line" smooth="yes"/>
      <point x="1382" y="-285"/>
      <point x="1463" y="-377"/>
      <point x="1546" y="-377" type="qcurve" smooth="yes"/>
      <point x="1571" y="-377"/>
      <point x="1613" y="-371"/>
      <point x="1634" y="-365" type="qcurve"/>
      <point x="1634" y="-461" type="line"/>
      <point x="1610" y="-473"/>
      <point x="1522" y="-492"/>
      <point x="1489" y="-492" type="qcurve" smooth="yes"/>
      <point x="1324" y="-492"/>
      <point x="1176" y="-347"/>
      <point x="1176" y="-178" type="qcurve" smooth="yes"/>
      <point x="1176" y="0" type="line"/>
    </contour>
    <contour>
      <point x="760" y="123" type="qcurve" smooth="yes"/>
      <point x="976" y="123"/>
      <point x="1176" y="409"/>
      <point x="1176" y="733" type="qcurve" smooth="yes"/>
      <point x="1176" y="1056"/>
      <point x="978" y="1341"/>
      <point x="762" y="1341" type="qcurve" smooth="yes"/>
      <point x="545" y="1341"/>
      <point x="342" y="1056"/>
      <point x="342" y="733" type="qcurve" smooth="yes"/>
      <point x="342" y="411"/>
      <point x="544" y="123"/>
    </contour>
  </outline>
</glyph>
<glyph name="uni024B" format="2">
  <advance width="1257"/>
  <unicode hex="024B"/>
  <outline>
    <contour>
      <point x="844" y="-82" type="line" smooth="yes"/>
      <point x="844" y="-13"/>
      <point x="849" y="108"/>
      <point x="852" y="184" type="qcurve"/>
      <point x="844" y="184" type="line"/>
      <point x="793" y="79"/>
      <point x="638" y="-20"/>
      <point x="530" y="-20" type="qcurve" smooth="yes"/>
      <point x="321" y="-20"/>
      <point x="113" y="260"/>
      <point x="113" y="547" type="qcurve" smooth="yes"/>
      <point x="113" y="835"/>
      <point x="320" y="1118"/>
      <point x="530" y="1118" type="qcurve" smooth="yes"/>
      <point x="636" y="1118"/>
      <point x="791" y="1030"/>
      <point x="844" y="938" type="qcurve"/>
      <point x="856" y="938" type="line"/>
      <point x="893" y="1098" type="line"/>
      <point x="1221" y="1098" type="line"/>
      <point x="1221" y="1012" type="line"/>
      <point x="1204" y="1012" type="line" smooth="yes"/>
      <point x="1106" y="1012"/>
      <point x="1036" y="937"/>
      <point x="1036" y="864" type="qcurve" smooth="yes"/>
      <point x="1036" y="-180" type="line" smooth="yes"/>
      <point x="1036" y="-285"/>
      <point x="1121" y="-383"/>
      <point x="1192" y="-383" type="qcurve" smooth="yes"/>
      <point x="1229" y="-383"/>
      <point x="1291" y="-375"/>
      <point x="1323" y="-369" type="qcurve"/>
      <point x="1323" y="-459" type="line"/>
      <point x="1294" y="-473"/>
      <point x="1183" y="-492"/>
      <point x="1141" y="-492" type="qcurve" smooth="yes"/>
      <point x="977" y="-492"/>
      <point x="844" y="-342"/>
      <point x="844" y="-174" type="qcurve" smooth="yes"/>
    </contour>
    <contour>
      <point x="844" y="547" type="qcurve" smooth="yes"/>
      <point x="844" y="787"/>
      <point x="709" y="987"/>
      <point x="563" y="987" type="qcurve" smooth="yes"/>
      <point x="435" y="987"/>
      <point x="311" y="772"/>
      <point x="311" y="545" type="qcurve" smooth="yes"/>
      <point x="311" y="317"/>
      <point x="434" y="111"/>
      <point x="565" y="111" type="qcurve" smooth="yes"/>
      <point x="714" y="111"/>
      <point x="844" y="305"/>
    </contour>
  </outline>
</glyph>
<glyph name="uni024C" format="2">
  <advance width="1343"/>
  <unicode hex="024C"/>
  <outline>
    <contour>
      <point x="1135" y="250" type="line" smooth="yes"/>
      <point x="1192" y="159"/>
      <point x="1290" y="86"/>
      <point x="1348" y="86" type="qcurve" smooth="yes"/>
      <point x="1356" y="86" type="line"/>
      <point x="1356" y="0" type="line"/>
      <point x="1327" y="0" type="line" smooth="yes"/>
      <point x="1150" y="0"/>
      <point x="1001" y="57"/>
      <point x="926" y="184" type="qcurve" smooth="yes"/>
      <point x="649" y="645" type="line"/>
      <point x="479" y="645" type="line"/>
      <point x="479" y="223" type="line" smooth="yes"/>
      <point x="479" y="154"/>
      <point x="550" y="86"/>
      <point x="647" y="86" type="qcurve" smooth="yes"/>
      <point x="674" y="86" type="line"/>
      <point x="674" y="0" type="line"/>
      <point x="78" y="0" type="line"/>
      <point x="78" y="86" type="line"/>
      <point x="104" y="86" type="line" smooth="yes"/>
      <point x="201" y="86"/>
      <point x="272" y="154"/>
      <point x="272" y="223" type="qcurve" smooth="yes"/>
      <point x="272" y="645" type="line"/>
      <point x="41" y="645" type="line"/>
      <point x="41" y="741" type="line"/>
      <point x="272" y="741" type="line"/>
      <point x="272" y="1237" type="line" smooth="yes"/>
      <point x="272" y="1305"/>
      <point x="201" y="1376"/>
      <point x="104" y="1376" type="qcurve" smooth="yes"/>
      <point x="78" y="1376" type="line"/>
      <point x="78" y="1462" type="line"/>
      <point x="629" y="1462" type="line" smooth="yes"/>
      <point x="894" y="1462"/>
      <point x="1155" y="1265"/>
      <point x="1155" y="1067" type="qcurve" smooth="yes"/>
      <point x="1155" y="932"/>
      <point x="998" y="742"/>
      <point x="854" y="694" type="qcurve"/>
    </contour>
    <contour>
      <point x="479" y="741" type="line"/>
      <point x="623" y="741" type="line" smooth="yes"/>
      <point x="790" y="741"/>
      <point x="936" y="887"/>
      <point x="936" y="1061" type="qcurve" smooth="yes"/>
      <point x="936" y="1227"/>
      <point x="792" y="1364"/>
      <point x="618" y="1364" type="qcurve" smooth="yes"/>
      <point x="479" y="1364" type="line"/>
    </contour>
  </outline>
</glyph>
<glyph name="uni0250" format="2">
  <advance width="1153"/>
  <unicode hex="0250"/>
  <outline>
    <contour>
      <point x="791" y="305" type="qcurve"/>
      <point x="877" y="305"/>
      <point x="965" y="247"/>
      <point x="965" y="176" type="qcurve" smooth="yes"/>
      <point x="965" y="81"/>
      <point x="767" y="-20"/>
      <point x="596" y="-20" type="qcurve" smooth="yes"/>
      <point x="395" y="-20"/>
      <point x="221" y="150"/>
      <point x="221" y="334" type="qcurve" smooth="yes"/>
      <point x="221" y="864" type="line" smooth="yes"/>
      <point x="221" y="948"/>
      <point x="167" y="1012"/>
      <point x="96" y="1012" type="qcurve" smooth="yes"/>
      <point x="88" y="1012" type="line"/>
      <point x="88" y="1098" type="line"/>
      <point x="365" y="1098" type="line"/>
      <point x="397" y="922" type="line"/>
      <point x="414" y="922" type="line"/>
      <point x="477" y="1007"/>
      <point x="551" y="1075"/>
      <point x="655" y="1118"/>
      <point x="733" y="1118" type="qcurve" smooth="yes"/>
      <point x="882" y="1118"/>
      <point x="1051" y="947"/>
      <point x="1051" y="791" type="qcurve" smooth="yes"/>
      <point x="1051" y="627"/>
      <point x="819" y="470"/>
      <point x="584" y="463" type="qcurve" smooth="yes"/>
      <point x="414" y="457" type="line"/>
      <point x="414" y="334" type="line" smooth="yes"/>
      <point x="414" y="182"/>
      <point x="507" y="82"/>
      <point x="604" y="82" type="qcurve" smooth="yes"/>
      <point x="700" y="82"/>
      <point x="791" y="179"/>
    </contour>
    <contour>
      <point x="686" y="991" type="qcurve" smooth="yes"/>
      <point x="562" y="991"/>
      <point x="414" y="838"/>
      <point x="414" y="707" type="qcurve" smooth="yes"/>
      <point x="414" y="541" type="line"/>
      <point x="545" y="547" type="line" smooth="yes"/>
      <point x="707" y="554"/>
      <point x="852" y="670"/>
      <point x="852" y="801" type="qcurve" smooth="yes"/>
      <point x="852" y="896"/>
      <point x="771" y="991"/>
    </contour>
  </outline>
</glyph>
<glyph name="uni0254" format="2">
  <advance width="1008"/>
  <unicode hex="0254"/>
  <outline>
    <contour>
      <point x="696" y="545" type="qcurve" smooth="yes"/>
      <point x="696" y="785"/>
      <point x="578" y="1016"/>
      <point x="438" y="1016" type="qcurve" smooth="yes"/>
      <point x="349" y="1016"/>
      <point x="264" y="899"/>
      <point x="264" y="780" type="qcurve"/>
      <point x="173" y="780"/>
      <point x="82" y="838"/>
      <point x="82" y="909" type="qcurve" smooth="yes"/>
      <point x="82" y="1003"/>
      <point x="288" y="1118"/>
      <point x="438" y="1118" type="qcurve" smooth="yes"/>
      <point x="668" y="1118"/>
      <point x="895" y="830"/>
      <point x="895" y="543" type="qcurve" smooth="yes"/>
      <point x="895" y="269"/>
      <point x="658" y="-20"/>
      <point x="442" y="-20" type="qcurve" smooth="yes"/>
      <point x="263" y="-20"/>
      <point x="72" y="93"/>
      <point x="72" y="201" type="qcurve" smooth="yes"/>
      <point x="72" y="263"/>
      <point x="171" y="340"/>
      <point x="254" y="340" type="qcurve"/>
      <point x="254" y="194"/>
      <point x="327" y="82"/>
      <point x="440" y="82" type="qcurve" smooth="yes"/>
      <point x="561" y="82"/>
      <point x="696" y="321"/>
    </contour>
  </outline>
</glyph>
<glyph name="uni025D" format="2">
  <advance width="1239"/>
  <unicode hex="025D"/>
  <outline>
    <contour>
      <point x="690" y="319" type="qcurve" smooth="yes"/>
      <point x="690" y="423"/>
      <point x="563" y="520"/>
      <point x="451" y="520" type="qcurve" smooth="yes"/>
      <point x="260" y="520" type="line"/>
      <point x="260" y="631" type="line"/>
      <point x="453" y="631" type="line" smooth="yes"/>
      <point x="549" y="631"/>
      <point x="659" y="737"/>
      <point x="659" y="827" type="qcurve" smooth="yes"/>
      <point x="659" y="922"/>
      <point x="565" y="1022"/>
      <point x="475" y="1022" type="qcurve" smooth="yes"/>
      <point x="372" y="1022"/>
      <point x="264" y="904"/>
      <point x="264" y="801" type="qcurve"/>
      <point x="183" y="801"/>
      <point x="102" y="859"/>
      <point x="102" y="924" type="qcurve" smooth="yes"/>
      <point x="102" y="1009"/>
      <point x="301" y="1116"/>
      <point x="479" y="1116" type="qcurve" smooth="yes"/>
      <point x="612" y="1116"/>
      <point x="792" y="1032"/>
      <point x="829" y="956" type="qcurve"/>
      <point x="885" y="973" type="line"/>
      <point x="936" y="795" type="line" smooth="yes"/>
      <point x="955" y="732"/>
      <point x="1013" y="680"/>
      <point x="1049" y="680" type="qcurve" smooth="yes"/>
      <point x="1087" y="680"/>
      <point x="1145" y="719"/>
      <point x="1163" y="748" type="qcurve"/>
      <point x="1188" y="734"/>
      <point x="1219" y="680"/>
      <point x="1219" y="649" type="qcurve" smooth="yes"/>
      <point x="1219" y="597"/>
      <point x="1127" y="520"/>
      <point x="1059" y="520" type="qcurve" smooth="yes"/>
      <point x="975" y="520"/>
      <point x="873" y="625"/>
      <point x="836" y="750" type="qcurve"/>
      <point x="813" y="690"/>
      <point x="713" y="603"/>
      <point x="647" y="582" type="qcurve"/>
      <point x="647" y="571" type="line"/>
      <point x="772" y="540"/>
      <point x="889" y="412"/>
      <point x="889" y="317" type="qcurve" smooth="yes"/>
      <point x="889" y="160"/>
      <point x="662" y="-20"/>
      <point x="449" y="-20" type="qcurve" smooth="yes"/>
      <point x="271" y="-20"/>
      <point x="82" y="100"/>
      <point x="82" y="201" type="qcurve" smooth="yes"/>
      <point x="82" y="332"/>
      <point x="233" y="332" type="qcurve"/>
      <point x="233" y="215"/>
      <point x="353" y="78"/>
      <point x="459" y="78" type="qcurve" smooth="yes"/>
      <point x="577" y="78"/>
      <point x="690" y="207"/>
    </contour>
    <contour>
      <point x="1001" y="0" type="line"/>
    </contour>
    <contour>
      <point x="854" y="832" type="line"/>
    </contour>
  </outline>
</glyph>
<glyph name="uni0268" format="2">
  <advance width="655"/>
  <unicode hex="0268"/>
  <outline>
    <contour>
      <point x="74" y="86" type="line" smooth="yes"/>
      <point x="171" y="86"/>
      <point x="242" y="154"/>
      <point x="242" y="223" type="qcurve" smooth="yes"/>
      <point x="242" y="535" type="line"/>
      <point x="20" y="535" type="line"/>
      <point x="20" y="631" type="line"/>
      <point x="242" y="631" type="line"/>
      <point x="242" y="872" type="line" smooth="yes"/>
      <point x="242" y="941"/>
      <point x="169" y="1012"/>
      <point x="76" y="1012" type="qcurve" smooth="yes"/>
      <point x="68" y="1012" type="line"/>
      <point x="68" y="1098" type="line"/>
      <point x="434" y="1098" type="line"/>
      <point x="434" y="631" type="line"/>
      <point x="635" y="631" type="line"/>
      <point x="635" y="535" type="line"/>
      <point x="434" y="535" type="line"/>
      <point x="434" y="233" type="line" smooth="yes"/>
      <point x="434" y="160"/>
      <point x="505" y="86"/>
      <point x="602" y="86" type="qcurve" smooth="yes"/>
      <point x="629" y="86" type="line"/>
      <point x="629" y="0" type="line"/>
      <point x="47" y="0" type="line"/>
      <point x="47" y="86" type="line"/>
    </contour>
    <contour>
      <point x="330" y="1556" type="qcurve" smooth="yes"/>
      <point x="390" y="1556"/>
      <point x="446" y="1489"/>
      <point x="446" y="1430" type="qcurve" smooth="yes"/>
      <point x="446" y="1370"/>
      <point x="387" y="1303"/>
      <point x="330" y="1303" type="qcurve" smooth="yes"/>
      <point x="272" y="1303"/>
      <point x="213" y="1368"/>
      <point x="213" y="1430" type="qcurve" smooth="yes"/>
      <point x="213" y="1490"/>
      <point x="269" y="1556"/>
    </contour>
  </outline>
</glyph>
<glyph name="uni026F" format="2">
  <advance width="1935"/>
  <unicode hex="026F"/>
  <outline>
    <contour>
      <point x="1327" y="1012" type="line"/>
      <point x="1327" y="1098" type="line"/>
      <point x="1878" y="1098" type="line"/>
      <point x="1878" y="1012" type="line"/>
      <point x="1851" y="1012" type="line" smooth="yes"/>
      <point x="1758" y="1012"/>
      <point x="1694" y="940"/>
      <point x="1694" y="864" type="qcurve" smooth="yes"/>
      <point x="1694" y="225" type="line" smooth="yes"/>
      <point x="1694" y="156"/>
      <point x="1756" y="86"/>
      <point x="1849" y="86" type="qcurve" smooth="yes"/>
      <point x="1858" y="86" type="line"/>
      <point x="1858" y="0" type="line"/>
      <point x="1536" y="0" type="line"/>
      <point x="1509" y="166" type="line"/>
      <point x="1499" y="166" type="line"/>
      <point x="1447" y="69"/>
      <point x="1308" y="-20"/>
      <point x="1190" y="-20" type="qcurve" smooth="yes"/>
      <point x="1078" y="-20"/>
      <point x="927" y="75"/>
      <point x="893" y="166" type="qcurve"/>
      <point x="877" y="166" type="line"/>
      <point x="826" y="70"/>
      <point x="676" y="-20"/>
      <point x="555" y="-20" type="qcurve" smooth="yes"/>
      <point x="388" y="-20"/>
      <point x="221" y="183"/>
      <point x="221" y="381" type="qcurve" smooth="yes"/>
      <point x="221" y="864" type="line" smooth="yes"/>
      <point x="221" y="938"/>
      <point x="159" y="1012"/>
      <point x="66" y="1012" type="qcurve" smooth="yes"/>
      <point x="57" y="1012" type="line"/>
      <point x="57" y="1098" type="line"/>
      <point x="414" y="1098" type="line"/>
      <point x="414" y="391" type="line" smooth="yes"/>
      <point x="414" y="247"/>
      <point x="518" y="111"/>
      <point x="629" y="111" type="qcurve" smooth="yes"/>
      <point x="740" y="111"/>
      <point x="856" y="269"/>
      <point x="856" y="416" type="qcurve" smooth="yes"/>
      <point x="856" y="864" type="line" smooth="yes"/>
      <point x="856" y="939"/>
      <point x="793" y="1012"/>
      <point x="700" y="1012" type="qcurve" smooth="yes"/>
      <point x="692" y="1012" type="line"/>
      <point x="692" y="1098" type="line"/>
      <point x="1049" y="1098" type="line"/>
      <point x="1049" y="391" type="line" smooth="yes"/>
      <point x="1049" y="247"/>
      <point x="1153" y="111"/>
      <point x="1264" y="111" type="qcurve" smooth="yes"/>
      <point x="1379" y="111"/>
      <point x="1501" y="283"/>
      <point x="1501" y="442" type="qcurve" smooth="yes"/>
      <point x="1501" y="874" type="line" smooth="yes"/>
      <point x="1501" y="942"/>
      <point x="1432" y="1012"/>
      <point x="1335" y="1012" type="qcurve" smooth="yes"/>
    </contour>
  </outline>
</glyph>
<glyph name="uni0271" format="2">
  <advance width="1935"/>
  <unicode hex="0271"/>
  <outline>
    <contour>
      <point x="1522" y="707" type="line" smooth="yes"/>
      <point x="1522" y="851"/>
      <point x="1418" y="987"/>
      <point x="1307" y="987" type="qcurve" smooth="yes"/>
      <point x="1196" y="987"/>
      <point x="1079" y="829"/>
      <point x="1079" y="682" type="qcurve" smooth="yes"/>
      <point x="1079" y="233" type="line" smooth="yes"/>
      <point x="1079" y="157"/>
      <point x="1144" y="86"/>
      <point x="1237" y="86" type="qcurve" smooth="yes"/>
      <point x="1243" y="86" type="line"/>
      <point x="1243" y="0" type="line"/>
      <point x="887" y="0" type="line"/>
      <point x="887" y="707" type="line" smooth="yes"/>
      <point x="887" y="851"/>
      <point x="783" y="987"/>
      <point x="672" y="987" type="qcurve" smooth="yes"/>
      <point x="556" y="987"/>
      <point x="434" y="814"/>
      <point x="434" y="655" type="qcurve" smooth="yes"/>
      <point x="434" y="223" type="line" smooth="yes"/>
      <point x="434" y="154"/>
      <point x="505" y="86"/>
      <point x="602" y="86" type="qcurve" smooth="yes"/>
      <point x="608" y="86" type="line"/>
      <point x="608" y="0" type="line"/>
      <point x="57" y="0" type="line"/>
      <point x="57" y="86" type="line"/>
      <point x="84" y="86" type="line" smooth="yes"/>
      <point x="177" y="86"/>
      <point x="242" y="158"/>
      <point x="242" y="233" type="qcurve" smooth="yes"/>
      <point x="242" y="872" type="line" smooth="yes"/>
      <point x="242" y="943"/>
      <point x="175" y="1012"/>
      <point x="84" y="1012" type="qcurve" smooth="yes"/>
      <point x="78" y="1012" type="line"/>
      <point x="78" y="1098" type="line"/>
      <point x="399" y="1098" type="line"/>
      <point x="426" y="932" type="line"/>
      <point x="436" y="932" type="line"/>
      <point x="489" y="1030"/>
      <point x="627" y="1118"/>
      <point x="745" y="1118" type="qcurve" smooth="yes"/>
      <point x="857" y="1118"/>
      <point x="1008" y="1023"/>
      <point x="1042" y="932" type="qcurve"/>
      <point x="1059" y="932" type="line"/>
      <point x="1111" y="1027"/>
      <point x="1258" y="1118"/>
      <point x="1380" y="1118" type="qcurve" smooth="yes"/>
      <point x="1544" y="1118"/>
      <point x="1714" y="917"/>
      <point x="1714" y="717" type="qcurve" smooth="yes"/>
      <point x="1714" y="-16" type="line" smooth="yes"/>
      <point x="1714" y="-251"/>
      <point x="1551" y="-492"/>
      <point x="1393" y="-492" type="qcurve" smooth="yes"/>
      <point x="1269" y="-492"/>
      <point x="1126" y="-405"/>
      <point x="1126" y="-330" type="qcurve" smooth="yes"/>
      <point x="1126" y="-274"/>
      <point x="1203" y="-195"/>
      <point x="1284" y="-193" type="qcurve"/>
      <point x="1284" y="-298"/>
      <point x="1338" y="-397"/>
      <point x="1391" y="-397" type="qcurve" smooth="yes"/>
      <point x="1466" y="-397"/>
      <point x="1522" y="-215"/>
      <point x="1522" y="-18" type="qcurve" smooth="yes"/>
    </contour>
  </outline>
</glyph>
<glyph name="uni0276" format="2">
  <advance width="1618"/>
  <unicode hex="0276"/>
  <outline>
    <contour>
      <point x="788" y="0" type="line"/>
      <point x="743" y="-12"/>
      <point x="645" y="-20"/>
      <point x="588" y="-20" type="qcurve" smooth="yes"/>
      <point x="358" y="-20"/>
      <point x="113" y="272"/>
      <point x="113" y="551" type="qcurve" smooth="yes"/>
      <point x="113" y="838"/>
      <point x="355" y="1118"/>
      <point x="594" y="1118" type="qcurve" smooth="yes"/>
      <point x="648" y="1118"/>
      <point x="745" y="1110"/>
      <point x="788" y="1098" type="qcurve"/>
      <point x="1464" y="1098" type="line"/>
      <point x="1477" y="770" type="line"/>
      <point x="1389" y="770" type="line"/>
      <point x="1378" y="838" type="line" smooth="yes"/>
      <point x="1361" y="941"/>
      <point x="1302" y="1004"/>
      <point x="1235" y="1004" type="qcurve" smooth="yes"/>
      <point x="971" y="1004" type="line"/>
      <point x="971" y="621" type="line"/>
      <point x="1358" y="621" type="line"/>
      <point x="1358" y="524" type="line"/>
      <point x="971" y="524" type="line"/>
      <point x="971" y="94" type="line"/>
      <point x="1249" y="94" type="line" smooth="yes"/>
      <point x="1345" y="94"/>
      <point x="1423" y="158"/>
      <point x="1436" y="260" type="qcurve" smooth="yes"/>
      <point x="1444" y="328" type="line"/>
      <point x="1532" y="328" type="line"/>
      <point x="1520" y="0" type="line"/>
    </contour>
    <contour>
      <point x="788" y="106" type="qcurve"/>
      <point x="788" y="977" type="line"/>
      <point x="748" y="1000"/>
      <point x="646" y="1016"/>
      <point x="590" y="1016" type="qcurve" smooth="yes"/>
      <point x="445" y="1016"/>
      <point x="311" y="794"/>
      <point x="311" y="551" type="qcurve" smooth="yes"/>
      <point x="311" y="306"/>
      <point x="447" y="80"/>
      <point x="592" y="80" type="qcurve" smooth="yes"/>
      <point x="647" y="80"/>
      <point x="748" y="86"/>
    </contour>
  </outline>
</glyph>
<glyph name="uni0279" format="2">
  <advance width="965"/>
  <unicode hex="0279"/>
  <outline>
    <contour>
      <point x="305" y="1098" type="line"/>
      <point x="897" y="1098" type="line"/>
      <point x="897" y="1012" type="line"/>
      <point x="889" y="1012" type="line" smooth="yes"/>
      <point x="793" y="1012"/>
      <point x="723" y="939"/>
      <point x="723" y="864" type="qcurve" smooth="yes"/>
      <point x="723" y="225" type="line" smooth="yes"/>
      <point x="723" y="158"/>
      <point x="792" y="86"/>
      <point x="889" y="86" type="qcurve" smooth="yes"/>
      <point x="897" y="86" type="line"/>
      <point x="897" y="0" type="line"/>
      <point x="582" y="0" type="line"/>
      <point x="543" y="203" type="line"/>
      <point x="532" y="203" type="line"/>
      <point x="489" y="105"/>
      <point x="428" y="28"/>
      <point x="330" y="-20"/>
      <point x="252" y="-20" type="qcurve" smooth="yes"/>
      <point x="139" y="-20"/>
      <point x="31" y="58"/>
      <point x="31" y="129" type="qcurve" smooth="yes"/>
      <point x="31" y="200"/>
      <point x="126" y="274"/>
      <point x="221" y="274" type="qcurve"/>
      <point x="221" y="191"/>
      <point x="270" y="115"/>
      <point x="330" y="115" type="qcurve" smooth="yes"/>
      <point x="423" y="115"/>
      <point x="530" y="379"/>
      <point x="530" y="553" type="qcurve" smooth="yes"/>
      <point x="530" y="874" type="line" smooth="yes"/>
      <point x="530" y="943"/>
      <point x="459" y="1012"/>
      <point x="362" y="1012" type="qcurve" smooth="yes"/>
      <point x="305" y="1012" type="line"/>
    </contour>
  </outline>
</glyph>
<glyph name="uni027B" format="2">
  <advance width="965"/>
  <unicode hex="027B"/>
  <outline>
    <contour>
      <point x="723" y="-180" type="line" smooth="yes"/>
      <point x="723" y="-285"/>
      <point x="807" y="-383"/>
      <point x="879" y="-383" type="qcurve" smooth="yes"/>
      <point x="916" y="-383"/>
      <point x="978" y="-375"/>
      <point x="1010" y="-369" type="qcurve"/>
      <point x="1010" y="-459" type="line"/>
      <point x="981" y="-472"/>
      <point x="870" y="-492"/>
      <point x="827" y="-492" type="qcurve" smooth="yes"/>
      <point x="665" y="-492"/>
      <point x="530" y="-344"/>
      <point x="530" y="-174" type="qcurve" smooth="yes"/>
      <point x="530" y="0" type="line" smooth="yes"/>
      <point x="530" y="51"/>
      <point x="538" y="152"/>
      <point x="543" y="203" type="qcurve"/>
      <point x="532" y="203" type="line"/>
      <point x="489" y="105"/>
      <point x="428" y="28"/>
      <point x="330" y="-20"/>
      <point x="252" y="-20" type="qcurve" smooth="yes"/>
      <point x="139" y="-20"/>
      <point x="31" y="58"/>
      <point x="31" y="129" type="qcurve" smooth="yes"/>
      <point x="31" y="200"/>
      <point x="126" y="274"/>
      <point x="221" y="274" type="qcurve"/>
      <point x="221" y="191"/>
      <point x="270" y="115"/>
      <point x="330" y="115" type="qcurve" smooth="yes"/>
      <point x="423" y="115"/>
      <point x="530" y="379"/>
      <point x="530" y="553" type="qcurve" smooth="yes"/>
      <point x="530" y="874" type="line" smooth="yes"/>
      <point x="530" y="943"/>
      <point x="459" y="1012"/>
      <point x="362" y="1012" type="qcurve" smooth="yes"/>
      <point x="305" y="1012" type="line"/>
      <point x="305" y="1098" type="line"/>
      <point x="897" y="1098" type="line"/>
      <point x="897" y="1012" type="line"/>
      <point x="889" y="1012" type="line" smooth="yes"/>
      <point x="793" y="1012"/>
      <point x="723" y="939"/>
      <point x="723" y="864" type="qcurve" smooth="yes"/>
    </contour>
  </outline>
</glyph>
<glyph name="uni0282" format="2">
  <advance width="924"/>
  <unicode hex="0282"/>
  <outline>
    <contour>
      <point x="201" y="-100" type="line" smooth="yes"/>
      <point x="201" y="-172"/>
      <point x="258" y="-248"/>
      <point x="319" y="-248" type="qcurve" smooth="yes"/>
      <point x="353" y="-248"/>
      <point x="401" y="-232"/>
      <point x="426" y="-215" type="qcurve"/>
      <point x="440" y="-229"/>
      <point x="457" y="-266"/>
      <point x="457" y="-291" type="qcurve" smooth="yes"/>
      <point x="457" y="-347"/>
      <point x="373" y="-403"/>
      <point x="301" y="-403" type="qcurve" smooth="yes"/>
      <point x="194" y="-403"/>
      <point x="92" y="-256"/>
      <point x="92" y="-100" type="qcurve" smooth="yes"/>
      <point x="92" y="197" type="line" smooth="yes"/>
      <point x="92" y="263"/>
      <point x="168" y="338"/>
      <point x="221" y="338" type="qcurve"/>
      <point x="221" y="209"/>
      <point x="334" y="78"/>
      <point x="442" y="78" type="qcurve" smooth="yes"/>
      <point x="549" y="78"/>
      <point x="668" y="180"/>
      <point x="668" y="264" type="qcurve" smooth="yes"/>
      <point x="668" y="347"/>
      <point x="544" y="433"/>
      <point x="235" y="566"/>
      <point x="106" y="708"/>
      <point x="106" y="827" type="qcurve" smooth="yes"/>
      <point x="106" y="964"/>
      <point x="315" y="1116"/>
      <point x="492" y="1116" type="qcurve" smooth="yes"/>
      <point x="628" y="1116"/>
      <point x="791" y="1011"/>
      <point x="791" y="928" type="qcurve" smooth="yes"/>
      <point x="791" y="872"/>
      <point x="714" y="805"/>
      <point x="643" y="805" type="qcurve"/>
      <point x="643" y="908"/>
      <point x="558" y="1022"/>
      <point x="467" y="1022" type="qcurve" smooth="yes"/>
      <point x="370" y="1022"/>
      <point x="272" y="936"/>
      <point x="272" y="858" type="qcurve" smooth="yes"/>
      <point x="272" y="762"/>
      <point x="464" y="665"/>
      <point x="694" y="570"/>
      <point x="834" y="426"/>
      <point x="834" y="301" type="qcurve" smooth="yes"/>
      <point x="834" y="150"/>
      <point x="622" y="-20"/>
      <point x="430" y="-20" type="qcurve" smooth="yes"/>
      <point x="359" y="-20"/>
      <point x="239" y="14"/>
      <point x="201" y="45" type="qcurve"/>
    </contour>
  </outline>
</glyph>
<glyph name="uni0283" format="2">
  <advance width="684"/>
  <unicode hex="0283"/>
  <outline>
    <contour>
      <point x="438" y="-16" type="line" smooth="yes"/>
      <point x="438" y="-251"/>
      <point x="275" y="-492"/>
      <point x="117" y="-492" type="qcurve" smooth="yes"/>
      <point x="-7" y="-492"/>
      <point x="-150" y="-405"/>
      <point x="-150" y="-330" type="qcurve" smooth="yes"/>
      <point x="-150" y="-274"/>
      <point x="-73" y="-195"/>
      <point x="8" y="-193" type="qcurve"/>
      <point x="8" y="-298"/>
      <point x="62" y="-389"/>
      <point x="115" y="-389" type="qcurve" smooth="yes"/>
      <point x="194" y="-389"/>
      <point x="246" y="-204"/>
      <point x="246" y="-18" type="qcurve" smooth="yes"/>
      <point x="246" y="1157" type="line" smooth="yes"/>
      <point x="246" y="1366"/>
      <point x="414" y="1567"/>
      <point x="588" y="1567" type="qcurve" smooth="yes"/>
      <point x="699" y="1567"/>
      <point x="827" y="1475"/>
      <point x="827" y="1405" type="qcurve" smooth="yes"/>
      <point x="827" y="1354"/>
      <point x="751" y="1288"/>
      <point x="670" y="1288" type="qcurve"/>
      <point x="670" y="1376"/>
      <point x="614" y="1473"/>
      <point x="563" y="1473" type="qcurve" smooth="yes"/>
      <point x="493" y="1473"/>
      <point x="438" y="1379"/>
      <point x="438" y="1243" type="qcurve" smooth="yes"/>
    </contour>
  </outline>
</glyph>
<glyph name="uni0286" format="2">
  <advance width="684"/>
  <unicode hex="0286"/>
  <outline>
    <contour>
      <point x="438" y="-55" type="line"/>
      <point x="511" y="-102"/>
      <point x="624" y="-247"/>
      <point x="659" y="-346" type="qcurve"/>
      <point x="557" y="-389" type="line"/>
      <point x="535" y="-327"/>
      <point x="472" y="-229"/>
      <point x="434" y="-190" type="qcurve"/>
      <point x="419" y="-347"/>
      <point x="272" y="-492"/>
      <point x="133" y="-492" type="qcurve" smooth="yes"/>
      <point x="21" y="-492"/>
      <point x="-127" y="-347"/>
      <point x="-127" y="-225" type="qcurve" smooth="yes"/>
      <point x="-127" y="-118"/>
      <point x="27" y="20"/>
      <point x="168" y="20" type="qcurve" smooth="yes"/>
      <point x="188" y="20"/>
      <point x="226" y="17"/>
      <point x="246" y="14" type="qcurve"/>
      <point x="246" y="1157" type="line" smooth="yes"/>
      <point x="246" y="1366"/>
      <point x="414" y="1567"/>
      <point x="588" y="1567" type="qcurve" smooth="yes"/>
      <point x="699" y="1567"/>
      <point x="827" y="1475"/>
      <point x="827" y="1405" type="qcurve" smooth="yes"/>
      <point x="827" y="1354"/>
      <point x="751" y="1288"/>
      <point x="670" y="1288" type="qcurve"/>
      <point x="670" y="1376"/>
      <point x="614" y="1473"/>
      <point x="563" y="1473" type="qcurve" smooth="yes"/>
      <point x="493" y="1473"/>
      <point x="438" y="1379"/>
      <point x="438" y="1243" type="qcurve" smooth="yes"/>
    </contour>
    <contour>
      <point x="246" y="-150" type="qcurve" smooth="yes"/>
      <point x="246" y="-90" type="line"/>
      <point x="226" y="-85"/>
      <point x="183" y="-82"/>
      <point x="162" y="-82" type="qcurve" smooth="yes"/>
      <point x="75" y="-82"/>
      <point x="-16" y="-158"/>
      <point x="-16" y="-225" type="qcurve" smooth="yes"/>
      <point x="-16" y="-294"/>
      <point x="56" y="-375"/>
      <point x="115" y="-375" type="qcurve" smooth="yes"/>
      <point x="186" y="-375"/>
      <point x="246" y="-268"/>
    </contour>
  </outline>
</glyph>
<glyph name="uni0287" format="2">
  <advance width="721"/>
  <unicode hex="0287"/>
  <outline>
    <contour>
      <point x="47" y="995" type="qcurve"/>
      <point x="47" y="1085" type="line"/>
      <point x="76" y="1098"/>
      <point x="186" y="1118"/>
      <point x="229" y="1118" type="qcurve" smooth="yes"/>
      <point x="394" y="1118"/>
      <point x="526" y="968"/>
      <point x="526" y="801" type="qcurve" smooth="yes"/>
      <point x="526" y="117" type="line"/>
      <point x="682" y="117" type="line"/>
      <point x="682" y="35" type="line"/>
      <point x="599" y="35"/>
      <point x="463" y="-80"/>
      <point x="428" y="-252" type="qcurve"/>
      <point x="334" y="-252" type="line"/>
      <point x="334" y="0" type="line"/>
      <point x="66" y="0" type="line"/>
      <point x="66" y="117" type="line"/>
      <point x="334" y="117" type="line"/>
      <point x="334" y="807" type="line" smooth="yes"/>
      <point x="334" y="912"/>
      <point x="249" y="1010"/>
      <point x="178" y="1010" type="qcurve" smooth="yes"/>
      <point x="141" y="1010"/>
      <point x="79" y="1002"/>
    </contour>
  </outline>
</glyph>
<glyph name="uni02A0" format="2">
  <advance width="1282"/>
  <unicode hex="02A0"/>
  <outline>
    <contour>
      <point x="844" y="1157" type="line" smooth="yes"/>
      <point x="844" y="1366"/>
      <point x="1012" y="1567"/>
      <point x="1186" y="1567" type="qcurve" smooth="yes"/>
      <point x="1297" y="1567"/>
      <point x="1425" y="1475"/>
      <point x="1425" y="1405" type="qcurve" smooth="yes"/>
      <point x="1425" y="1354"/>
      <point x="1349" y="1288"/>
      <point x="1268" y="1288" type="qcurve"/>
      <point x="1268" y="1376"/>
      <point x="1212" y="1473"/>
      <point x="1161" y="1473" type="qcurve" smooth="yes"/>
      <point x="1091" y="1473"/>
      <point x="1036" y="1379"/>
      <point x="1036" y="1243" type="qcurve" smooth="yes"/>
      <point x="1036" y="-266" type="line" smooth="yes"/>
      <point x="1036" y="-336"/>
      <point x="1110" y="-406"/>
      <point x="1204" y="-406" type="qcurve" smooth="yes"/>
      <point x="1221" y="-406" type="line"/>
      <point x="1221" y="-492" type="line"/>
      <point x="608" y="-492" type="line"/>
      <point x="608" y="-406" type="line"/>
      <point x="676" y="-406" type="line" smooth="yes"/>
      <point x="773" y="-406"/>
      <point x="844" y="-331"/>
      <point x="844" y="-258" type="qcurve" smooth="yes"/>
      <point x="844" y="-82" type="line" smooth="yes"/>
      <point x="844" y="-13"/>
      <point x="849" y="108"/>
      <point x="852" y="184" type="qcurve"/>
      <point x="844" y="184" type="line"/>
      <point x="793" y="79"/>
      <point x="638" y="-20"/>
      <point x="530" y="-20" type="qcurve" smooth="yes"/>
      <point x="321" y="-20"/>
      <point x="113" y="260"/>
      <point x="113" y="547" type="qcurve" smooth="yes"/>
      <point x="113" y="835"/>
      <point x="320" y="1118"/>
      <point x="530" y="1118" type="qcurve" smooth="yes"/>
      <point x="636" y="1118"/>
      <point x="791" y="1030"/>
      <point x="844" y="938" type="qcurve"/>
      <point x="856" y="938" type="line"/>
      <point x="853" y="978"/>
      <point x="844" y="1058"/>
      <point x="844" y="1102" type="qcurve" smooth="yes"/>
    </contour>
    <contour>
      <point x="844" y="547" type="qcurve" smooth="yes"/>
      <point x="844" y="787"/>
      <point x="709" y="987"/>
      <point x="563" y="987" type="qcurve" smooth="yes"/>
      <point x="435" y="987"/>
      <point x="311" y="772"/>
      <point x="311" y="545" type="qcurve" smooth="yes"/>
      <point x="311" y="317"/>
      <point x="434" y="111"/>
      <point x="565" y="111" type="qcurve" smooth="yes"/>
      <point x="714" y="111"/>
      <point x="844" y="305"/>
    </contour>
  </outline>
</glyph>
<glyph name="uni02A8" format="2">
  <advance width="1606"/>
  <unicode hex="02A8"/>
  <outline>
    <contour>
      <point x="870" y="340" type="qcurve"/>
      <point x="954" y="426"/>
      <point x="1130" y="504"/>
      <point x="1249" y="504" type="qcurve" smooth="yes"/>
      <point x="1372" y="504"/>
      <point x="1513" y="380"/>
      <point x="1513" y="281" type="qcurve" smooth="yes"/>
      <point x="1513" y="149"/>
      <point x="1304" y="-20"/>
      <point x="1139" y="-20" type="qcurve" smooth="yes"/>
      <point x="1035" y="-20"/>
      <point x="859" y="41"/>
      <point x="793" y="111" type="qcurve"/>
      <point x="721" y="39"/>
      <point x="577" y="-20"/>
      <point x="492" y="-20" type="qcurve" smooth="yes"/>
      <point x="329" y="-20"/>
      <point x="195" y="127"/>
      <point x="195" y="297" type="qcurve" smooth="yes"/>
      <point x="195" y="981" type="line"/>
      <point x="39" y="981" type="line"/>
      <point x="39" y="1063" type="line"/>
      <point x="136" y="1063"/>
      <point x="262" y="1205"/>
      <point x="293" y="1350" type="qcurve"/>
      <point x="387" y="1350" type="line"/>
      <point x="387" y="1098" type="line"/>
      <point x="655" y="1098" type="line"/>
      <point x="655" y="981" type="line"/>
      <point x="387" y="981" type="line"/>
      <point x="387" y="291" type="line" smooth="yes"/>
      <point x="387" y="197"/>
      <point x="461" y="88"/>
      <point x="526" y="88" type="qcurve" smooth="yes"/>
      <point x="591" y="88"/>
      <point x="690" y="145"/>
      <point x="733" y="188" type="qcurve"/>
      <point x="693" y="253"/>
      <point x="651" y="428"/>
      <point x="651" y="543" type="qcurve" smooth="yes"/>
      <point x="651" y="829"/>
      <point x="877" y="1118"/>
      <point x="1108" y="1118" type="qcurve" smooth="yes"/>
      <point x="1258" y="1118"/>
      <point x="1464" y="1003"/>
      <point x="1464" y="909" type="qcurve" smooth="yes"/>
      <point x="1464" y="838"/>
      <point x="1373" y="780"/>
      <point x="1282" y="780" type="qcurve"/>
      <point x="1282" y="899"/>
      <point x="1197" y="1016"/>
      <point x="1108" y="1016" type="qcurve" smooth="yes"/>
      <point x="968" y="1016"/>
      <point x="850" y="785"/>
      <point x="850" y="545" type="qcurve" smooth="yes"/>
      <point x="850" y="485"/>
      <point x="859" y="383"/>
    </contour>
    <contour>
      <point x="907" y="240" type="qcurve"/>
      <point x="944" y="174"/>
      <point x="1058" y="113"/>
      <point x="1145" y="113" type="qcurve" smooth="yes"/>
      <point x="1266" y="113"/>
      <point x="1395" y="205"/>
      <point x="1395" y="279" type="qcurve" smooth="yes"/>
      <point x="1395" y="344"/>
      <point x="1315" y="401"/>
      <point x="1243" y="401" type="qcurve" smooth="yes"/>
      <point x="1144" y="401"/>
      <point x="994" y="336"/>
    </contour>
  </outline>
</glyph>
<glyph name="uni02AB" format="2">
  <advance width="1346"/>
  <unicode hex="02AB"/>
  <outline>
    <contour>
      <point x="53" y="86" type="line" smooth="yes"/>
      <point x="150" y="86"/>
      <point x="221" y="160"/>
      <point x="221" y="233" type="qcurve" smooth="yes"/>
      <point x="221" y="1331" type="line" smooth="yes"/>
      <point x="221" y="1399"/>
      <point x="150" y="1470"/>
      <point x="53" y="1470" type="qcurve" smooth="yes"/>
      <point x="27" y="1470" type="line"/>
      <point x="27" y="1556" type="line"/>
      <point x="414" y="1556" type="line"/>
      <point x="414" y="1098" type="line"/>
      <point x="1219" y="1098" type="line"/>
      <point x="1219" y="1014" type="line"/>
      <point x="623" y="117" type="line"/>
      <point x="995" y="117" type="line" smooth="yes"/>
      <point x="1048" y="117"/>
      <point x="1114" y="186"/>
      <point x="1135" y="285" type="qcurve" smooth="yes"/>
      <point x="1145" y="332" type="line"/>
      <point x="1231" y="332" type="line"/>
      <point x="1221" y="0" type="line"/>
      <point x="27" y="0" type="line"/>
      <point x="27" y="86" type="line"/>
    </contour>
    <contour>
      <point x="414" y="125" type="line"/>
      <point x="979" y="981" type="line"/>
      <point x="414" y="981" type="line"/>
    </contour>
  </outline>
</glyph>
<glyph name="uni02AC" format="2">
  <advance width="1143"/>
  <unicode hex="02AC"/>
  <outline>
    <contour>
      <point x="877" y="481" type="line" smooth="yes"/>
      <point x="882" y="497"/>
      <point x="889" y="541"/>
      <point x="889" y="553" type="qcurve" smooth="yes"/>
      <point x="889" y="610"/>
      <point x="805" y="610" type="qcurve" smooth="yes"/>
      <point x="778" y="610" type="line"/>
      <point x="778" y="686" type="line"/>
      <point x="1133" y="686" type="line"/>
      <point x="1133" y="610" type="line"/>
      <point x="1081" y="610" type="line" smooth="yes"/>
      <point x="1046" y="610"/>
      <point x="1002" y="561"/>
      <point x="985" y="504" type="qcurve" smooth="yes"/>
      <point x="825" y="0" type="line"/>
      <point x="713" y="0" type="line"/>
      <point x="588" y="362" type="line" smooth="yes"/>
      <point x="580" y="384"/>
      <point x="566" y="436"/>
      <point x="563" y="461" type="qcurve"/>
      <point x="555" y="461" type="line"/>
      <point x="397" y="0" type="line"/>
      <point x="285" y="0" type="line"/>
      <point x="123" y="537" type="line" smooth="yes"/>
      <point x="111" y="575"/>
      <point x="56" y="610"/>
      <point x="10" y="610" type="qcurve"/>
      <point x="10" y="686" type="line"/>
      <point x="391" y="686" type="line"/>
      <point x="391" y="610" type="line"/>
      <point x="360" y="610" type="line" smooth="yes"/>
      <point x="322" y="610"/>
      <point x="283" y="587"/>
      <point x="283" y="559" type="qcurve" smooth="yes"/>
      <point x="283" y="544"/>
      <point x="298" y="480"/>
      <point x="298" y="477" type="qcurve"/>
      <point x="330" y="362" type="line" smooth="yes"/>
      <point x="336" y="339"/>
      <point x="362" y="232"/>
      <point x="369" y="193" type="qcurve"/>
      <point x="377" y="193" type="line"/>
      <point x="377" y="197"/>
      <point x="408" y="312"/>
      <point x="422" y="350" type="qcurve" smooth="yes"/>
      <point x="537" y="676" type="line"/>
      <point x="627" y="676" type="line"/>
      <point x="739" y="358" type="line" smooth="yes"/>
      <point x="750" y="327"/>
      <point x="773" y="244"/>
      <point x="788" y="188" type="qcurve"/>
      <point x="797" y="188" type="line"/>
      <point x="805" y="222"/>
      <point x="827" y="311"/>
      <point x="838" y="348" type="qcurve" smooth="yes"/>
    </contour>
    <contour>
      <point x="877" y="1257" type="line" smooth="yes"/>
      <point x="882" y="1273"/>
      <point x="889" y="1317"/>
      <point x="889" y="1329" type="qcurve" smooth="yes"/>
      <point x="889" y="1386"/>
      <point x="805" y="1386" type="qcurve" smooth="yes"/>
      <point x="778" y="1386" type="line"/>
      <point x="778" y="1462" type="line"/>
      <point x="1133" y="1462" type="line"/>
      <point x="1133" y="1386" type="line"/>
      <point x="1081" y="1386" type="line" smooth="yes"/>
      <point x="1046" y="1386"/>
      <point x="1002" y="1337"/>
      <point x="985" y="1280" type="qcurve" smooth="yes"/>
      <point x="825" y="776" type="line"/>
      <point x="713" y="776" type="line"/>
      <point x="588" y="1139" type="line" smooth="yes"/>
      <point x="580" y="1160"/>
      <point x="566" y="1212"/>
      <point x="563" y="1237" type="qcurve"/>
      <point x="555" y="1237" type="line"/>
      <point x="397" y="776" type="line"/>
      <point x="285" y="776" type="line"/>
      <point x="123" y="1313" type="line" smooth="yes"/>
      <point x="111" y="1351"/>
      <point x="56" y="1386"/>
      <point x="10" y="1386" type="qcurve"/>
      <point x="10" y="1462" type="line"/>
      <point x="391" y="1462" type="line"/>
      <point x="391" y="1386" type="line"/>
      <point x="360" y="1386" type="line" smooth="yes"/>
      <point x="322" y="1386"/>
      <point x="283" y="1363"/>
      <point x="283" y="1335" type="qcurve" smooth="yes"/>
      <point x="283" y="1320"/>
      <point x="298" y="1256"/>
      <point x="298" y="1253" type="qcurve"/>
      <point x="330" y="1139" type="line" smooth="yes"/>
      <point x="334" y="1125"/>
      <point x="366" y="983"/>
      <point x="369" y="969" type="qcurve"/>
      <point x="377" y="969" type="line"/>
      <point x="392" y="1033"/>
      <point x="415" y="1106"/>
      <point x="422" y="1126" type="qcurve" smooth="yes"/>
      <point x="537" y="1452" type="line"/>
      <point x="627" y="1452" type="line"/>
      <point x="739" y="1135" type="line" smooth="yes"/>
      <point x="750" y="1104"/>
      <point x="773" y="1020"/>
      <point x="788" y="965" type="qcurve"/>
      <point x="797" y="965" type="line"/>
      <point x="805" y="999"/>
      <point x="827" y="1087"/>
      <point x="838" y="1124" type="qcurve" smooth="yes"/>
    </contour>
  </outline>
</glyph>
<glyph name="uni02AE" format="2">
  <advance width="1522"/>
  <unicode hex="02AE"/>
  <outline>
    <contour>
      <point x="635" y="391" type="line" smooth="yes"/>
      <point x="635" y="247"/>
      <point x="743" y="111"/>
      <point x="860" y="111" type="qcurve" smooth="yes"/>
      <point x="981" y="111"/>
      <point x="1108" y="284"/>
      <point x="1108" y="442" type="qcurve" smooth="yes"/>
      <point x="1108" y="874" type="line" smooth="yes"/>
      <point x="1108" y="942"/>
      <point x="1039" y="1012"/>
      <point x="942" y="1012" type="qcurve" smooth="yes"/>
      <point x="934" y="1012" type="line"/>
      <point x="934" y="1098" type="line"/>
      <point x="1485" y="1098" type="line"/>
      <point x="1485" y="1012" type="line"/>
      <point x="1468" y="1012" type="line" smooth="yes"/>
      <point x="1370" y="1012"/>
      <point x="1300" y="937"/>
      <point x="1300" y="864" type="qcurve" smooth="yes"/>
      <point x="1300" y="-266" type="line" smooth="yes"/>
      <point x="1300" y="-336"/>
      <point x="1374" y="-406"/>
      <point x="1468" y="-406" type="qcurve" smooth="yes"/>
      <point x="1485" y="-406" type="line"/>
      <point x="1485" y="-492" type="line"/>
      <point x="1108" y="-492" type="line"/>
      <point x="1108" y="-8" type="line" smooth="yes"/>
      <point x="1108" y="45"/>
      <point x="1114" y="137"/>
      <point x="1116" y="166" type="qcurve"/>
      <point x="1106" y="166" type="line"/>
      <point x="1012" y="-20"/>
      <point x="805" y="-20" type="qcurve" smooth="yes"/>
      <point x="619" y="-20"/>
      <point x="442" y="182"/>
      <point x="442" y="381" type="qcurve" smooth="yes"/>
      <point x="442" y="791" type="line" smooth="yes"/>
      <point x="442" y="913"/>
      <point x="379" y="1024"/>
      <point x="326" y="1024" type="qcurve" smooth="yes"/>
      <point x="274" y="1024"/>
      <point x="221" y="910"/>
      <point x="221" y="805" type="qcurve"/>
      <point x="118" y="805"/>
      <point x="31" y="868"/>
      <point x="31" y="924" type="qcurve" smooth="yes"/>
      <point x="31" y="1014"/>
      <point x="178" y="1118"/>
      <point x="317" y="1118" type="qcurve" smooth="yes"/>
      <point x="475" y="1118"/>
      <point x="635" y="942"/>
      <point x="635" y="772" type="qcurve" smooth="yes"/>
    </contour>
  </outline>
</glyph>
<glyph name="uni02B3" format="2">
  <advance width="694"/>
  <unicode hex="02B3"/>
  <outline>
    <contour>
      <point x="487" y="532" type="line"/>
      <point x="59" y="532" type="line"/>
      <point x="59" y="608" type="line"/>
      <point x="130" y="608"/>
      <point x="176" y="652"/>
      <point x="176" y="694" type="qcurve" smooth="yes"/>
      <point x="176" y="1112" type="line" smooth="yes"/>
      <point x="176" y="1153"/>
      <point x="128" y="1194"/>
      <point x="59" y="1194" type="qcurve"/>
      <point x="59" y="1270" type="line"/>
      <point x="299" y="1270" type="line"/>
      <point x="317" y="1143" type="line"/>
      <point x="324" y="1143" type="line"/>
      <point x="367" y="1230"/>
      <point x="463" y="1282"/>
      <point x="524" y="1282" type="qcurve" smooth="yes"/>
      <point x="597" y="1282"/>
      <point x="674" y="1228"/>
      <point x="674" y="1176" type="qcurve" smooth="yes"/>
      <point x="674" y="1123"/>
      <point x="595" y="1069"/>
      <point x="518" y="1069" type="qcurve"/>
      <point x="518" y="1127"/>
      <point x="490" y="1176"/>
      <point x="455" y="1176" type="qcurve" smooth="yes"/>
      <point x="398" y="1176"/>
      <point x="334" y="1004"/>
      <point x="334" y="899" type="qcurve" smooth="yes"/>
      <point x="334" y="688" type="line" smooth="yes"/>
      <point x="334" y="646"/>
      <point x="376" y="608"/>
      <point x="436" y="608" type="qcurve" smooth="yes"/>
      <point x="487" y="608" type="line"/>
    </contour>
  </outline>
</glyph>
<glyph name="uni02B5" format="2">
  <advance width="694"/>
  <unicode hex="02B5"/>
  <outline>
    <contour>
      <point x="520" y="465" type="line" smooth="yes"/>
      <point x="520" y="400"/>
      <point x="567" y="342"/>
      <point x="610" y="342" type="qcurve" smooth="yes"/>
      <point x="632" y="342"/>
      <point x="684" y="346"/>
      <point x="713" y="354" type="qcurve"/>
      <point x="713" y="274" type="line"/>
      <point x="695" y="265"/>
      <point x="617" y="252"/>
      <point x="575" y="252" type="qcurve" smooth="yes"/>
      <point x="460" y="252"/>
      <point x="360" y="351"/>
      <point x="360" y="469" type="qcurve" smooth="yes"/>
      <point x="360" y="543" type="line" smooth="yes"/>
      <point x="360" y="554"/>
      <point x="365" y="594"/>
      <point x="367" y="608" type="qcurve"/>
      <point x="358" y="608" type="line"/>
      <point x="333" y="565"/>
      <point x="252" y="520"/>
      <point x="186" y="520" type="qcurve" smooth="yes"/>
      <point x="103" y="520"/>
      <point x="25" y="576"/>
      <point x="25" y="627" type="qcurve" smooth="yes"/>
      <point x="25" y="678"/>
      <point x="100" y="731"/>
      <point x="180" y="731" type="qcurve"/>
      <point x="180" y="677"/>
      <point x="206" y="627"/>
      <point x="238" y="627" type="qcurve" smooth="yes"/>
      <point x="295" y="627"/>
      <point x="360" y="795"/>
      <point x="360" y="903" type="qcurve" smooth="yes"/>
      <point x="360" y="1116" type="line" smooth="yes"/>
      <point x="360" y="1155"/>
      <point x="323" y="1194"/>
      <point x="260" y="1194" type="qcurve" smooth="yes"/>
      <point x="209" y="1194" type="line"/>
      <point x="209" y="1270" type="line"/>
      <point x="637" y="1270" type="line"/>
      <point x="637" y="1194" type="line"/>
      <point x="565" y="1194"/>
      <point x="520" y="1151"/>
      <point x="520" y="1110" type="qcurve" smooth="yes"/>
    </contour>
  </outline>
</glyph>
<glyph name="uni02BE" format="2">
  <advance width="246"/>
  <unicode hex="02BE"/>
  <outline>
    <contour>
      <point x="0" y="1260" type="line"/>
      <point x="65" y="1260"/>
      <point x="135" y="1324"/>
      <point x="135" y="1382" type="qcurve" smooth="yes"/>
      <point x="135" y="1443"/>
      <point x="62" y="1505"/>
      <point x="0" y="1505" type="qcurve"/>
      <point x="0" y="1606" type="line"/>
      <point x="109" y="1606"/>
      <point x="246" y="1485"/>
      <point x="246" y="1382" type="qcurve" smooth="yes"/>
      <point x="246" y="1278"/>
      <point x="108" y="1159"/>
      <point x="0" y="1159" type="qcurve"/>
    </contour>
  </outline>
</glyph>
<glyph name="uni02C0" format="2">
  <advance width="600"/>
  <unicode hex="02C0"/>
  <outline>
    <contour>
      <point x="317" y="993" type="line"/>
      <point x="211" y="993" type="line"/>
      <point x="211" y="1163" type="line"/>
      <point x="299" y="1196"/>
      <point x="381" y="1297"/>
      <point x="381" y="1364" type="qcurve" smooth="yes"/>
      <point x="381" y="1410"/>
      <point x="334" y="1475"/>
      <point x="281" y="1475" type="qcurve" smooth="yes"/>
      <point x="229" y="1475"/>
      <point x="170" y="1403"/>
      <point x="170" y="1341" type="qcurve"/>
      <point x="108" y="1341"/>
      <point x="39" y="1376"/>
      <point x="39" y="1419" type="qcurve" smooth="yes"/>
      <point x="39" y="1482"/>
      <point x="161" y="1556"/>
      <point x="272" y="1556" type="qcurve" smooth="yes"/>
      <point x="391" y="1556"/>
      <point x="541" y="1442"/>
      <point x="541" y="1348" type="qcurve" smooth="yes"/>
      <point x="541" y="1257"/>
      <point x="431" y="1149"/>
      <point x="317" y="1112" type="qcurve"/>
    </contour>
  </outline>
</glyph>
<glyph name="uni02C9" format="2">
  <advance width="1024"/>
  <unicode hex="02C9"/>
  <outline>
    <contour>
      <point x="809" y="1262" type="line"/>
      <point x="215" y="1262" type="line"/>
      <point x="215" y="1383" type="line"/>
      <point x="809" y="1383" type="line"/>
    </contour>
  </outline>
</glyph>
<glyph name="uni02D3" format="2">
  <advance width="330"/>
  <unicode hex="02D3"/>
  <outline>
    <contour>
      <point x="288" y="840" type="line"/>
      <point x="226" y="840"/>
      <point x="153" y="778"/>
      <point x="153" y="717" type="qcurve" smooth="yes"/>
      <point x="153" y="656"/>
      <point x="226" y="594"/>
      <point x="288" y="594" type="qcurve"/>
      <point x="288" y="494" type="line"/>
      <point x="180" y="494"/>
      <point x="42" y="613"/>
      <point x="42" y="717" type="qcurve" smooth="yes"/>
      <point x="42" y="821"/>
      <point x="180" y="940"/>
      <point x="288" y="940" type="qcurve"/>
    </contour>
  </outline>
</glyph>
<glyph name="uni02D6" format="2">
  <advance width="444"/>
  <unicode hex="02D6"/>
  <outline>
    <contour>
      <point x="275" y="-328" type="line"/>
      <point x="275" y="-471" type="line"/>
      <point x="167" y="-471" type="line"/>
      <point x="167" y="-328" type="line"/>
      <point x="25" y="-328" type="line"/>
      <point x="25" y="-219" type="line"/>
      <point x="169" y="-219" type="line"/>
      <point x="169" y="-76" type="line"/>
      <point x="277" y="-76" type="line"/>
      <point x="277" y="-219" type="line"/>
      <point x="419" y="-219" type="line"/>
      <point x="419" y="-328" type="line"/>
    </contour>
  </outline>
</glyph>
<glyph name="uni02D7" format="2">
  <advance width="526"/>
  <unicode hex="02D7"/>
  <outline>
    <contour>
      <point x="501" y="-336" type="line"/>
      <point x="25" y="-336" type="line"/>
      <point x="25" y="-227" type="line"/>
      <point x="501" y="-227" type="line"/>
    </contour>
  </outline>
</glyph>
<glyph name="dotaccent" format="2">
  <advance width="666"/>
  <unicode hex="02D9"/>
  <outline>
    <contour>
      <point x="223" y="1399" type="qcurve" smooth="yes"/>
      <point x="223" y="1435"/>
      <point x="241" y="1483"/>
      <point x="273" y="1513"/>
      <point x="315" y="1525"/>
      <point x="340" y="1525" type="qcurve" smooth="yes"/>
      <point x="364" y="1525"/>
      <point x="406" y="1513"/>
      <point x="438" y="1483"/>
      <point x="457" y="1435"/>
      <point x="457" y="1399" type="qcurve" smooth="yes"/>
      <point x="457" y="1363"/>
      <point x="438" y="1315"/>
      <point x="406" y="1285"/>
      <point x="364" y="1272"/>
      <point x="340" y="1272" type="qcurve" smooth="yes"/>
      <point x="315" y="1272"/>
      <point x="273" y="1285"/>
      <point x="241" y="1315"/>
      <point x="223" y="1363"/>
    </contour>
  </outline>
</glyph>
<glyph name="uni02DF" format="2">
  <advance width="444"/>
  <unicode hex="02DF"/>
  <outline>
    <contour>
      <point x="15" y="1577" type="line"/>
      <point x="93" y="1653" type="line"/>
      <point x="222" y="1524" type="line"/>
      <point x="353" y="1653" type="line"/>
      <point x="429" y="1577" type="line"/>
      <point x="300" y="1446" type="line"/>
      <point x="429" y="1317" type="line"/>
      <point x="351" y="1239" type="line"/>
      <point x="222" y="1368" type="line"/>
      <point x="93" y="1239" type="line"/>
      <point x="15" y="1317" type="line"/>
      <point x="146" y="1446" type="line"/>
    </contour>
  </outline>
</glyph>
<glyph name="uni02E0" format="2">
  <advance width="821"/>
  <unicode hex="02E0"/>
  <outline>
    <contour>
      <point x="496" y="731" type="line"/>
      <point x="542" y="644"/>
      <point x="584" y="498"/>
      <point x="584" y="438" type="qcurve" smooth="yes"/>
      <point x="584" y="352"/>
      <point x="485" y="252"/>
      <point x="406" y="252" type="qcurve" smooth="yes"/>
      <point x="330" y="252"/>
      <point x="250" y="333"/>
      <point x="250" y="406" type="qcurve" smooth="yes"/>
      <point x="250" y="462"/>
      <point x="294" y="584"/>
      <point x="350" y="682" type="qcurve"/>
      <point x="106" y="1122" type="line" smooth="yes"/>
      <point x="86" y="1159"/>
      <point x="56" y="1194"/>
      <point x="10" y="1194" type="qcurve" smooth="yes"/>
      <point x="2" y="1194" type="line"/>
      <point x="2" y="1270" type="line"/>
      <point x="389" y="1270" type="line"/>
      <point x="389" y="1194" type="line"/>
      <point x="371" y="1194" type="line" smooth="yes"/>
      <point x="325" y="1194"/>
      <point x="285" y="1170"/>
      <point x="285" y="1139" type="qcurve" smooth="yes"/>
      <point x="285" y="1126"/>
      <point x="297" y="1091"/>
      <point x="305" y="1077" type="qcurve" smooth="yes"/>
      <point x="446" y="817" type="line"/>
      <point x="578" y="1067" type="line"/>
      <point x="585" y="1085"/>
      <point x="598" y="1127"/>
      <point x="598" y="1135" type="qcurve" smooth="yes"/>
      <point x="598" y="1169"/>
      <point x="555" y="1194"/>
      <point x="506" y="1194" type="qcurve" smooth="yes"/>
      <point x="494" y="1194" type="line"/>
      <point x="494" y="1270" type="line"/>
      <point x="821" y="1270" type="line"/>
      <point x="821" y="1194" type="line"/>
      <point x="805" y="1194" type="line" smooth="yes"/>
      <point x="759" y="1194"/>
      <point x="720" y="1134"/>
      <point x="696" y="1090" type="qcurve" smooth="yes"/>
    </contour>
    <contour>
      <point x="397" y="590" type="qcurve"/>
      <point x="368" y="537"/>
      <point x="340" y="445"/>
      <point x="340" y="410" type="qcurve" smooth="yes"/>
      <point x="340" y="374"/>
      <point x="368" y="336"/>
      <point x="393" y="336" type="qcurve" smooth="yes"/>
      <point x="415" y="336"/>
      <point x="440" y="374"/>
      <point x="440" y="416" type="qcurve" smooth="yes"/>
      <point x="440" y="442"/>
      <point x="426" y="525"/>
    </contour>
  </outline>
</glyph>
<glyph name="uni02E1" format="2">
  <advance width="461"/>
  <unicode hex="02E1"/>
  <outline>
    <contour>
      <point x="53" y="608" type="line" smooth="yes"/>
      <point x="114" y="608"/>
      <point x="154" y="652"/>
      <point x="154" y="694" type="qcurve" smooth="yes"/>
      <point x="154" y="1401" type="line" smooth="yes"/>
      <point x="154" y="1441"/>
      <point x="107" y="1481"/>
      <point x="53" y="1481" type="qcurve" smooth="yes"/>
      <point x="20" y="1481" type="line"/>
      <point x="20" y="1556" type="line"/>
      <point x="307" y="1556" type="line"/>
      <point x="307" y="694" type="line" smooth="yes"/>
      <point x="307" y="651"/>
      <point x="348" y="608"/>
      <point x="410" y="608" type="qcurve" smooth="yes"/>
      <point x="442" y="608" type="line"/>
      <point x="442" y="532" type="line"/>
      <point x="20" y="532" type="line"/>
      <point x="20" y="608" type="line"/>
    </contour>
  </outline>
</glyph>
<glyph name="uni02E2" format="2">
  <advance width="690"/>
  <unicode hex="02E2"/>
  <outline>
    <contour>
      <point x="80" y="672" type="qcurve" smooth="yes"/>
      <point x="80" y="720"/>
      <point x="147" y="772"/>
      <point x="197" y="772" type="qcurve"/>
      <point x="197" y="688"/>
      <point x="268" y="596"/>
      <point x="334" y="596" type="qcurve" smooth="yes"/>
      <point x="400" y="596"/>
      <point x="471" y="665"/>
      <point x="471" y="715" type="qcurve" smooth="yes"/>
      <point x="471" y="784"/>
      <point x="250" y="870"/>
      <point x="92" y="978"/>
      <point x="92" y="1083" type="qcurve" smooth="yes"/>
      <point x="92" y="1174"/>
      <point x="240" y="1280"/>
      <point x="365" y="1280" type="qcurve" smooth="yes"/>
      <point x="467" y="1280"/>
      <point x="582" y="1207"/>
      <point x="582" y="1149" type="qcurve" smooth="yes"/>
      <point x="582" y="1107"/>
      <point x="515" y="1059"/>
      <point x="455" y="1059" type="qcurve"/>
      <point x="455" y="1127"/>
      <point x="404" y="1204"/>
      <point x="348" y="1204" type="qcurve" smooth="yes"/>
      <point x="285" y="1204"/>
      <point x="231" y="1147"/>
      <point x="231" y="1102" type="qcurve" smooth="yes"/>
      <point x="231" y="1030"/>
      <point x="457" y="951"/>
      <point x="610" y="842"/>
      <point x="610" y="739" type="qcurve" smooth="yes"/>
      <point x="610" y="636"/>
      <point x="456" y="520"/>
      <point x="324" y="520" type="qcurve" smooth="yes"/>
      <point x="208" y="520"/>
      <point x="80" y="600"/>
    </contour>
  </outline>
</glyph>
<glyph name="uni02E4" format="2">
  <advance width="729"/>
  <unicode hex="02E4"/>
  <outline>
    <contour>
      <point x="387" y="1556" type="qcurve" smooth="yes"/>
      <point x="516" y="1556"/>
      <point x="676" y="1456"/>
      <point x="676" y="1389" type="qcurve" smooth="yes"/>
      <point x="676" y="1342"/>
      <point x="602" y="1292"/>
      <point x="539" y="1292" type="qcurve"/>
      <point x="539" y="1379"/>
      <point x="463" y="1470"/>
      <point x="387" y="1470" type="qcurve" smooth="yes"/>
      <point x="317" y="1470"/>
      <point x="240" y="1371"/>
      <point x="240" y="1292" type="qcurve" smooth="yes"/>
      <point x="240" y="1201"/>
      <point x="340" y="1084"/>
      <point x="479" y="1022" type="qcurve"/>
      <point x="479" y="694" type="line" smooth="yes"/>
      <point x="479" y="650"/>
      <point x="518" y="608"/>
      <point x="580" y="608" type="qcurve" smooth="yes"/>
      <point x="610" y="608" type="line"/>
      <point x="610" y="532" type="line"/>
      <point x="190" y="532" type="line"/>
      <point x="190" y="608" type="line"/>
      <point x="221" y="608" type="line" smooth="yes"/>
      <point x="280" y="608"/>
      <point x="321" y="652"/>
      <point x="321" y="694" type="qcurve" smooth="yes"/>
      <point x="326" y="946" type="line"/>
      <point x="199" y="1012"/>
      <point x="82" y="1170"/>
      <point x="82" y="1282" type="qcurve" smooth="yes"/>
      <point x="82" y="1403"/>
      <point x="243" y="1556"/>
    </contour>
  </outline>
</glyph>
<glyph name="uni02E6" format="2">
  <advance width="801"/>
  <unicode hex="02E6"/>
  <outline>
    <contour>
      <point x="604" y="1556" type="line"/>
      <point x="725" y="1556" type="line"/>
      <point x="725" y="-492" type="line"/>
      <point x="604" y="-492" type="line"/>
      <point x="604" y="954" type="line"/>
      <point x="68" y="954" type="line"/>
      <point x="68" y="1073" type="line"/>
      <point x="604" y="1073" type="line"/>
    </contour>
  </outline>
</glyph>
<glyph name="uni02E8" format="2">
  <advance width="801"/>
  <unicode hex="02E8"/>
  <outline>
    <contour>
      <point x="68" y="-10" type="line"/>
      <point x="68" y="111" type="line"/>
      <point x="604" y="111" type="line"/>
      <point x="604" y="1556" type="line"/>
      <point x="725" y="1556" type="line"/>
      <point x="725" y="-492" type="line"/>
      <point x="604" y="-492" type="line"/>
      <point x="604" y="-10" type="line"/>
    </contour>
  </outline>
</glyph>
<glyph name="uni02E9" format="2">
  <advance width="801"/>
  <unicode hex="02E9"/>
  <outline>
    <contour>
      <point x="725" y="1556" type="line"/>
      <point x="725" y="-492" type="line"/>
      <point x="68" y="-492" type="line"/>
      <point x="68" y="-373" type="line"/>
      <point x="604" y="-373" type="line"/>
      <point x="604" y="1556" type="line"/>
    </contour>
  </outline>
</glyph>
<glyph name="uni02EA" format="2">
  <advance width="801"/>
  <unicode hex="02EA"/>
  <outline>
    <contour>
      <point x="260" y="1133" type="line"/>
      <point x="260" y="78" type="line"/>
      <point x="608" y="78" type="line"/>
      <point x="608" y="0" type="line"/>
      <point x="182" y="0" type="line"/>
      <point x="182" y="1133" type="line"/>
    </contour>
  </outline>
</glyph>
<glyph name="uni02EB" format="2">
  <advance width="801"/>
  <unicode hex="02EB"/>
  <outline>
    <contour>
      <point x="260" y="604" type="line"/>
      <point x="608" y="604" type="line"/>
      <point x="608" y="526" type="line"/>
      <point x="260" y="526" type="line"/>
      <point x="260" y="0" type="line"/>
      <point x="182" y="0" type="line"/>
      <point x="182" y="1133" type="line"/>
      <point x="260" y="1133" type="line"/>
    </contour>
  </outline>
</glyph>
<glyph name="uni02EF" format="2">
  <advance width="558"/>
  <unicode hex="02EF"/>
  <outline>
    <contour>
      <point x="279" y="-301" type="qcurve"/>
      <point x="311" y="-233"/>
      <point x="391" y="-116"/>
      <point x="439" y="-57" type="qcurve"/>
      <point x="543" y="-57" type="line"/>
      <point x="543" y="-78" type="line"/>
      <point x="471" y="-178"/>
      <point x="373" y="-384"/>
      <point x="330" y="-492" type="qcurve"/>
      <point x="230" y="-492" type="line"/>
      <point x="149" y="-299"/>
      <point x="59" y="-138"/>
      <point x="15" y="-78" type="qcurve"/>
      <point x="15" y="-57" type="line"/>
      <point x="119" y="-57" type="line"/>
      <point x="167" y="-116"/>
      <point x="247" y="-233"/>
    </contour>
  </outline>
</glyph>
<glyph name="uni02F1" format="2">
  <advance width="558"/>
  <unicode hex="02F1"/>
  <outline>
    <contour>
      <point x="252" y="-227" type="qcurve"/>
      <point x="320" y="-259"/>
      <point x="437" y="-339"/>
      <point x="496" y="-387" type="qcurve"/>
      <point x="496" y="-492" type="line"/>
      <point x="476" y="-492" type="line"/>
      <point x="375" y="-419"/>
      <point x="169" y="-322"/>
      <point x="62" y="-279" type="qcurve"/>
      <point x="62" y="-178" type="line"/>
      <point x="233" y="-108"/>
      <point x="403" y="-16"/>
      <point x="476" y="37" type="qcurve"/>
      <point x="496" y="37" type="line"/>
      <point x="496" y="-68" type="line"/>
      <point x="437" y="-116"/>
      <point x="320" y="-195"/>
    </contour>
  </outline>
</glyph>
<glyph name="uni02F2" format="2">
  <advance width="558"/>
  <unicode hex="02F2"/>
  <outline>
    <contour>
      <point x="306" y="-227" type="qcurve"/>
      <point x="238" y="-195"/>
      <point x="121" y="-116"/>
      <point x="62" y="-68" type="qcurve"/>
      <point x="62" y="37" type="line"/>
      <point x="82" y="37" type="line"/>
      <point x="183" y="-35"/>
      <point x="388" y="-133"/>
      <point x="496" y="-176" type="qcurve"/>
      <point x="496" y="-276" type="line"/>
      <point x="280" y="-368"/>
      <point x="134" y="-454"/>
      <point x="82" y="-492" type="qcurve"/>
      <point x="62" y="-492" type="line"/>
      <point x="62" y="-387" type="line"/>
      <point x="121" y="-339"/>
      <point x="238" y="-259"/>
    </contour>
  </outline>
</glyph>
<glyph name="uni02F4" format="2">
  <advance width="441"/>
  <unicode hex="02F4"/>
  <outline>
    <contour>
      <point x="420" y="580" type="line"/>
      <point x="342" y="580" type="line"/>
      <point x="271" y="627"/>
      <point x="61" y="832"/>
      <point x="22" y="887" type="qcurve"/>
      <point x="22" y="907" type="line"/>
      <point x="241" y="907" type="line"/>
      <point x="272" y="839"/>
      <point x="382" y="654"/>
      <point x="420" y="606" type="qcurve"/>
    </contour>
  </outline>
</glyph>
<glyph name="uni02FA" format="2">
  <advance width="380"/>
  <unicode hex="02FA"/>
  <outline>
    <contour>
      <point x="360" y="1395" type="line"/>
      <point x="360" y="1055" type="line"/>
      <point x="251" y="1055" type="line"/>
      <point x="251" y="1286" type="line"/>
      <point x="20" y="1286" type="line"/>
      <point x="20" y="1395" type="line"/>
    </contour>
  </outline>
</glyph>
<glyph name="uni030E" format="2">
  <unicode hex="030E"/>
  <outline>
    <contour>
      <point x="-90" y="1556" type="line"/>
      <point x="-90" y="1221" type="line"/>
      <point x="-205" y="1221" type="line"/>
      <point x="-205" y="1556" type="line"/>
    </contour>
    <contour>
      <point x="205" y="1556" type="line"/>
      <point x="205" y="1221" type="line"/>
      <point x="90" y="1221" type="line"/>
      <point x="90" y="1556" type="line"/>
    </contour>
  </outline>
</glyph>
<glyph name="uni0310" format="2">
  <unicode hex="0310"/>
  <outline>
    <contour>
      <point x="0" y="1477" type="qcurve" smooth="yes"/>
      <point x="-48" y="1477"/>
      <point x="-104" y="1533"/>
      <point x="-104" y="1591" type="qcurve" smooth="yes"/>
      <point x="-104" y="1654"/>
      <point x="-44" y="1706"/>
      <point x="0" y="1706" type="qcurve" smooth="yes"/>
      <point x="51" y="1706"/>
      <point x="104" y="1648"/>
      <point x="104" y="1591" type="qcurve" smooth="yes"/>
      <point x="104" y="1529"/>
      <point x="45" y="1477"/>
    </contour>
    <contour>
      <point x="-287" y="1501" type="qcurve"/>
      <point x="-193" y="1501" type="line"/>
      <point x="-176" y="1427"/>
      <point x="-75" y="1362"/>
      <point x="0" y="1362" type="qcurve" smooth="yes"/>
      <point x="75" y="1362"/>
      <point x="176" y="1427"/>
      <point x="193" y="1501" type="qcurve"/>
      <point x="287" y="1501" type="line"/>
      <point x="282" y="1372"/>
      <point x="133" y="1221"/>
      <point x="0" y="1221" type="qcurve" smooth="yes"/>
      <point x="-136" y="1221"/>
      <point x="-285" y="1378"/>
    </contour>
  </outline>
</glyph>
<glyph name="uni0311" format="2">
  <unicode hex="0311"/>
  <outline>
    <contour>
      <point x="287" y="1241" type="qcurve"/>
      <point x="193" y="1241" type="line"/>
      <point x="176" y="1315"/>
      <point x="75" y="1380"/>
      <point x="0" y="1380" type="qcurve" smooth="yes"/>
      <point x="-75" y="1380"/>
      <point x="-176" y="1315"/>
      <point x="-193" y="1241" type="qcurve"/>
      <point x="-287" y="1241" type="line"/>
      <point x="-285" y="1368"/>
      <point x="-133" y="1522"/>
      <point x="0" y="1522" type="qcurve" smooth="yes"/>
      <point x="130" y="1522"/>
      <point x="282" y="1373"/>
    </contour>
  </outline>
</glyph>
<glyph name="uni0318" format="2">
  <unicode hex="0318"/>
  <outline>
    <contour>
      <point x="47" y="-309" type="line"/>
      <point x="-156" y="-309" type="line"/>
      <point x="-156" y="-201" type="line"/>
      <point x="47" y="-201" type="line"/>
      <point x="47" y="-78" type="line"/>
      <point x="156" y="-78" type="line"/>
      <point x="156" y="-432" type="line"/>
      <point x="47" y="-432" type="line"/>
    </contour>
  </outline>
</glyph>
<glyph name="uni0326" format="2">
  <unicode hex="0326"/>
  <outline>
    <contour>
      <point x="-117" y="-426" type="line"/>
      <point x="-100" y="-358"/>
      <point x="-68" y="-199"/>
      <point x="-55" y="-125" type="qcurve"/>
      <point x="143" y="-125" type="line"/>
      <point x="143" y="-145" type="line"/>
      <point x="114" y="-212"/>
      <point x="15" y="-392"/>
      <point x="-27" y="-453" type="qcurve"/>
      <point x="-117" y="-453" type="line"/>
    </contour>
  </outline>
</glyph>
<glyph name="uni0329" format="2">
  <unicode hex="0329"/>
  <outline>
    <contour>
      <point x="-59" y="-80" type="line"/>
      <point x="61" y="-80" type="line"/>
      <point x="61" y="-408" type="line"/>
      <point x="-59" y="-408" type="line"/>
    </contour>
  </outline>
</glyph>
<glyph name="uni032D" format="2">
  <unicode hex="032D"/>
  <outline>
    <contour>
      <point x="-303" y="-424" type="line"/>
      <point x="-255" y="-366"/>
      <point x="-124" y="-179"/>
      <point x="-98" y="-123" type="qcurve"/>
      <point x="96" y="-123" type="line"/>
      <point x="123" y="-181"/>
      <point x="244" y="-355"/>
      <point x="301" y="-424" type="qcurve"/>
      <point x="301" y="-451" type="line"/>
      <point x="221" y="-451" type="line"/>
      <point x="162" y="-417"/>
      <point x="44" y="-316"/>
      <point x="-2" y="-266" type="qcurve"/>
      <point x="-48" y="-316"/>
      <point x="-164" y="-417"/>
      <point x="-223" y="-451" type="qcurve"/>
      <point x="-303" y="-451" type="line"/>
    </contour>
  </outline>
</glyph>
<glyph name="uni0333" format="2">
  <advance width="819"/>
  <unicode hex="0333"/>
  <outline>
    <contour>
      <point x="840" y="-451" type="line"/>
      <point x="-20" y="-451" type="line"/>
      <point x="-20" y="-330" type="line"/>
      <point x="840" y="-330" type="line"/>
    </contour>
    <contour>
      <point x="840" y="-205" type="line"/>
      <point x="-20" y="-205" type="line"/>
      <point x="-20" y="-84" type="line"/>
      <point x="840" y="-84" type="line"/>
    </contour>
  </outline>
</glyph>
<glyph name="uni0335" format="2">
  <unicode hex="0335"/>
  <outline>
    <contour>
      <point x="358" y="512" type="line"/>
      <point x="-358" y="512" type="line"/>
      <point x="-358" y="633" type="line"/>
      <point x="358" y="633" type="line"/>
    </contour>
  </outline>
</glyph>
<glyph name="uni0336" format="2">
  <unicode hex="0336"/>
  <outline>
    <contour>
      <point x="635" y="512" type="line"/>
      <point x="-635" y="512" type="line"/>
      <point x="-635" y="633" type="line"/>
      <point x="635" y="633" type="line"/>
    </contour>
  </outline>
</glyph>
<glyph name="uni0337" format="2">
  <unicode hex="0337"/>
  <outline>
    <contour>
      <point x="338" y="705" type="line"/>
      <point x="-276" y="340" type="line"/>
      <point x="-338" y="444" type="line"/>
      <point x="276" y="809" type="line"/>
    </contour>
  </outline>
</glyph>
<glyph name="uni033D" format="2">
  <unicode hex="033D"/>
  <outline>
    <contour>
      <point x="0" y="1288" type="line"/>
      <point x="-102" y="1188" type="line"/>
      <point x="-178" y="1264" type="line"/>
      <point x="-78" y="1364" type="line"/>
      <point x="-178" y="1466" type="line"/>
      <point x="-102" y="1542" type="line"/>
      <point x="0" y="1440" type="line"/>
      <point x="102" y="1542" type="line"/>
      <point x="178" y="1464" type="line"/>
      <point x="78" y="1364" type="line"/>
      <point x="176" y="1264" type="line"/>
      <point x="100" y="1188" type="line"/>
    </contour>
  </outline>
</glyph>
<glyph name="uni0347" format="2">
  <unicode hex="0347"/>
  <outline>
    <contour>
      <point x="430" y="-451" type="line"/>
      <point x="-430" y="-451" type="line"/>
      <point x="-430" y="-330" type="line"/>
      <point x="430" y="-330" type="line"/>
    </contour>
    <contour>
      <point x="430" y="-205" type="line"/>
      <point x="-430" y="-205" type="line"/>
      <point x="-430" y="-84" type="line"/>
      <point x="430" y="-84" type="line"/>
    </contour>
  </outline>
</glyph>
